G04 #@! TF.GenerationSoftware,KiCad,Pcbnew,(6.0.2)*
G04 #@! TF.CreationDate,2022-03-02T03:30:40+09:00*
G04 #@! TF.ProjectId,nes_peripheral,6e65735f-7065-4726-9970-686572616c2e,rev?*
G04 #@! TF.SameCoordinates,Original*
G04 #@! TF.FileFunction,Paste,Bot*
G04 #@! TF.FilePolarity,Positive*
%FSLAX46Y46*%
G04 Gerber Fmt 4.6, Leading zero omitted, Abs format (unit mm)*
G04 Created by KiCad (PCBNEW (6.0.2)) date 2022-03-02 03:30:40*
%MOMM*%
%LPD*%
G01*
G04 APERTURE LIST*
G04 Aperture macros list*
%AMRoundRect*
0 Rectangle with rounded corners*
0 $1 Rounding radius*
0 $2 $3 $4 $5 $6 $7 $8 $9 X,Y pos of 4 corners*
0 Add a 4 corners polygon primitive as box body*
4,1,4,$2,$3,$4,$5,$6,$7,$8,$9,$2,$3,0*
0 Add four circle primitives for the rounded corners*
1,1,$1+$1,$2,$3*
1,1,$1+$1,$4,$5*
1,1,$1+$1,$6,$7*
1,1,$1+$1,$8,$9*
0 Add four rect primitives between the rounded corners*
20,1,$1+$1,$2,$3,$4,$5,0*
20,1,$1+$1,$4,$5,$6,$7,0*
20,1,$1+$1,$6,$7,$8,$9,0*
20,1,$1+$1,$8,$9,$2,$3,0*%
G04 Aperture macros list end*
%ADD10RoundRect,0.237500X-0.300000X-0.237500X0.300000X-0.237500X0.300000X0.237500X-0.300000X0.237500X0*%
%ADD11RoundRect,0.237500X-0.237500X0.250000X-0.237500X-0.250000X0.237500X-0.250000X0.237500X0.250000X0*%
%ADD12RoundRect,0.237500X0.237500X-0.250000X0.237500X0.250000X-0.237500X0.250000X-0.237500X-0.250000X0*%
%ADD13RoundRect,0.237500X-0.237500X0.300000X-0.237500X-0.300000X0.237500X-0.300000X0.237500X0.300000X0*%
%ADD14RoundRect,0.237500X0.300000X0.237500X-0.300000X0.237500X-0.300000X-0.237500X0.300000X-0.237500X0*%
%ADD15RoundRect,0.237500X-0.250000X-0.237500X0.250000X-0.237500X0.250000X0.237500X-0.250000X0.237500X0*%
%ADD16RoundRect,0.237500X0.237500X-0.300000X0.237500X0.300000X-0.237500X0.300000X-0.237500X-0.300000X0*%
G04 APERTURE END LIST*
D10*
X80940000Y-95880000D03*
X82665000Y-95880000D03*
X106240000Y-46280000D03*
X107965000Y-46280000D03*
X80877500Y-78080000D03*
X82602500Y-78080000D03*
X43587500Y-110080000D03*
X45312500Y-110080000D03*
X43587500Y-111760000D03*
X45312500Y-111760000D03*
X80840000Y-69180000D03*
X82565000Y-69180000D03*
D11*
X59240000Y-128655000D03*
X59240000Y-130480000D03*
X55240000Y-118955000D03*
X55240000Y-120780000D03*
X67940000Y-118967500D03*
X67940000Y-120792500D03*
D10*
X93540000Y-66680000D03*
X95265000Y-66680000D03*
D11*
X69440000Y-118967500D03*
X69440000Y-120792500D03*
D12*
X93980000Y-114280000D03*
X93980000Y-112455000D03*
D13*
X124740000Y-132155000D03*
X124740000Y-133880000D03*
D12*
X83840000Y-114280000D03*
X83840000Y-112455000D03*
D10*
X93615000Y-84480000D03*
X95340000Y-84480000D03*
D11*
X58240000Y-118955000D03*
X58240000Y-120780000D03*
X62240000Y-128655000D03*
X62240000Y-130480000D03*
D10*
X93615000Y-75580000D03*
X95340000Y-75580000D03*
D11*
X70940000Y-118967500D03*
X70940000Y-120792500D03*
X73540000Y-128667500D03*
X73540000Y-130492500D03*
X72040000Y-128667500D03*
X72040000Y-130492500D03*
D14*
X99440000Y-102280000D03*
X97715000Y-102280000D03*
D10*
X80840000Y-60280000D03*
X82565000Y-60280000D03*
D11*
X53940000Y-128655000D03*
X53940000Y-130480000D03*
X60740000Y-128655000D03*
X60740000Y-130480000D03*
D10*
X80877500Y-86980000D03*
X82602500Y-86980000D03*
X93640000Y-93380000D03*
X95365000Y-93380000D03*
D11*
X75040000Y-128667500D03*
X75040000Y-130492500D03*
D14*
X99465000Y-57780000D03*
X97740000Y-57780000D03*
D11*
X57740000Y-128667500D03*
X57740000Y-130492500D03*
D14*
X112165000Y-55280000D03*
X110440000Y-55280000D03*
D11*
X66640000Y-128667500D03*
X66640000Y-130492500D03*
D15*
X51040000Y-82280000D03*
X52865000Y-82280000D03*
D12*
X69540000Y-97267500D03*
X69540000Y-95442500D03*
D11*
X70540000Y-128667500D03*
X70540000Y-130492500D03*
D10*
X93540000Y-48880000D03*
X95265000Y-48880000D03*
D16*
X85740000Y-127380000D03*
X85740000Y-125655000D03*
D14*
X99440000Y-93380000D03*
X97715000Y-93380000D03*
D10*
X93525000Y-57780000D03*
X95250000Y-57780000D03*
D14*
X112265000Y-46280000D03*
X110540000Y-46280000D03*
D13*
X95840000Y-121480000D03*
X95840000Y-123205000D03*
D16*
X95840000Y-127380000D03*
X95840000Y-125655000D03*
D15*
X48540000Y-110080000D03*
X50365000Y-110080000D03*
D10*
X93640000Y-102280000D03*
X95365000Y-102280000D03*
D13*
X53940000Y-123317500D03*
X53940000Y-125042500D03*
D14*
X86740000Y-95880000D03*
X85015000Y-95880000D03*
X99440000Y-84480000D03*
X97715000Y-84480000D03*
X99465000Y-75580000D03*
X97740000Y-75580000D03*
D12*
X72340000Y-97180000D03*
X72340000Y-95355000D03*
D14*
X86765000Y-60280000D03*
X85040000Y-60280000D03*
D13*
X66740000Y-123317500D03*
X66740000Y-125042500D03*
D14*
X86765000Y-69180000D03*
X85040000Y-69180000D03*
D10*
X132077500Y-56380000D03*
X133802500Y-56380000D03*
D15*
X43240000Y-101880000D03*
X45065000Y-101880000D03*
D10*
X106240000Y-55280000D03*
X107965000Y-55280000D03*
D14*
X86802500Y-78080000D03*
X85077500Y-78080000D03*
X86802500Y-86980000D03*
X85077500Y-86980000D03*
X99465000Y-66680000D03*
X97740000Y-66680000D03*
D13*
X85740000Y-121480000D03*
X85740000Y-123205000D03*
D14*
X99465000Y-48880000D03*
X97740000Y-48880000D03*
D11*
X56740000Y-118955000D03*
X56740000Y-120780000D03*
M02*
