G04 #@! TF.GenerationSoftware,KiCad,Pcbnew,(6.0.2)*
G04 #@! TF.CreationDate,2022-03-02T03:30:40+09:00*
G04 #@! TF.ProjectId,nes_peripheral,6e65735f-7065-4726-9970-686572616c2e,rev?*
G04 #@! TF.SameCoordinates,Original*
G04 #@! TF.FileFunction,Legend,Bot*
G04 #@! TF.FilePolarity,Positive*
%FSLAX46Y46*%
G04 Gerber Fmt 4.6, Leading zero omitted, Abs format (unit mm)*
G04 Created by KiCad (PCBNEW (6.0.2)) date 2022-03-02 03:30:40*
%MOMM*%
%LPD*%
G01*
G04 APERTURE LIST*
G04 Aperture macros list*
%AMRoundRect*
0 Rectangle with rounded corners*
0 $1 Rounding radius*
0 $2 $3 $4 $5 $6 $7 $8 $9 X,Y pos of 4 corners*
0 Add a 4 corners polygon primitive as box body*
4,1,4,$2,$3,$4,$5,$6,$7,$8,$9,$2,$3,0*
0 Add four circle primitives for the rounded corners*
1,1,$1+$1,$2,$3*
1,1,$1+$1,$4,$5*
1,1,$1+$1,$6,$7*
1,1,$1+$1,$8,$9*
0 Add four rect primitives between the rounded corners*
20,1,$1+$1,$2,$3,$4,$5,0*
20,1,$1+$1,$4,$5,$6,$7,0*
20,1,$1+$1,$6,$7,$8,$9,0*
20,1,$1+$1,$8,$9,$2,$3,0*%
G04 Aperture macros list end*
%ADD10C,0.150000*%
%ADD11C,0.100000*%
%ADD12C,0.200000*%
%ADD13C,0.120000*%
%ADD14R,1.700000X1.700000*%
%ADD15O,1.700000X1.700000*%
%ADD16C,3.600000*%
%ADD17C,6.400000*%
%ADD18R,3.000000X3.000000*%
%ADD19C,3.000000*%
%ADD20O,4.700000X2.000000*%
%ADD21O,4.200000X2.000000*%
%ADD22O,2.000000X4.200000*%
%ADD23RoundRect,0.237500X-0.300000X-0.237500X0.300000X-0.237500X0.300000X0.237500X-0.300000X0.237500X0*%
%ADD24RoundRect,0.237500X-0.237500X0.250000X-0.237500X-0.250000X0.237500X-0.250000X0.237500X0.250000X0*%
%ADD25RoundRect,0.237500X0.237500X-0.250000X0.237500X0.250000X-0.237500X0.250000X-0.237500X-0.250000X0*%
%ADD26RoundRect,0.237500X-0.237500X0.300000X-0.237500X-0.300000X0.237500X-0.300000X0.237500X0.300000X0*%
%ADD27RoundRect,0.237500X0.300000X0.237500X-0.300000X0.237500X-0.300000X-0.237500X0.300000X-0.237500X0*%
%ADD28RoundRect,0.237500X-0.250000X-0.237500X0.250000X-0.237500X0.250000X0.237500X-0.250000X0.237500X0*%
%ADD29RoundRect,0.237500X0.237500X-0.300000X0.237500X0.300000X-0.237500X0.300000X-0.237500X-0.300000X0*%
G04 APERTURE END LIST*
D10*
X109220000Y-130810000D02*
X118110000Y-130810000D01*
X138430000Y-125730000D02*
X104140000Y-125730000D01*
X119380000Y-133350000D02*
X138490000Y-133410000D01*
X123190000Y-135128000D02*
X124206000Y-135636000D01*
X120650000Y-135128000D02*
X123190000Y-135128000D01*
X118110000Y-130810000D02*
X119380000Y-133350000D01*
X116840000Y-130810000D02*
X104140000Y-130810000D01*
X104140000Y-130810000D02*
X104140000Y-57150000D01*
X104140000Y-57150000D02*
X116840000Y-57150000D01*
X116840000Y-57150000D02*
X116840000Y-130810000D01*
X110240119Y-76333333D02*
X109859166Y-76333333D01*
X110316309Y-76561904D02*
X110049642Y-75761904D01*
X109782976Y-76561904D01*
X109135357Y-75761904D02*
X109516309Y-75761904D01*
X109554404Y-76142857D01*
X109516309Y-76104761D01*
X109440119Y-76066666D01*
X109249642Y-76066666D01*
X109173452Y-76104761D01*
X109135357Y-76142857D01*
X109097261Y-76219047D01*
X109097261Y-76409523D01*
X109135357Y-76485714D01*
X109173452Y-76523809D01*
X109249642Y-76561904D01*
X109440119Y-76561904D01*
X109516309Y-76523809D01*
X109554404Y-76485714D01*
X109782976Y-58020000D02*
X109859166Y-57981904D01*
X109973452Y-57981904D01*
X110087738Y-58020000D01*
X110163928Y-58096190D01*
X110202023Y-58172380D01*
X110240119Y-58324761D01*
X110240119Y-58439047D01*
X110202023Y-58591428D01*
X110163928Y-58667619D01*
X110087738Y-58743809D01*
X109973452Y-58781904D01*
X109897261Y-58781904D01*
X109782976Y-58743809D01*
X109744880Y-58705714D01*
X109744880Y-58439047D01*
X109897261Y-58439047D01*
X109402023Y-58781904D02*
X109402023Y-57981904D01*
X108944880Y-58781904D01*
X108944880Y-57981904D01*
X108563928Y-58781904D02*
X108563928Y-57981904D01*
X108373452Y-57981904D01*
X108259166Y-58020000D01*
X108182976Y-58096190D01*
X108144880Y-58172380D01*
X108106785Y-58324761D01*
X108106785Y-58439047D01*
X108144880Y-58591428D01*
X108182976Y-58667619D01*
X108259166Y-58743809D01*
X108373452Y-58781904D01*
X108563928Y-58781904D01*
X110240119Y-83953333D02*
X109859166Y-83953333D01*
X110316309Y-84181904D02*
X110049642Y-83381904D01*
X109782976Y-84181904D01*
X109554404Y-83458095D02*
X109516309Y-83420000D01*
X109440119Y-83381904D01*
X109249642Y-83381904D01*
X109173452Y-83420000D01*
X109135357Y-83458095D01*
X109097261Y-83534285D01*
X109097261Y-83610476D01*
X109135357Y-83724761D01*
X109592500Y-84181904D01*
X109097261Y-84181904D01*
X116552023Y-122281904D02*
X116552023Y-121481904D01*
X116247261Y-121481904D01*
X116171071Y-121520000D01*
X116132976Y-121558095D01*
X116094880Y-121634285D01*
X116094880Y-121748571D01*
X116132976Y-121824761D01*
X116171071Y-121862857D01*
X116247261Y-121900952D01*
X116552023Y-121900952D01*
X115790119Y-122053333D02*
X115409166Y-122053333D01*
X115866309Y-122281904D02*
X115599642Y-121481904D01*
X115332976Y-122281904D01*
X114647261Y-122281904D02*
X115104404Y-122281904D01*
X114875833Y-122281904D02*
X114875833Y-121481904D01*
X114952023Y-121596190D01*
X115028214Y-121672380D01*
X115104404Y-121710476D01*
X114380595Y-121481904D02*
X113885357Y-121481904D01*
X114152023Y-121786666D01*
X114037738Y-121786666D01*
X113961547Y-121824761D01*
X113923452Y-121862857D01*
X113885357Y-121939047D01*
X113885357Y-122129523D01*
X113923452Y-122205714D01*
X113961547Y-122243809D01*
X114037738Y-122281904D01*
X114266309Y-122281904D01*
X114342500Y-122243809D01*
X114380595Y-122205714D01*
X110316309Y-101161904D02*
X110049642Y-101961904D01*
X109782976Y-101161904D01*
X109059166Y-101961904D02*
X109325833Y-101580952D01*
X109516309Y-101961904D02*
X109516309Y-101161904D01*
X109211547Y-101161904D01*
X109135357Y-101200000D01*
X109097261Y-101238095D01*
X109059166Y-101314285D01*
X109059166Y-101428571D01*
X109097261Y-101504761D01*
X109135357Y-101542857D01*
X109211547Y-101580952D01*
X109516309Y-101580952D01*
X108754404Y-101733333D02*
X108373452Y-101733333D01*
X108830595Y-101961904D02*
X108563928Y-101161904D01*
X108297261Y-101961904D01*
X108030595Y-101961904D02*
X108030595Y-101161904D01*
X107763928Y-101733333D01*
X107497261Y-101161904D01*
X107497261Y-101961904D01*
X107154404Y-101733333D02*
X106773452Y-101733333D01*
X107230595Y-101961904D02*
X106963928Y-101161904D01*
X106697261Y-101961904D01*
X106011547Y-101961904D02*
X106468690Y-101961904D01*
X106240119Y-101961904D02*
X106240119Y-101161904D01*
X106316309Y-101276190D01*
X106392500Y-101352380D01*
X106468690Y-101390476D01*
X105516309Y-101161904D02*
X105440119Y-101161904D01*
X105363928Y-101200000D01*
X105325833Y-101238095D01*
X105287738Y-101314285D01*
X105249642Y-101466666D01*
X105249642Y-101657142D01*
X105287738Y-101809523D01*
X105325833Y-101885714D01*
X105363928Y-101923809D01*
X105440119Y-101961904D01*
X105516309Y-101961904D01*
X105592500Y-101923809D01*
X105630595Y-101885714D01*
X105668690Y-101809523D01*
X105706785Y-101657142D01*
X105706785Y-101466666D01*
X105668690Y-101314285D01*
X105630595Y-101238095D01*
X105592500Y-101200000D01*
X105516309Y-101161904D01*
X110202023Y-109581904D02*
X110202023Y-108781904D01*
X109897261Y-108781904D01*
X109821071Y-108820000D01*
X109782976Y-108858095D01*
X109744880Y-108934285D01*
X109744880Y-109048571D01*
X109782976Y-109124761D01*
X109821071Y-109162857D01*
X109897261Y-109200952D01*
X110202023Y-109200952D01*
X109440119Y-109353333D02*
X109059166Y-109353333D01*
X109516309Y-109581904D02*
X109249642Y-108781904D01*
X108982976Y-109581904D01*
X108373452Y-109048571D02*
X108373452Y-109581904D01*
X108563928Y-108743809D02*
X108754404Y-109315238D01*
X108259166Y-109315238D01*
X116552023Y-128631904D02*
X116552023Y-127831904D01*
X116247261Y-127831904D01*
X116171071Y-127870000D01*
X116132976Y-127908095D01*
X116094880Y-127984285D01*
X116094880Y-128098571D01*
X116132976Y-128174761D01*
X116171071Y-128212857D01*
X116247261Y-128250952D01*
X116552023Y-128250952D01*
X115752023Y-128631904D02*
X115752023Y-127831904D01*
X115561547Y-127831904D01*
X115447261Y-127870000D01*
X115371071Y-127946190D01*
X115332976Y-128022380D01*
X115294880Y-128174761D01*
X115294880Y-128289047D01*
X115332976Y-128441428D01*
X115371071Y-128517619D01*
X115447261Y-128593809D01*
X115561547Y-128631904D01*
X115752023Y-128631904D01*
X114571071Y-127831904D02*
X114952023Y-127831904D01*
X114990119Y-128212857D01*
X114952023Y-128174761D01*
X114875833Y-128136666D01*
X114685357Y-128136666D01*
X114609166Y-128174761D01*
X114571071Y-128212857D01*
X114532976Y-128289047D01*
X114532976Y-128479523D01*
X114571071Y-128555714D01*
X114609166Y-128593809D01*
X114685357Y-128631904D01*
X114875833Y-128631904D01*
X114952023Y-128593809D01*
X114990119Y-128555714D01*
X110392500Y-93316000D02*
X110011547Y-93316000D01*
X110202023Y-94341904D02*
X110202023Y-93541904D01*
X110011547Y-93316000D02*
X109211547Y-93316000D01*
X109363928Y-94341904D02*
X109630595Y-93960952D01*
X109821071Y-94341904D02*
X109821071Y-93541904D01*
X109516309Y-93541904D01*
X109440119Y-93580000D01*
X109402023Y-93618095D01*
X109363928Y-93694285D01*
X109363928Y-93808571D01*
X109402023Y-93884761D01*
X109440119Y-93922857D01*
X109516309Y-93960952D01*
X109821071Y-93960952D01*
X109211547Y-93316000D02*
X108373452Y-93316000D01*
X108487738Y-94418095D02*
X108563928Y-94380000D01*
X108640119Y-94303809D01*
X108754404Y-94189523D01*
X108830595Y-94151428D01*
X108906785Y-94151428D01*
X108868690Y-94341904D02*
X108944880Y-94303809D01*
X109021071Y-94227619D01*
X109059166Y-94075238D01*
X109059166Y-93808571D01*
X109021071Y-93656190D01*
X108944880Y-93580000D01*
X108868690Y-93541904D01*
X108716309Y-93541904D01*
X108640119Y-93580000D01*
X108563928Y-93656190D01*
X108525833Y-93808571D01*
X108525833Y-94075238D01*
X108563928Y-94227619D01*
X108640119Y-94303809D01*
X108716309Y-94341904D01*
X108868690Y-94341904D01*
X116552023Y-84181904D02*
X116552023Y-83381904D01*
X116361547Y-83381904D01*
X116247261Y-83420000D01*
X116171071Y-83496190D01*
X116132976Y-83572380D01*
X116094880Y-83724761D01*
X116094880Y-83839047D01*
X116132976Y-83991428D01*
X116171071Y-84067619D01*
X116247261Y-84143809D01*
X116361547Y-84181904D01*
X116552023Y-84181904D01*
X115790119Y-83458095D02*
X115752023Y-83420000D01*
X115675833Y-83381904D01*
X115485357Y-83381904D01*
X115409166Y-83420000D01*
X115371071Y-83458095D01*
X115332976Y-83534285D01*
X115332976Y-83610476D01*
X115371071Y-83724761D01*
X115828214Y-84181904D01*
X115332976Y-84181904D01*
X110202023Y-117201904D02*
X110202023Y-116401904D01*
X109897261Y-116401904D01*
X109821071Y-116440000D01*
X109782976Y-116478095D01*
X109744880Y-116554285D01*
X109744880Y-116668571D01*
X109782976Y-116744761D01*
X109821071Y-116782857D01*
X109897261Y-116820952D01*
X110202023Y-116820952D01*
X109440119Y-116973333D02*
X109059166Y-116973333D01*
X109516309Y-117201904D02*
X109249642Y-116401904D01*
X108982976Y-117201904D01*
X108297261Y-117201904D02*
X108754404Y-117201904D01*
X108525833Y-117201904D02*
X108525833Y-116401904D01*
X108602023Y-116516190D01*
X108678214Y-116592380D01*
X108754404Y-116630476D01*
X110240119Y-78873333D02*
X109859166Y-78873333D01*
X110316309Y-79101904D02*
X110049642Y-78301904D01*
X109782976Y-79101904D01*
X109173452Y-78568571D02*
X109173452Y-79101904D01*
X109363928Y-78263809D02*
X109554404Y-78835238D01*
X109059166Y-78835238D01*
X116552023Y-112121904D02*
X116552023Y-111321904D01*
X116247261Y-111321904D01*
X116171071Y-111360000D01*
X116132976Y-111398095D01*
X116094880Y-111474285D01*
X116094880Y-111588571D01*
X116132976Y-111664761D01*
X116171071Y-111702857D01*
X116247261Y-111740952D01*
X116552023Y-111740952D01*
X115790119Y-111893333D02*
X115409166Y-111893333D01*
X115866309Y-112121904D02*
X115599642Y-111321904D01*
X115332976Y-112121904D01*
X115028214Y-112121904D02*
X114875833Y-112121904D01*
X114799642Y-112083809D01*
X114761547Y-112045714D01*
X114685357Y-111931428D01*
X114647261Y-111779047D01*
X114647261Y-111474285D01*
X114685357Y-111398095D01*
X114723452Y-111360000D01*
X114799642Y-111321904D01*
X114952023Y-111321904D01*
X115028214Y-111360000D01*
X115066309Y-111398095D01*
X115104404Y-111474285D01*
X115104404Y-111664761D01*
X115066309Y-111740952D01*
X115028214Y-111779047D01*
X114952023Y-111817142D01*
X114799642Y-111817142D01*
X114723452Y-111779047D01*
X114685357Y-111740952D01*
X114647261Y-111664761D01*
X116552023Y-119741904D02*
X116552023Y-118941904D01*
X116247261Y-118941904D01*
X116171071Y-118980000D01*
X116132976Y-119018095D01*
X116094880Y-119094285D01*
X116094880Y-119208571D01*
X116132976Y-119284761D01*
X116171071Y-119322857D01*
X116247261Y-119360952D01*
X116552023Y-119360952D01*
X115790119Y-119513333D02*
X115409166Y-119513333D01*
X115866309Y-119741904D02*
X115599642Y-118941904D01*
X115332976Y-119741904D01*
X114647261Y-119741904D02*
X115104404Y-119741904D01*
X114875833Y-119741904D02*
X114875833Y-118941904D01*
X114952023Y-119056190D01*
X115028214Y-119132380D01*
X115104404Y-119170476D01*
X114342500Y-119018095D02*
X114304404Y-118980000D01*
X114228214Y-118941904D01*
X114037738Y-118941904D01*
X113961547Y-118980000D01*
X113923452Y-119018095D01*
X113885357Y-119094285D01*
X113885357Y-119170476D01*
X113923452Y-119284761D01*
X114380595Y-119741904D01*
X113885357Y-119741904D01*
X110202023Y-114661904D02*
X110202023Y-113861904D01*
X109897261Y-113861904D01*
X109821071Y-113900000D01*
X109782976Y-113938095D01*
X109744880Y-114014285D01*
X109744880Y-114128571D01*
X109782976Y-114204761D01*
X109821071Y-114242857D01*
X109897261Y-114280952D01*
X110202023Y-114280952D01*
X109440119Y-114433333D02*
X109059166Y-114433333D01*
X109516309Y-114661904D02*
X109249642Y-113861904D01*
X108982976Y-114661904D01*
X108754404Y-113938095D02*
X108716309Y-113900000D01*
X108640119Y-113861904D01*
X108449642Y-113861904D01*
X108373452Y-113900000D01*
X108335357Y-113938095D01*
X108297261Y-114014285D01*
X108297261Y-114090476D01*
X108335357Y-114204761D01*
X108792500Y-114661904D01*
X108297261Y-114661904D01*
X116171071Y-57981904D02*
X116552023Y-57981904D01*
X116590119Y-58362857D01*
X116552023Y-58324761D01*
X116475833Y-58286666D01*
X116285357Y-58286666D01*
X116209166Y-58324761D01*
X116171071Y-58362857D01*
X116132976Y-58439047D01*
X116132976Y-58629523D01*
X116171071Y-58705714D01*
X116209166Y-58743809D01*
X116285357Y-58781904D01*
X116475833Y-58781904D01*
X116552023Y-58743809D01*
X116590119Y-58705714D01*
X115904404Y-57981904D02*
X115637738Y-58781904D01*
X115371071Y-57981904D01*
X110202023Y-119741904D02*
X110202023Y-118941904D01*
X109897261Y-118941904D01*
X109821071Y-118980000D01*
X109782976Y-119018095D01*
X109744880Y-119094285D01*
X109744880Y-119208571D01*
X109782976Y-119284761D01*
X109821071Y-119322857D01*
X109897261Y-119360952D01*
X110202023Y-119360952D01*
X109440119Y-119513333D02*
X109059166Y-119513333D01*
X109516309Y-119741904D02*
X109249642Y-118941904D01*
X108982976Y-119741904D01*
X108563928Y-118941904D02*
X108487738Y-118941904D01*
X108411547Y-118980000D01*
X108373452Y-119018095D01*
X108335357Y-119094285D01*
X108297261Y-119246666D01*
X108297261Y-119437142D01*
X108335357Y-119589523D01*
X108373452Y-119665714D01*
X108411547Y-119703809D01*
X108487738Y-119741904D01*
X108563928Y-119741904D01*
X108640119Y-119703809D01*
X108678214Y-119665714D01*
X108716309Y-119589523D01*
X108754404Y-119437142D01*
X108754404Y-119246666D01*
X108716309Y-119094285D01*
X108678214Y-119018095D01*
X108640119Y-118980000D01*
X108563928Y-118941904D01*
D11*
X122562857Y-134891428D02*
X122762857Y-134605714D01*
X122905714Y-134891428D02*
X122905714Y-134291428D01*
X122677142Y-134291428D01*
X122620000Y-134320000D01*
X122591428Y-134348571D01*
X122562857Y-134405714D01*
X122562857Y-134491428D01*
X122591428Y-134548571D01*
X122620000Y-134577142D01*
X122677142Y-134605714D01*
X122905714Y-134605714D01*
X122334285Y-134862857D02*
X122248571Y-134891428D01*
X122105714Y-134891428D01*
X122048571Y-134862857D01*
X122020000Y-134834285D01*
X121991428Y-134777142D01*
X121991428Y-134720000D01*
X122020000Y-134662857D01*
X122048571Y-134634285D01*
X122105714Y-134605714D01*
X122220000Y-134577142D01*
X122277142Y-134548571D01*
X122305714Y-134520000D01*
X122334285Y-134462857D01*
X122334285Y-134405714D01*
X122305714Y-134348571D01*
X122277142Y-134320000D01*
X122220000Y-134291428D01*
X122077142Y-134291428D01*
X121991428Y-134320000D01*
X121820000Y-134291428D02*
X121620000Y-134891428D01*
X121420000Y-134291428D01*
X121105714Y-134291428D02*
X121048571Y-134291428D01*
X120991428Y-134320000D01*
X120962857Y-134348571D01*
X120934285Y-134405714D01*
X120905714Y-134520000D01*
X120905714Y-134662857D01*
X120934285Y-134777142D01*
X120962857Y-134834285D01*
X120991428Y-134862857D01*
X121048571Y-134891428D01*
X121105714Y-134891428D01*
X121162857Y-134862857D01*
X121191428Y-134834285D01*
X121220000Y-134777142D01*
X121248571Y-134662857D01*
X121248571Y-134520000D01*
X121220000Y-134405714D01*
X121191428Y-134348571D01*
X121162857Y-134320000D01*
X121105714Y-134291428D01*
D10*
X110240119Y-71253333D02*
X109859166Y-71253333D01*
X110316309Y-71481904D02*
X110049642Y-70681904D01*
X109782976Y-71481904D01*
X109592500Y-70681904D02*
X109059166Y-70681904D01*
X109402023Y-71481904D01*
X110240119Y-73793333D02*
X109859166Y-73793333D01*
X110316309Y-74021904D02*
X110049642Y-73221904D01*
X109782976Y-74021904D01*
X109173452Y-73221904D02*
X109325833Y-73221904D01*
X109402023Y-73260000D01*
X109440119Y-73298095D01*
X109516309Y-73412380D01*
X109554404Y-73564761D01*
X109554404Y-73869523D01*
X109516309Y-73945714D01*
X109478214Y-73983809D01*
X109402023Y-74021904D01*
X109249642Y-74021904D01*
X109173452Y-73983809D01*
X109135357Y-73945714D01*
X109097261Y-73869523D01*
X109097261Y-73679047D01*
X109135357Y-73602857D01*
X109173452Y-73564761D01*
X109249642Y-73526666D01*
X109402023Y-73526666D01*
X109478214Y-73564761D01*
X109516309Y-73602857D01*
X109554404Y-73679047D01*
X110202023Y-127361904D02*
X110202023Y-126561904D01*
X109897261Y-126561904D01*
X109821071Y-126600000D01*
X109782976Y-126638095D01*
X109744880Y-126714285D01*
X109744880Y-126828571D01*
X109782976Y-126904761D01*
X109821071Y-126942857D01*
X109897261Y-126980952D01*
X110202023Y-126980952D01*
X109402023Y-127361904D02*
X109402023Y-126561904D01*
X109211547Y-126561904D01*
X109097261Y-126600000D01*
X109021071Y-126676190D01*
X108982976Y-126752380D01*
X108944880Y-126904761D01*
X108944880Y-127019047D01*
X108982976Y-127171428D01*
X109021071Y-127247619D01*
X109097261Y-127323809D01*
X109211547Y-127361904D01*
X109402023Y-127361904D01*
X108640119Y-126638095D02*
X108602023Y-126600000D01*
X108525833Y-126561904D01*
X108335357Y-126561904D01*
X108259166Y-126600000D01*
X108221071Y-126638095D01*
X108182976Y-126714285D01*
X108182976Y-126790476D01*
X108221071Y-126904761D01*
X108678214Y-127361904D01*
X108182976Y-127361904D01*
X116590119Y-68713333D02*
X116209166Y-68713333D01*
X116666309Y-68941904D02*
X116399642Y-68141904D01*
X116132976Y-68941904D01*
X115447261Y-68941904D02*
X115904404Y-68941904D01*
X115675833Y-68941904D02*
X115675833Y-68141904D01*
X115752023Y-68256190D01*
X115828214Y-68332380D01*
X115904404Y-68370476D01*
X114761547Y-68408571D02*
X114761547Y-68941904D01*
X114952023Y-68103809D02*
X115142500Y-68675238D01*
X114647261Y-68675238D01*
X135267619Y-57981904D02*
X134772380Y-57981904D01*
X135039047Y-58286666D01*
X134924761Y-58286666D01*
X134848571Y-58324761D01*
X134810476Y-58362857D01*
X134772380Y-58439047D01*
X134772380Y-58629523D01*
X134810476Y-58705714D01*
X134848571Y-58743809D01*
X134924761Y-58781904D01*
X135153333Y-58781904D01*
X135229523Y-58743809D01*
X135267619Y-58705714D01*
X134010476Y-58781904D02*
X134467619Y-58781904D01*
X134239047Y-58781904D02*
X134239047Y-57981904D01*
X134315238Y-58096190D01*
X134391428Y-58172380D01*
X134467619Y-58210476D01*
X110240119Y-86493333D02*
X109859166Y-86493333D01*
X110316309Y-86721904D02*
X110049642Y-85921904D01*
X109782976Y-86721904D01*
X109097261Y-86721904D02*
X109554404Y-86721904D01*
X109325833Y-86721904D02*
X109325833Y-85921904D01*
X109402023Y-86036190D01*
X109478214Y-86112380D01*
X109554404Y-86150476D01*
D11*
X127114285Y-141911428D02*
X127400000Y-141911428D01*
X127428571Y-142197142D01*
X127400000Y-142168571D01*
X127342857Y-142140000D01*
X127200000Y-142140000D01*
X127142857Y-142168571D01*
X127114285Y-142197142D01*
X127085714Y-142254285D01*
X127085714Y-142397142D01*
X127114285Y-142454285D01*
X127142857Y-142482857D01*
X127200000Y-142511428D01*
X127342857Y-142511428D01*
X127400000Y-142482857D01*
X127428571Y-142454285D01*
X126914285Y-141911428D02*
X126714285Y-142511428D01*
X126514285Y-141911428D01*
D10*
X110202023Y-112121904D02*
X110202023Y-111321904D01*
X109897261Y-111321904D01*
X109821071Y-111360000D01*
X109782976Y-111398095D01*
X109744880Y-111474285D01*
X109744880Y-111588571D01*
X109782976Y-111664761D01*
X109821071Y-111702857D01*
X109897261Y-111740952D01*
X110202023Y-111740952D01*
X109440119Y-111893333D02*
X109059166Y-111893333D01*
X109516309Y-112121904D02*
X109249642Y-111321904D01*
X108982976Y-112121904D01*
X108792500Y-111321904D02*
X108297261Y-111321904D01*
X108563928Y-111626666D01*
X108449642Y-111626666D01*
X108373452Y-111664761D01*
X108335357Y-111702857D01*
X108297261Y-111779047D01*
X108297261Y-111969523D01*
X108335357Y-112045714D01*
X108373452Y-112083809D01*
X108449642Y-112121904D01*
X108678214Y-112121904D01*
X108754404Y-112083809D01*
X108792500Y-112045714D01*
D11*
X125102857Y-142511428D02*
X125302857Y-142225714D01*
X125445714Y-142511428D02*
X125445714Y-141911428D01*
X125217142Y-141911428D01*
X125160000Y-141940000D01*
X125131428Y-141968571D01*
X125102857Y-142025714D01*
X125102857Y-142111428D01*
X125131428Y-142168571D01*
X125160000Y-142197142D01*
X125217142Y-142225714D01*
X125445714Y-142225714D01*
X124874285Y-142482857D02*
X124788571Y-142511428D01*
X124645714Y-142511428D01*
X124588571Y-142482857D01*
X124560000Y-142454285D01*
X124531428Y-142397142D01*
X124531428Y-142340000D01*
X124560000Y-142282857D01*
X124588571Y-142254285D01*
X124645714Y-142225714D01*
X124760000Y-142197142D01*
X124817142Y-142168571D01*
X124845714Y-142140000D01*
X124874285Y-142082857D01*
X124874285Y-142025714D01*
X124845714Y-141968571D01*
X124817142Y-141940000D01*
X124760000Y-141911428D01*
X124617142Y-141911428D01*
X124531428Y-141940000D01*
X124360000Y-141911428D02*
X124160000Y-142511428D01*
X123960000Y-141911428D01*
X123445714Y-142511428D02*
X123788571Y-142511428D01*
X123617142Y-142511428D02*
X123617142Y-141911428D01*
X123674285Y-141997142D01*
X123731428Y-142054285D01*
X123788571Y-142082857D01*
D10*
X116552023Y-117201904D02*
X116552023Y-116401904D01*
X116247261Y-116401904D01*
X116171071Y-116440000D01*
X116132976Y-116478095D01*
X116094880Y-116554285D01*
X116094880Y-116668571D01*
X116132976Y-116744761D01*
X116171071Y-116782857D01*
X116247261Y-116820952D01*
X116552023Y-116820952D01*
X115790119Y-116973333D02*
X115409166Y-116973333D01*
X115866309Y-117201904D02*
X115599642Y-116401904D01*
X115332976Y-117201904D01*
X114647261Y-117201904D02*
X115104404Y-117201904D01*
X114875833Y-117201904D02*
X114875833Y-116401904D01*
X114952023Y-116516190D01*
X115028214Y-116592380D01*
X115104404Y-116630476D01*
X113885357Y-117201904D02*
X114342500Y-117201904D01*
X114113928Y-117201904D02*
X114113928Y-116401904D01*
X114190119Y-116516190D01*
X114266309Y-116592380D01*
X114342500Y-116630476D01*
X110240119Y-81413333D02*
X109859166Y-81413333D01*
X110316309Y-81641904D02*
X110049642Y-80841904D01*
X109782976Y-81641904D01*
X109592500Y-80841904D02*
X109097261Y-80841904D01*
X109363928Y-81146666D01*
X109249642Y-81146666D01*
X109173452Y-81184761D01*
X109135357Y-81222857D01*
X109097261Y-81299047D01*
X109097261Y-81489523D01*
X109135357Y-81565714D01*
X109173452Y-81603809D01*
X109249642Y-81641904D01*
X109478214Y-81641904D01*
X109554404Y-81603809D01*
X109592500Y-81565714D01*
X116742500Y-103476000D02*
X115942500Y-103476000D01*
X116552023Y-104501904D02*
X116552023Y-103701904D01*
X116247261Y-103701904D01*
X116171071Y-103740000D01*
X116132976Y-103778095D01*
X116094880Y-103854285D01*
X116094880Y-103968571D01*
X116132976Y-104044761D01*
X116171071Y-104082857D01*
X116247261Y-104120952D01*
X116552023Y-104120952D01*
X115942500Y-103476000D02*
X115256785Y-103476000D01*
X115790119Y-104273333D02*
X115409166Y-104273333D01*
X115866309Y-104501904D02*
X115599642Y-103701904D01*
X115332976Y-104501904D01*
X115256785Y-103476000D02*
X114494880Y-103476000D01*
X114647261Y-104501904D02*
X115104404Y-104501904D01*
X114875833Y-104501904D02*
X114875833Y-103701904D01*
X114952023Y-103816190D01*
X115028214Y-103892380D01*
X115104404Y-103930476D01*
X114494880Y-103476000D02*
X113732976Y-103476000D01*
X114380595Y-103701904D02*
X113885357Y-103701904D01*
X114152023Y-104006666D01*
X114037738Y-104006666D01*
X113961547Y-104044761D01*
X113923452Y-104082857D01*
X113885357Y-104159047D01*
X113885357Y-104349523D01*
X113923452Y-104425714D01*
X113961547Y-104463809D01*
X114037738Y-104501904D01*
X114266309Y-104501904D01*
X114342500Y-104463809D01*
X114380595Y-104425714D01*
X116590119Y-63633333D02*
X116209166Y-63633333D01*
X116666309Y-63861904D02*
X116399642Y-63061904D01*
X116132976Y-63861904D01*
X115447261Y-63861904D02*
X115904404Y-63861904D01*
X115675833Y-63861904D02*
X115675833Y-63061904D01*
X115752023Y-63176190D01*
X115828214Y-63252380D01*
X115904404Y-63290476D01*
X115142500Y-63138095D02*
X115104404Y-63100000D01*
X115028214Y-63061904D01*
X114837738Y-63061904D01*
X114761547Y-63100000D01*
X114723452Y-63138095D01*
X114685357Y-63214285D01*
X114685357Y-63290476D01*
X114723452Y-63404761D01*
X115180595Y-63861904D01*
X114685357Y-63861904D01*
X116552023Y-86721904D02*
X116552023Y-85921904D01*
X116361547Y-85921904D01*
X116247261Y-85960000D01*
X116171071Y-86036190D01*
X116132976Y-86112380D01*
X116094880Y-86264761D01*
X116094880Y-86379047D01*
X116132976Y-86531428D01*
X116171071Y-86607619D01*
X116247261Y-86683809D01*
X116361547Y-86721904D01*
X116552023Y-86721904D01*
X115332976Y-86721904D02*
X115790119Y-86721904D01*
X115561547Y-86721904D02*
X115561547Y-85921904D01*
X115637738Y-86036190D01*
X115713928Y-86112380D01*
X115790119Y-86150476D01*
X116590119Y-66173333D02*
X116209166Y-66173333D01*
X116666309Y-66401904D02*
X116399642Y-65601904D01*
X116132976Y-66401904D01*
X115447261Y-66401904D02*
X115904404Y-66401904D01*
X115675833Y-66401904D02*
X115675833Y-65601904D01*
X115752023Y-65716190D01*
X115828214Y-65792380D01*
X115904404Y-65830476D01*
X115180595Y-65601904D02*
X114685357Y-65601904D01*
X114952023Y-65906666D01*
X114837738Y-65906666D01*
X114761547Y-65944761D01*
X114723452Y-65982857D01*
X114685357Y-66059047D01*
X114685357Y-66249523D01*
X114723452Y-66325714D01*
X114761547Y-66363809D01*
X114837738Y-66401904D01*
X115066309Y-66401904D01*
X115142500Y-66363809D01*
X115180595Y-66325714D01*
X116399642Y-60521904D02*
X116247261Y-60521904D01*
X116171071Y-60560000D01*
X116094880Y-60636190D01*
X116056785Y-60788571D01*
X116056785Y-61055238D01*
X116094880Y-61207619D01*
X116171071Y-61283809D01*
X116247261Y-61321904D01*
X116399642Y-61321904D01*
X116475833Y-61283809D01*
X116552023Y-61207619D01*
X116590119Y-61055238D01*
X116590119Y-60788571D01*
X116552023Y-60636190D01*
X116475833Y-60560000D01*
X116399642Y-60521904D01*
X115752023Y-60598095D02*
X115713928Y-60560000D01*
X115637738Y-60521904D01*
X115447261Y-60521904D01*
X115371071Y-60560000D01*
X115332976Y-60598095D01*
X115294880Y-60674285D01*
X115294880Y-60750476D01*
X115332976Y-60864761D01*
X115790119Y-61321904D01*
X115294880Y-61321904D01*
X109821071Y-129101904D02*
X110202023Y-129101904D01*
X110240119Y-129482857D01*
X110202023Y-129444761D01*
X110125833Y-129406666D01*
X109935357Y-129406666D01*
X109859166Y-129444761D01*
X109821071Y-129482857D01*
X109782976Y-129559047D01*
X109782976Y-129749523D01*
X109821071Y-129825714D01*
X109859166Y-129863809D01*
X109935357Y-129901904D01*
X110125833Y-129901904D01*
X110202023Y-129863809D01*
X110240119Y-129825714D01*
X109554404Y-129101904D02*
X109287738Y-129901904D01*
X109021071Y-129101904D01*
X110202023Y-104501904D02*
X110202023Y-103701904D01*
X109897261Y-103701904D01*
X109821071Y-103740000D01*
X109782976Y-103778095D01*
X109744880Y-103854285D01*
X109744880Y-103968571D01*
X109782976Y-104044761D01*
X109821071Y-104082857D01*
X109897261Y-104120952D01*
X110202023Y-104120952D01*
X109440119Y-104273333D02*
X109059166Y-104273333D01*
X109516309Y-104501904D02*
X109249642Y-103701904D01*
X108982976Y-104501904D01*
X108373452Y-103701904D02*
X108525833Y-103701904D01*
X108602023Y-103740000D01*
X108640119Y-103778095D01*
X108716309Y-103892380D01*
X108754404Y-104044761D01*
X108754404Y-104349523D01*
X108716309Y-104425714D01*
X108678214Y-104463809D01*
X108602023Y-104501904D01*
X108449642Y-104501904D01*
X108373452Y-104463809D01*
X108335357Y-104425714D01*
X108297261Y-104349523D01*
X108297261Y-104159047D01*
X108335357Y-104082857D01*
X108373452Y-104044761D01*
X108449642Y-104006666D01*
X108602023Y-104006666D01*
X108678214Y-104044761D01*
X108716309Y-104082857D01*
X108754404Y-104159047D01*
X116552023Y-89261904D02*
X116552023Y-88461904D01*
X116361547Y-88461904D01*
X116247261Y-88500000D01*
X116171071Y-88576190D01*
X116132976Y-88652380D01*
X116094880Y-88804761D01*
X116094880Y-88919047D01*
X116132976Y-89071428D01*
X116171071Y-89147619D01*
X116247261Y-89223809D01*
X116361547Y-89261904D01*
X116552023Y-89261904D01*
X115599642Y-88461904D02*
X115523452Y-88461904D01*
X115447261Y-88500000D01*
X115409166Y-88538095D01*
X115371071Y-88614285D01*
X115332976Y-88766666D01*
X115332976Y-88957142D01*
X115371071Y-89109523D01*
X115409166Y-89185714D01*
X115447261Y-89223809D01*
X115523452Y-89261904D01*
X115599642Y-89261904D01*
X115675833Y-89223809D01*
X115713928Y-89185714D01*
X115752023Y-89109523D01*
X115790119Y-88957142D01*
X115790119Y-88766666D01*
X115752023Y-88614285D01*
X115713928Y-88538095D01*
X115675833Y-88500000D01*
X115599642Y-88461904D01*
X110202023Y-128631904D02*
X110202023Y-127831904D01*
X109897261Y-127831904D01*
X109821071Y-127870000D01*
X109782976Y-127908095D01*
X109744880Y-127984285D01*
X109744880Y-128098571D01*
X109782976Y-128174761D01*
X109821071Y-128212857D01*
X109897261Y-128250952D01*
X110202023Y-128250952D01*
X109402023Y-128631904D02*
X109402023Y-127831904D01*
X109211547Y-127831904D01*
X109097261Y-127870000D01*
X109021071Y-127946190D01*
X108982976Y-128022380D01*
X108944880Y-128174761D01*
X108944880Y-128289047D01*
X108982976Y-128441428D01*
X109021071Y-128517619D01*
X109097261Y-128593809D01*
X109211547Y-128631904D01*
X109402023Y-128631904D01*
X108678214Y-127831904D02*
X108182976Y-127831904D01*
X108449642Y-128136666D01*
X108335357Y-128136666D01*
X108259166Y-128174761D01*
X108221071Y-128212857D01*
X108182976Y-128289047D01*
X108182976Y-128479523D01*
X108221071Y-128555714D01*
X108259166Y-128593809D01*
X108335357Y-128631904D01*
X108563928Y-128631904D01*
X108640119Y-128593809D01*
X108678214Y-128555714D01*
X116552023Y-129901904D02*
X116552023Y-129101904D01*
X116247261Y-129101904D01*
X116171071Y-129140000D01*
X116132976Y-129178095D01*
X116094880Y-129254285D01*
X116094880Y-129368571D01*
X116132976Y-129444761D01*
X116171071Y-129482857D01*
X116247261Y-129520952D01*
X116552023Y-129520952D01*
X115752023Y-129901904D02*
X115752023Y-129101904D01*
X115561547Y-129101904D01*
X115447261Y-129140000D01*
X115371071Y-129216190D01*
X115332976Y-129292380D01*
X115294880Y-129444761D01*
X115294880Y-129559047D01*
X115332976Y-129711428D01*
X115371071Y-129787619D01*
X115447261Y-129863809D01*
X115561547Y-129901904D01*
X115752023Y-129901904D01*
X114609166Y-129368571D02*
X114609166Y-129901904D01*
X114799642Y-129063809D02*
X114990119Y-129635238D01*
X114494880Y-129635238D01*
X116590119Y-94303809D02*
X116475833Y-94341904D01*
X116285357Y-94341904D01*
X116209166Y-94303809D01*
X116171071Y-94265714D01*
X116132976Y-94189523D01*
X116132976Y-94113333D01*
X116171071Y-94037142D01*
X116209166Y-93999047D01*
X116285357Y-93960952D01*
X116437738Y-93922857D01*
X116513928Y-93884761D01*
X116552023Y-93846666D01*
X116590119Y-93770476D01*
X116590119Y-93694285D01*
X116552023Y-93618095D01*
X116513928Y-93580000D01*
X116437738Y-93541904D01*
X116247261Y-93541904D01*
X116132976Y-93580000D01*
X115637738Y-93541904D02*
X115485357Y-93541904D01*
X115409166Y-93580000D01*
X115332976Y-93656190D01*
X115294880Y-93808571D01*
X115294880Y-94075238D01*
X115332976Y-94227619D01*
X115409166Y-94303809D01*
X115485357Y-94341904D01*
X115637738Y-94341904D01*
X115713928Y-94303809D01*
X115790119Y-94227619D01*
X115828214Y-94075238D01*
X115828214Y-93808571D01*
X115790119Y-93656190D01*
X115713928Y-93580000D01*
X115637738Y-93541904D01*
X114952023Y-93541904D02*
X114952023Y-94189523D01*
X114913928Y-94265714D01*
X114875833Y-94303809D01*
X114799642Y-94341904D01*
X114647261Y-94341904D01*
X114571071Y-94303809D01*
X114532976Y-94265714D01*
X114494880Y-94189523D01*
X114494880Y-93541904D01*
X114113928Y-94341904D02*
X114113928Y-93541904D01*
X113656785Y-94341904D01*
X113656785Y-93541904D01*
X113275833Y-94341904D02*
X113275833Y-93541904D01*
X113085357Y-93541904D01*
X112971071Y-93580000D01*
X112894880Y-93656190D01*
X112856785Y-93732380D01*
X112818690Y-93884761D01*
X112818690Y-93999047D01*
X112856785Y-94151428D01*
X112894880Y-94227619D01*
X112971071Y-94303809D01*
X113085357Y-94341904D01*
X113275833Y-94341904D01*
X112666309Y-94418095D02*
X112056785Y-94418095D01*
X111866309Y-94341904D02*
X111866309Y-93541904D01*
X110392500Y-98396000D02*
X109592500Y-98396000D01*
X109744880Y-99421904D02*
X110011547Y-99040952D01*
X110202023Y-99421904D02*
X110202023Y-98621904D01*
X109897261Y-98621904D01*
X109821071Y-98660000D01*
X109782976Y-98698095D01*
X109744880Y-98774285D01*
X109744880Y-98888571D01*
X109782976Y-98964761D01*
X109821071Y-99002857D01*
X109897261Y-99040952D01*
X110202023Y-99040952D01*
X109592500Y-98396000D02*
X108792500Y-98396000D01*
X109402023Y-99421904D02*
X109402023Y-98621904D01*
X109211547Y-98621904D01*
X109097261Y-98660000D01*
X109021071Y-98736190D01*
X108982976Y-98812380D01*
X108944880Y-98964761D01*
X108944880Y-99079047D01*
X108982976Y-99231428D01*
X109021071Y-99307619D01*
X109097261Y-99383809D01*
X109211547Y-99421904D01*
X109402023Y-99421904D01*
X110240119Y-68713333D02*
X109859166Y-68713333D01*
X110316309Y-68941904D02*
X110049642Y-68141904D01*
X109782976Y-68941904D01*
X109402023Y-68484761D02*
X109478214Y-68446666D01*
X109516309Y-68408571D01*
X109554404Y-68332380D01*
X109554404Y-68294285D01*
X109516309Y-68218095D01*
X109478214Y-68180000D01*
X109402023Y-68141904D01*
X109249642Y-68141904D01*
X109173452Y-68180000D01*
X109135357Y-68218095D01*
X109097261Y-68294285D01*
X109097261Y-68332380D01*
X109135357Y-68408571D01*
X109173452Y-68446666D01*
X109249642Y-68484761D01*
X109402023Y-68484761D01*
X109478214Y-68522857D01*
X109516309Y-68560952D01*
X109554404Y-68637142D01*
X109554404Y-68789523D01*
X109516309Y-68865714D01*
X109478214Y-68903809D01*
X109402023Y-68941904D01*
X109249642Y-68941904D01*
X109173452Y-68903809D01*
X109135357Y-68865714D01*
X109097261Y-68789523D01*
X109097261Y-68637142D01*
X109135357Y-68560952D01*
X109173452Y-68522857D01*
X109249642Y-68484761D01*
X124231428Y-58781904D02*
X124688571Y-58781904D01*
X124460000Y-58781904D02*
X124460000Y-57981904D01*
X124536190Y-58096190D01*
X124612380Y-58172380D01*
X124688571Y-58210476D01*
X110240119Y-66173333D02*
X109859166Y-66173333D01*
X110316309Y-66401904D02*
X110049642Y-65601904D01*
X109782976Y-66401904D01*
X109478214Y-66401904D02*
X109325833Y-66401904D01*
X109249642Y-66363809D01*
X109211547Y-66325714D01*
X109135357Y-66211428D01*
X109097261Y-66059047D01*
X109097261Y-65754285D01*
X109135357Y-65678095D01*
X109173452Y-65640000D01*
X109249642Y-65601904D01*
X109402023Y-65601904D01*
X109478214Y-65640000D01*
X109516309Y-65678095D01*
X109554404Y-65754285D01*
X109554404Y-65944761D01*
X109516309Y-66020952D01*
X109478214Y-66059047D01*
X109402023Y-66097142D01*
X109249642Y-66097142D01*
X109173452Y-66059047D01*
X109135357Y-66020952D01*
X109097261Y-65944761D01*
X116552023Y-107041904D02*
X116552023Y-106241904D01*
X116247261Y-106241904D01*
X116171071Y-106280000D01*
X116132976Y-106318095D01*
X116094880Y-106394285D01*
X116094880Y-106508571D01*
X116132976Y-106584761D01*
X116171071Y-106622857D01*
X116247261Y-106660952D01*
X116552023Y-106660952D01*
X115790119Y-106813333D02*
X115409166Y-106813333D01*
X115866309Y-107041904D02*
X115599642Y-106241904D01*
X115332976Y-107041904D01*
X115142500Y-106241904D02*
X114609166Y-106241904D01*
X114952023Y-107041904D01*
D12*
X81879523Y-45877619D02*
X81879523Y-44777619D01*
X81408095Y-45877619D02*
X81408095Y-45301428D01*
X81460476Y-45196666D01*
X81565238Y-45144285D01*
X81722380Y-45144285D01*
X81827142Y-45196666D01*
X81879523Y-45249047D01*
X81041428Y-45144285D02*
X80622380Y-45144285D01*
X80884285Y-44777619D02*
X80884285Y-45720476D01*
X80831904Y-45825238D01*
X80727142Y-45877619D01*
X80622380Y-45877619D01*
X80412857Y-45144285D02*
X79993809Y-45144285D01*
X80255714Y-44777619D02*
X80255714Y-45720476D01*
X80203333Y-45825238D01*
X80098571Y-45877619D01*
X79993809Y-45877619D01*
X79627142Y-45144285D02*
X79627142Y-46244285D01*
X79627142Y-45196666D02*
X79522380Y-45144285D01*
X79312857Y-45144285D01*
X79208095Y-45196666D01*
X79155714Y-45249047D01*
X79103333Y-45353809D01*
X79103333Y-45668095D01*
X79155714Y-45772857D01*
X79208095Y-45825238D01*
X79312857Y-45877619D01*
X79522380Y-45877619D01*
X79627142Y-45825238D01*
X78684285Y-45825238D02*
X78579523Y-45877619D01*
X78370000Y-45877619D01*
X78265238Y-45825238D01*
X78212857Y-45720476D01*
X78212857Y-45668095D01*
X78265238Y-45563333D01*
X78370000Y-45510952D01*
X78527142Y-45510952D01*
X78631904Y-45458571D01*
X78684285Y-45353809D01*
X78684285Y-45301428D01*
X78631904Y-45196666D01*
X78527142Y-45144285D01*
X78370000Y-45144285D01*
X78265238Y-45196666D01*
X77741428Y-45772857D02*
X77689047Y-45825238D01*
X77741428Y-45877619D01*
X77793809Y-45825238D01*
X77741428Y-45772857D01*
X77741428Y-45877619D01*
X77741428Y-45196666D02*
X77689047Y-45249047D01*
X77741428Y-45301428D01*
X77793809Y-45249047D01*
X77741428Y-45196666D01*
X77741428Y-45301428D01*
X76431904Y-44725238D02*
X77374761Y-46139523D01*
X75279523Y-44725238D02*
X76222380Y-46139523D01*
X74441428Y-45144285D02*
X74441428Y-46034761D01*
X74493809Y-46139523D01*
X74546190Y-46191904D01*
X74650952Y-46244285D01*
X74808095Y-46244285D01*
X74912857Y-46191904D01*
X74441428Y-45825238D02*
X74546190Y-45877619D01*
X74755714Y-45877619D01*
X74860476Y-45825238D01*
X74912857Y-45772857D01*
X74965238Y-45668095D01*
X74965238Y-45353809D01*
X74912857Y-45249047D01*
X74860476Y-45196666D01*
X74755714Y-45144285D01*
X74546190Y-45144285D01*
X74441428Y-45196666D01*
X73917619Y-45877619D02*
X73917619Y-45144285D01*
X73917619Y-44777619D02*
X73970000Y-44830000D01*
X73917619Y-44882380D01*
X73865238Y-44830000D01*
X73917619Y-44777619D01*
X73917619Y-44882380D01*
X73550952Y-45144285D02*
X73131904Y-45144285D01*
X73393809Y-44777619D02*
X73393809Y-45720476D01*
X73341428Y-45825238D01*
X73236666Y-45877619D01*
X73131904Y-45877619D01*
X72765238Y-45877619D02*
X72765238Y-44777619D01*
X72293809Y-45877619D02*
X72293809Y-45301428D01*
X72346190Y-45196666D01*
X72450952Y-45144285D01*
X72608095Y-45144285D01*
X72712857Y-45196666D01*
X72765238Y-45249047D01*
X71298571Y-45144285D02*
X71298571Y-45877619D01*
X71770000Y-45144285D02*
X71770000Y-45720476D01*
X71717619Y-45825238D01*
X71612857Y-45877619D01*
X71455714Y-45877619D01*
X71350952Y-45825238D01*
X71298571Y-45772857D01*
X70774761Y-45877619D02*
X70774761Y-44777619D01*
X70774761Y-45196666D02*
X70670000Y-45144285D01*
X70460476Y-45144285D01*
X70355714Y-45196666D01*
X70303333Y-45249047D01*
X70250952Y-45353809D01*
X70250952Y-45668095D01*
X70303333Y-45772857D01*
X70355714Y-45825238D01*
X70460476Y-45877619D01*
X70670000Y-45877619D01*
X70774761Y-45825238D01*
X69779523Y-45772857D02*
X69727142Y-45825238D01*
X69779523Y-45877619D01*
X69831904Y-45825238D01*
X69779523Y-45772857D01*
X69779523Y-45877619D01*
X68784285Y-45825238D02*
X68889047Y-45877619D01*
X69098571Y-45877619D01*
X69203333Y-45825238D01*
X69255714Y-45772857D01*
X69308095Y-45668095D01*
X69308095Y-45353809D01*
X69255714Y-45249047D01*
X69203333Y-45196666D01*
X69098571Y-45144285D01*
X68889047Y-45144285D01*
X68784285Y-45196666D01*
X68155714Y-45877619D02*
X68260476Y-45825238D01*
X68312857Y-45772857D01*
X68365238Y-45668095D01*
X68365238Y-45353809D01*
X68312857Y-45249047D01*
X68260476Y-45196666D01*
X68155714Y-45144285D01*
X67998571Y-45144285D01*
X67893809Y-45196666D01*
X67841428Y-45249047D01*
X67789047Y-45353809D01*
X67789047Y-45668095D01*
X67841428Y-45772857D01*
X67893809Y-45825238D01*
X67998571Y-45877619D01*
X68155714Y-45877619D01*
X67317619Y-45877619D02*
X67317619Y-45144285D01*
X67317619Y-45249047D02*
X67265238Y-45196666D01*
X67160476Y-45144285D01*
X67003333Y-45144285D01*
X66898571Y-45196666D01*
X66846190Y-45301428D01*
X66846190Y-45877619D01*
X66846190Y-45301428D02*
X66793809Y-45196666D01*
X66689047Y-45144285D01*
X66531904Y-45144285D01*
X66427142Y-45196666D01*
X66374761Y-45301428D01*
X66374761Y-45877619D01*
X65065238Y-44725238D02*
X66008095Y-46139523D01*
X64750952Y-45825238D02*
X64646190Y-45877619D01*
X64436666Y-45877619D01*
X64331904Y-45825238D01*
X64279523Y-45720476D01*
X64279523Y-45668095D01*
X64331904Y-45563333D01*
X64436666Y-45510952D01*
X64593809Y-45510952D01*
X64698571Y-45458571D01*
X64750952Y-45353809D01*
X64750952Y-45301428D01*
X64698571Y-45196666D01*
X64593809Y-45144285D01*
X64436666Y-45144285D01*
X64331904Y-45196666D01*
X63808095Y-45877619D02*
X63808095Y-44777619D01*
X63336666Y-45877619D02*
X63336666Y-45301428D01*
X63389047Y-45196666D01*
X63493809Y-45144285D01*
X63650952Y-45144285D01*
X63755714Y-45196666D01*
X63808095Y-45249047D01*
X62812857Y-45877619D02*
X62812857Y-45144285D01*
X62812857Y-44777619D02*
X62865238Y-44830000D01*
X62812857Y-44882380D01*
X62760476Y-44830000D01*
X62812857Y-44777619D01*
X62812857Y-44882380D01*
X62289047Y-45144285D02*
X62289047Y-45877619D01*
X62289047Y-45249047D02*
X62236666Y-45196666D01*
X62131904Y-45144285D01*
X61974761Y-45144285D01*
X61870000Y-45196666D01*
X61817619Y-45301428D01*
X61817619Y-45877619D01*
X61136666Y-45877619D02*
X61241428Y-45825238D01*
X61293809Y-45772857D01*
X61346190Y-45668095D01*
X61346190Y-45353809D01*
X61293809Y-45249047D01*
X61241428Y-45196666D01*
X61136666Y-45144285D01*
X60979523Y-45144285D01*
X60874761Y-45196666D01*
X60822380Y-45249047D01*
X60770000Y-45353809D01*
X60770000Y-45668095D01*
X60822380Y-45772857D01*
X60874761Y-45825238D01*
X60979523Y-45877619D01*
X61136666Y-45877619D01*
X60298571Y-45458571D02*
X59460476Y-45458571D01*
X58936666Y-45877619D02*
X58936666Y-44777619D01*
X58465238Y-45877619D02*
X58465238Y-45301428D01*
X58517619Y-45196666D01*
X58622380Y-45144285D01*
X58779523Y-45144285D01*
X58884285Y-45196666D01*
X58936666Y-45249047D01*
X57941428Y-45877619D02*
X57941428Y-45144285D01*
X57941428Y-44777619D02*
X57993809Y-44830000D01*
X57941428Y-44882380D01*
X57889047Y-44830000D01*
X57941428Y-44777619D01*
X57941428Y-44882380D01*
X57417619Y-45144285D02*
X57417619Y-45877619D01*
X57417619Y-45249047D02*
X57365238Y-45196666D01*
X57260476Y-45144285D01*
X57103333Y-45144285D01*
X56998571Y-45196666D01*
X56946190Y-45301428D01*
X56946190Y-45877619D01*
X55950952Y-45877619D02*
X55950952Y-45301428D01*
X56003333Y-45196666D01*
X56108095Y-45144285D01*
X56317619Y-45144285D01*
X56422380Y-45196666D01*
X55950952Y-45825238D02*
X56055714Y-45877619D01*
X56317619Y-45877619D01*
X56422380Y-45825238D01*
X56474761Y-45720476D01*
X56474761Y-45615714D01*
X56422380Y-45510952D01*
X56317619Y-45458571D01*
X56055714Y-45458571D01*
X55950952Y-45406190D01*
X54955714Y-45877619D02*
X54955714Y-44777619D01*
X54955714Y-45825238D02*
X55060476Y-45877619D01*
X55270000Y-45877619D01*
X55374761Y-45825238D01*
X55427142Y-45772857D01*
X55479523Y-45668095D01*
X55479523Y-45353809D01*
X55427142Y-45249047D01*
X55374761Y-45196666D01*
X55270000Y-45144285D01*
X55060476Y-45144285D01*
X54955714Y-45196666D01*
X53960476Y-45144285D02*
X53960476Y-45877619D01*
X54431904Y-45144285D02*
X54431904Y-45720476D01*
X54379523Y-45825238D01*
X54274761Y-45877619D01*
X54117619Y-45877619D01*
X54012857Y-45825238D01*
X53960476Y-45772857D01*
X53436666Y-45877619D02*
X53436666Y-44777619D01*
X53331904Y-45458571D02*
X53017619Y-45877619D01*
X53017619Y-45144285D02*
X53436666Y-45563333D01*
X52546190Y-45877619D02*
X52546190Y-45144285D01*
X52546190Y-44777619D02*
X52598571Y-44830000D01*
X52546190Y-44882380D01*
X52493809Y-44830000D01*
X52546190Y-44777619D01*
X52546190Y-44882380D01*
X51236666Y-44725238D02*
X52179523Y-46139523D01*
X50398571Y-45825238D02*
X50503333Y-45877619D01*
X50712857Y-45877619D01*
X50817619Y-45825238D01*
X50870000Y-45772857D01*
X50922380Y-45668095D01*
X50922380Y-45353809D01*
X50870000Y-45249047D01*
X50817619Y-45196666D01*
X50712857Y-45144285D01*
X50503333Y-45144285D01*
X50398571Y-45196666D01*
X49927142Y-45877619D02*
X49927142Y-44777619D01*
X49455714Y-45877619D02*
X49455714Y-45301428D01*
X49508095Y-45196666D01*
X49612857Y-45144285D01*
X49770000Y-45144285D01*
X49874761Y-45196666D01*
X49927142Y-45249047D01*
X48931904Y-45877619D02*
X48931904Y-45144285D01*
X48931904Y-44777619D02*
X48984285Y-44830000D01*
X48931904Y-44882380D01*
X48879523Y-44830000D01*
X48931904Y-44777619D01*
X48931904Y-44882380D01*
X48460476Y-45825238D02*
X48355714Y-45877619D01*
X48146190Y-45877619D01*
X48041428Y-45825238D01*
X47989047Y-45720476D01*
X47989047Y-45668095D01*
X48041428Y-45563333D01*
X48146190Y-45510952D01*
X48303333Y-45510952D01*
X48408095Y-45458571D01*
X48460476Y-45353809D01*
X48460476Y-45301428D01*
X48408095Y-45196666D01*
X48303333Y-45144285D01*
X48146190Y-45144285D01*
X48041428Y-45196666D01*
X47098571Y-45825238D02*
X47203333Y-45877619D01*
X47412857Y-45877619D01*
X47517619Y-45825238D01*
X47570000Y-45720476D01*
X47570000Y-45301428D01*
X47517619Y-45196666D01*
X47412857Y-45144285D01*
X47203333Y-45144285D01*
X47098571Y-45196666D01*
X47046190Y-45301428D01*
X47046190Y-45406190D01*
X47570000Y-45510952D01*
X46417619Y-45877619D02*
X46522380Y-45825238D01*
X46574761Y-45720476D01*
X46574761Y-44777619D01*
X45998571Y-45458571D02*
X45160476Y-45458571D01*
X44636666Y-45144285D02*
X44636666Y-45877619D01*
X44636666Y-45249047D02*
X44584285Y-45196666D01*
X44479523Y-45144285D01*
X44322380Y-45144285D01*
X44217619Y-45196666D01*
X44165238Y-45301428D01*
X44165238Y-45877619D01*
X43222380Y-45825238D02*
X43327142Y-45877619D01*
X43536666Y-45877619D01*
X43641428Y-45825238D01*
X43693809Y-45720476D01*
X43693809Y-45301428D01*
X43641428Y-45196666D01*
X43536666Y-45144285D01*
X43327142Y-45144285D01*
X43222380Y-45196666D01*
X43170000Y-45301428D01*
X43170000Y-45406190D01*
X43693809Y-45510952D01*
X42750952Y-45825238D02*
X42646190Y-45877619D01*
X42436666Y-45877619D01*
X42331904Y-45825238D01*
X42279523Y-45720476D01*
X42279523Y-45668095D01*
X42331904Y-45563333D01*
X42436666Y-45510952D01*
X42593809Y-45510952D01*
X42698571Y-45458571D01*
X42750952Y-45353809D01*
X42750952Y-45301428D01*
X42698571Y-45196666D01*
X42593809Y-45144285D01*
X42436666Y-45144285D01*
X42331904Y-45196666D01*
D10*
X110202023Y-124821904D02*
X110202023Y-124021904D01*
X109897261Y-124021904D01*
X109821071Y-124060000D01*
X109782976Y-124098095D01*
X109744880Y-124174285D01*
X109744880Y-124288571D01*
X109782976Y-124364761D01*
X109821071Y-124402857D01*
X109897261Y-124440952D01*
X110202023Y-124440952D01*
X109402023Y-124821904D02*
X109402023Y-124021904D01*
X109211547Y-124021904D01*
X109097261Y-124060000D01*
X109021071Y-124136190D01*
X108982976Y-124212380D01*
X108944880Y-124364761D01*
X108944880Y-124479047D01*
X108982976Y-124631428D01*
X109021071Y-124707619D01*
X109097261Y-124783809D01*
X109211547Y-124821904D01*
X109402023Y-124821904D01*
X108182976Y-124821904D02*
X108640119Y-124821904D01*
X108411547Y-124821904D02*
X108411547Y-124021904D01*
X108487738Y-124136190D01*
X108563928Y-124212380D01*
X108640119Y-124250476D01*
X116552023Y-74021904D02*
X116552023Y-73221904D01*
X116361547Y-73221904D01*
X116247261Y-73260000D01*
X116171071Y-73336190D01*
X116132976Y-73412380D01*
X116094880Y-73564761D01*
X116094880Y-73679047D01*
X116132976Y-73831428D01*
X116171071Y-73907619D01*
X116247261Y-73983809D01*
X116361547Y-74021904D01*
X116552023Y-74021904D01*
X115409166Y-73221904D02*
X115561547Y-73221904D01*
X115637738Y-73260000D01*
X115675833Y-73298095D01*
X115752023Y-73412380D01*
X115790119Y-73564761D01*
X115790119Y-73869523D01*
X115752023Y-73945714D01*
X115713928Y-73983809D01*
X115637738Y-74021904D01*
X115485357Y-74021904D01*
X115409166Y-73983809D01*
X115371071Y-73945714D01*
X115332976Y-73869523D01*
X115332976Y-73679047D01*
X115371071Y-73602857D01*
X115409166Y-73564761D01*
X115485357Y-73526666D01*
X115637738Y-73526666D01*
X115713928Y-73564761D01*
X115752023Y-73602857D01*
X115790119Y-73679047D01*
X109782976Y-96120000D02*
X109859166Y-96081904D01*
X109973452Y-96081904D01*
X110087738Y-96120000D01*
X110163928Y-96196190D01*
X110202023Y-96272380D01*
X110240119Y-96424761D01*
X110240119Y-96539047D01*
X110202023Y-96691428D01*
X110163928Y-96767619D01*
X110087738Y-96843809D01*
X109973452Y-96881904D01*
X109897261Y-96881904D01*
X109782976Y-96843809D01*
X109744880Y-96805714D01*
X109744880Y-96539047D01*
X109897261Y-96539047D01*
X109402023Y-96881904D02*
X109402023Y-96081904D01*
X108944880Y-96881904D01*
X108944880Y-96081904D01*
X108563928Y-96881904D02*
X108563928Y-96081904D01*
X108373452Y-96081904D01*
X108259166Y-96120000D01*
X108182976Y-96196190D01*
X108144880Y-96272380D01*
X108106785Y-96424761D01*
X108106785Y-96539047D01*
X108144880Y-96691428D01*
X108182976Y-96767619D01*
X108259166Y-96843809D01*
X108373452Y-96881904D01*
X108563928Y-96881904D01*
X109744880Y-91801904D02*
X110011547Y-91420952D01*
X110202023Y-91801904D02*
X110202023Y-91001904D01*
X109897261Y-91001904D01*
X109821071Y-91040000D01*
X109782976Y-91078095D01*
X109744880Y-91154285D01*
X109744880Y-91268571D01*
X109782976Y-91344761D01*
X109821071Y-91382857D01*
X109897261Y-91420952D01*
X110202023Y-91420952D01*
X108830595Y-90963809D02*
X109516309Y-91992380D01*
X108754404Y-90776000D02*
X107840119Y-90776000D01*
X108640119Y-91001904D02*
X108449642Y-91801904D01*
X108297261Y-91230476D01*
X108144880Y-91801904D01*
X107954404Y-91001904D01*
X134848571Y-131641904D02*
X135000952Y-131641904D01*
X135077142Y-131680000D01*
X135115238Y-131718095D01*
X135191428Y-131832380D01*
X135229523Y-131984761D01*
X135229523Y-132289523D01*
X135191428Y-132365714D01*
X135153333Y-132403809D01*
X135077142Y-132441904D01*
X134924761Y-132441904D01*
X134848571Y-132403809D01*
X134810476Y-132365714D01*
X134772380Y-132289523D01*
X134772380Y-132099047D01*
X134810476Y-132022857D01*
X134848571Y-131984761D01*
X134924761Y-131946666D01*
X135077142Y-131946666D01*
X135153333Y-131984761D01*
X135191428Y-132022857D01*
X135229523Y-132099047D01*
X134277142Y-131641904D02*
X134200952Y-131641904D01*
X134124761Y-131680000D01*
X134086666Y-131718095D01*
X134048571Y-131794285D01*
X134010476Y-131946666D01*
X134010476Y-132137142D01*
X134048571Y-132289523D01*
X134086666Y-132365714D01*
X134124761Y-132403809D01*
X134200952Y-132441904D01*
X134277142Y-132441904D01*
X134353333Y-132403809D01*
X134391428Y-132365714D01*
X134429523Y-132289523D01*
X134467619Y-132137142D01*
X134467619Y-131946666D01*
X134429523Y-131794285D01*
X134391428Y-131718095D01*
X134353333Y-131680000D01*
X134277142Y-131641904D01*
X116742500Y-100936000D02*
X116056785Y-100936000D01*
X116666309Y-101161904D02*
X116399642Y-101961904D01*
X116132976Y-101161904D01*
X116056785Y-100936000D02*
X115256785Y-100936000D01*
X115409166Y-101961904D02*
X115675833Y-101580952D01*
X115866309Y-101961904D02*
X115866309Y-101161904D01*
X115561547Y-101161904D01*
X115485357Y-101200000D01*
X115447261Y-101238095D01*
X115409166Y-101314285D01*
X115409166Y-101428571D01*
X115447261Y-101504761D01*
X115485357Y-101542857D01*
X115561547Y-101580952D01*
X115866309Y-101580952D01*
X115256785Y-100936000D02*
X114571071Y-100936000D01*
X115104404Y-101733333D02*
X114723452Y-101733333D01*
X115180595Y-101961904D02*
X114913928Y-101161904D01*
X114647261Y-101961904D01*
X114571071Y-100936000D02*
X113656785Y-100936000D01*
X114380595Y-101961904D02*
X114380595Y-101161904D01*
X114113928Y-101733333D01*
X113847261Y-101161904D01*
X113847261Y-101961904D01*
X113656785Y-100936000D02*
X112856785Y-100936000D01*
X113009166Y-101885714D02*
X113047261Y-101923809D01*
X113161547Y-101961904D01*
X113237738Y-101961904D01*
X113352023Y-101923809D01*
X113428214Y-101847619D01*
X113466309Y-101771428D01*
X113504404Y-101619047D01*
X113504404Y-101504761D01*
X113466309Y-101352380D01*
X113428214Y-101276190D01*
X113352023Y-101200000D01*
X113237738Y-101161904D01*
X113161547Y-101161904D01*
X113047261Y-101200000D01*
X113009166Y-101238095D01*
X112856785Y-100936000D02*
X112094880Y-100936000D01*
X112704404Y-101923809D02*
X112590119Y-101961904D01*
X112399642Y-101961904D01*
X112323452Y-101923809D01*
X112285357Y-101885714D01*
X112247261Y-101809523D01*
X112247261Y-101733333D01*
X112285357Y-101657142D01*
X112323452Y-101619047D01*
X112399642Y-101580952D01*
X112552023Y-101542857D01*
X112628214Y-101504761D01*
X112666309Y-101466666D01*
X112704404Y-101390476D01*
X112704404Y-101314285D01*
X112666309Y-101238095D01*
X112628214Y-101200000D01*
X112552023Y-101161904D01*
X112361547Y-101161904D01*
X112247261Y-101200000D01*
X116552023Y-114661904D02*
X116552023Y-113861904D01*
X116247261Y-113861904D01*
X116171071Y-113900000D01*
X116132976Y-113938095D01*
X116094880Y-114014285D01*
X116094880Y-114128571D01*
X116132976Y-114204761D01*
X116171071Y-114242857D01*
X116247261Y-114280952D01*
X116552023Y-114280952D01*
X115790119Y-114433333D02*
X115409166Y-114433333D01*
X115866309Y-114661904D02*
X115599642Y-113861904D01*
X115332976Y-114661904D01*
X114647261Y-114661904D02*
X115104404Y-114661904D01*
X114875833Y-114661904D02*
X114875833Y-113861904D01*
X114952023Y-113976190D01*
X115028214Y-114052380D01*
X115104404Y-114090476D01*
X114152023Y-113861904D02*
X114075833Y-113861904D01*
X113999642Y-113900000D01*
X113961547Y-113938095D01*
X113923452Y-114014285D01*
X113885357Y-114166666D01*
X113885357Y-114357142D01*
X113923452Y-114509523D01*
X113961547Y-114585714D01*
X113999642Y-114623809D01*
X114075833Y-114661904D01*
X114152023Y-114661904D01*
X114228214Y-114623809D01*
X114266309Y-114585714D01*
X114304404Y-114509523D01*
X114342500Y-114357142D01*
X114342500Y-114166666D01*
X114304404Y-114014285D01*
X114266309Y-113938095D01*
X114228214Y-113900000D01*
X114152023Y-113861904D01*
X116552023Y-109581904D02*
X116552023Y-108781904D01*
X116247261Y-108781904D01*
X116171071Y-108820000D01*
X116132976Y-108858095D01*
X116094880Y-108934285D01*
X116094880Y-109048571D01*
X116132976Y-109124761D01*
X116171071Y-109162857D01*
X116247261Y-109200952D01*
X116552023Y-109200952D01*
X115790119Y-109353333D02*
X115409166Y-109353333D01*
X115866309Y-109581904D02*
X115599642Y-108781904D01*
X115332976Y-109581904D01*
X114952023Y-109124761D02*
X115028214Y-109086666D01*
X115066309Y-109048571D01*
X115104404Y-108972380D01*
X115104404Y-108934285D01*
X115066309Y-108858095D01*
X115028214Y-108820000D01*
X114952023Y-108781904D01*
X114799642Y-108781904D01*
X114723452Y-108820000D01*
X114685357Y-108858095D01*
X114647261Y-108934285D01*
X114647261Y-108972380D01*
X114685357Y-109048571D01*
X114723452Y-109086666D01*
X114799642Y-109124761D01*
X114952023Y-109124761D01*
X115028214Y-109162857D01*
X115066309Y-109200952D01*
X115104404Y-109277142D01*
X115104404Y-109429523D01*
X115066309Y-109505714D01*
X115028214Y-109543809D01*
X114952023Y-109581904D01*
X114799642Y-109581904D01*
X114723452Y-109543809D01*
X114685357Y-109505714D01*
X114647261Y-109429523D01*
X114647261Y-109277142D01*
X114685357Y-109200952D01*
X114723452Y-109162857D01*
X114799642Y-109124761D01*
X110240119Y-89033333D02*
X109859166Y-89033333D01*
X110316309Y-89261904D02*
X110049642Y-88461904D01*
X109782976Y-89261904D01*
X109363928Y-88461904D02*
X109287738Y-88461904D01*
X109211547Y-88500000D01*
X109173452Y-88538095D01*
X109135357Y-88614285D01*
X109097261Y-88766666D01*
X109097261Y-88957142D01*
X109135357Y-89109523D01*
X109173452Y-89185714D01*
X109211547Y-89223809D01*
X109287738Y-89261904D01*
X109363928Y-89261904D01*
X109440119Y-89223809D01*
X109478214Y-89185714D01*
X109516309Y-89109523D01*
X109554404Y-88957142D01*
X109554404Y-88766666D01*
X109516309Y-88614285D01*
X109478214Y-88538095D01*
X109440119Y-88500000D01*
X109363928Y-88461904D01*
X116552023Y-124821904D02*
X116552023Y-124021904D01*
X116247261Y-124021904D01*
X116171071Y-124060000D01*
X116132976Y-124098095D01*
X116094880Y-124174285D01*
X116094880Y-124288571D01*
X116132976Y-124364761D01*
X116171071Y-124402857D01*
X116247261Y-124440952D01*
X116552023Y-124440952D01*
X115752023Y-124821904D02*
X115752023Y-124021904D01*
X115561547Y-124021904D01*
X115447261Y-124060000D01*
X115371071Y-124136190D01*
X115332976Y-124212380D01*
X115294880Y-124364761D01*
X115294880Y-124479047D01*
X115332976Y-124631428D01*
X115371071Y-124707619D01*
X115447261Y-124783809D01*
X115561547Y-124821904D01*
X115752023Y-124821904D01*
X115028214Y-124021904D02*
X114494880Y-124021904D01*
X114837738Y-124821904D01*
X102641428Y-58781904D02*
X103098571Y-58781904D01*
X102870000Y-58781904D02*
X102870000Y-57981904D01*
X102946190Y-58096190D01*
X103022380Y-58172380D01*
X103098571Y-58210476D01*
X116552023Y-127361904D02*
X116552023Y-126561904D01*
X116247261Y-126561904D01*
X116171071Y-126600000D01*
X116132976Y-126638095D01*
X116094880Y-126714285D01*
X116094880Y-126828571D01*
X116132976Y-126904761D01*
X116171071Y-126942857D01*
X116247261Y-126980952D01*
X116552023Y-126980952D01*
X115752023Y-127361904D02*
X115752023Y-126561904D01*
X115561547Y-126561904D01*
X115447261Y-126600000D01*
X115371071Y-126676190D01*
X115332976Y-126752380D01*
X115294880Y-126904761D01*
X115294880Y-127019047D01*
X115332976Y-127171428D01*
X115371071Y-127247619D01*
X115447261Y-127323809D01*
X115561547Y-127361904D01*
X115752023Y-127361904D01*
X114609166Y-126561904D02*
X114761547Y-126561904D01*
X114837738Y-126600000D01*
X114875833Y-126638095D01*
X114952023Y-126752380D01*
X114990119Y-126904761D01*
X114990119Y-127209523D01*
X114952023Y-127285714D01*
X114913928Y-127323809D01*
X114837738Y-127361904D01*
X114685357Y-127361904D01*
X114609166Y-127323809D01*
X114571071Y-127285714D01*
X114532976Y-127209523D01*
X114532976Y-127019047D01*
X114571071Y-126942857D01*
X114609166Y-126904761D01*
X114685357Y-126866666D01*
X114837738Y-126866666D01*
X114913928Y-126904761D01*
X114952023Y-126942857D01*
X114990119Y-127019047D01*
X116552023Y-71481904D02*
X116552023Y-70681904D01*
X116361547Y-70681904D01*
X116247261Y-70720000D01*
X116171071Y-70796190D01*
X116132976Y-70872380D01*
X116094880Y-71024761D01*
X116094880Y-71139047D01*
X116132976Y-71291428D01*
X116171071Y-71367619D01*
X116247261Y-71443809D01*
X116361547Y-71481904D01*
X116552023Y-71481904D01*
X115828214Y-70681904D02*
X115294880Y-70681904D01*
X115637738Y-71481904D01*
X116552023Y-81641904D02*
X116552023Y-80841904D01*
X116361547Y-80841904D01*
X116247261Y-80880000D01*
X116171071Y-80956190D01*
X116132976Y-81032380D01*
X116094880Y-81184761D01*
X116094880Y-81299047D01*
X116132976Y-81451428D01*
X116171071Y-81527619D01*
X116247261Y-81603809D01*
X116361547Y-81641904D01*
X116552023Y-81641904D01*
X115828214Y-80841904D02*
X115332976Y-80841904D01*
X115599642Y-81146666D01*
X115485357Y-81146666D01*
X115409166Y-81184761D01*
X115371071Y-81222857D01*
X115332976Y-81299047D01*
X115332976Y-81489523D01*
X115371071Y-81565714D01*
X115409166Y-81603809D01*
X115485357Y-81641904D01*
X115713928Y-81641904D01*
X115790119Y-81603809D01*
X115828214Y-81565714D01*
X116590119Y-96843809D02*
X116475833Y-96881904D01*
X116285357Y-96881904D01*
X116209166Y-96843809D01*
X116171071Y-96805714D01*
X116132976Y-96729523D01*
X116132976Y-96653333D01*
X116171071Y-96577142D01*
X116209166Y-96539047D01*
X116285357Y-96500952D01*
X116437738Y-96462857D01*
X116513928Y-96424761D01*
X116552023Y-96386666D01*
X116590119Y-96310476D01*
X116590119Y-96234285D01*
X116552023Y-96158095D01*
X116513928Y-96120000D01*
X116437738Y-96081904D01*
X116247261Y-96081904D01*
X116132976Y-96120000D01*
X115637738Y-96081904D02*
X115485357Y-96081904D01*
X115409166Y-96120000D01*
X115332976Y-96196190D01*
X115294880Y-96348571D01*
X115294880Y-96615238D01*
X115332976Y-96767619D01*
X115409166Y-96843809D01*
X115485357Y-96881904D01*
X115637738Y-96881904D01*
X115713928Y-96843809D01*
X115790119Y-96767619D01*
X115828214Y-96615238D01*
X115828214Y-96348571D01*
X115790119Y-96196190D01*
X115713928Y-96120000D01*
X115637738Y-96081904D01*
X114952023Y-96081904D02*
X114952023Y-96729523D01*
X114913928Y-96805714D01*
X114875833Y-96843809D01*
X114799642Y-96881904D01*
X114647261Y-96881904D01*
X114571071Y-96843809D01*
X114532976Y-96805714D01*
X114494880Y-96729523D01*
X114494880Y-96081904D01*
X114113928Y-96881904D02*
X114113928Y-96081904D01*
X113656785Y-96881904D01*
X113656785Y-96081904D01*
X113275833Y-96881904D02*
X113275833Y-96081904D01*
X113085357Y-96081904D01*
X112971071Y-96120000D01*
X112894880Y-96196190D01*
X112856785Y-96272380D01*
X112818690Y-96424761D01*
X112818690Y-96539047D01*
X112856785Y-96691428D01*
X112894880Y-96767619D01*
X112971071Y-96843809D01*
X113085357Y-96881904D01*
X113275833Y-96881904D01*
X112666309Y-96958095D02*
X112056785Y-96958095D01*
X111713928Y-96081904D02*
X111561547Y-96081904D01*
X111485357Y-96120000D01*
X111409166Y-96196190D01*
X111371071Y-96348571D01*
X111371071Y-96615238D01*
X111409166Y-96767619D01*
X111485357Y-96843809D01*
X111561547Y-96881904D01*
X111713928Y-96881904D01*
X111790119Y-96843809D01*
X111866309Y-96767619D01*
X111904404Y-96615238D01*
X111904404Y-96348571D01*
X111866309Y-96196190D01*
X111790119Y-96120000D01*
X111713928Y-96081904D01*
X116742500Y-90776000D02*
X115942500Y-90776000D01*
X116094880Y-91801904D02*
X116361547Y-91420952D01*
X116552023Y-91801904D02*
X116552023Y-91001904D01*
X116247261Y-91001904D01*
X116171071Y-91040000D01*
X116132976Y-91078095D01*
X116094880Y-91154285D01*
X116094880Y-91268571D01*
X116132976Y-91344761D01*
X116171071Y-91382857D01*
X116247261Y-91420952D01*
X116552023Y-91420952D01*
X115942500Y-90776000D02*
X115104404Y-90776000D01*
X115599642Y-91001904D02*
X115447261Y-91001904D01*
X115371071Y-91040000D01*
X115294880Y-91116190D01*
X115256785Y-91268571D01*
X115256785Y-91535238D01*
X115294880Y-91687619D01*
X115371071Y-91763809D01*
X115447261Y-91801904D01*
X115599642Y-91801904D01*
X115675833Y-91763809D01*
X115752023Y-91687619D01*
X115790119Y-91535238D01*
X115790119Y-91268571D01*
X115752023Y-91116190D01*
X115675833Y-91040000D01*
X115599642Y-91001904D01*
X115104404Y-90776000D02*
X114190119Y-90776000D01*
X114913928Y-91801904D02*
X114913928Y-91001904D01*
X114647261Y-91573333D01*
X114380595Y-91001904D01*
X114380595Y-91801904D01*
X114190119Y-90776000D02*
X113428214Y-90776000D01*
X114037738Y-91763809D02*
X113923452Y-91801904D01*
X113732976Y-91801904D01*
X113656785Y-91763809D01*
X113618690Y-91725714D01*
X113580595Y-91649523D01*
X113580595Y-91573333D01*
X113618690Y-91497142D01*
X113656785Y-91459047D01*
X113732976Y-91420952D01*
X113885357Y-91382857D01*
X113961547Y-91344761D01*
X113999642Y-91306666D01*
X114037738Y-91230476D01*
X114037738Y-91154285D01*
X113999642Y-91078095D01*
X113961547Y-91040000D01*
X113885357Y-91001904D01*
X113694880Y-91001904D01*
X113580595Y-91040000D01*
X113428214Y-90776000D02*
X112704404Y-90776000D01*
X113237738Y-91382857D02*
X112971071Y-91382857D01*
X112856785Y-91801904D02*
X113237738Y-91801904D01*
X113237738Y-91001904D01*
X112856785Y-91001904D01*
X112704404Y-90776000D02*
X112056785Y-90776000D01*
X112132976Y-91801904D02*
X112513928Y-91801904D01*
X112513928Y-91001904D01*
X110202023Y-122281904D02*
X110202023Y-121481904D01*
X109897261Y-121481904D01*
X109821071Y-121520000D01*
X109782976Y-121558095D01*
X109744880Y-121634285D01*
X109744880Y-121748571D01*
X109782976Y-121824761D01*
X109821071Y-121862857D01*
X109897261Y-121900952D01*
X110202023Y-121900952D01*
X109402023Y-122281904D02*
X109402023Y-121481904D01*
X109211547Y-121481904D01*
X109097261Y-121520000D01*
X109021071Y-121596190D01*
X108982976Y-121672380D01*
X108944880Y-121824761D01*
X108944880Y-121939047D01*
X108982976Y-122091428D01*
X109021071Y-122167619D01*
X109097261Y-122243809D01*
X109211547Y-122281904D01*
X109402023Y-122281904D01*
X108449642Y-121481904D02*
X108373452Y-121481904D01*
X108297261Y-121520000D01*
X108259166Y-121558095D01*
X108221071Y-121634285D01*
X108182976Y-121786666D01*
X108182976Y-121977142D01*
X108221071Y-122129523D01*
X108259166Y-122205714D01*
X108297261Y-122243809D01*
X108373452Y-122281904D01*
X108449642Y-122281904D01*
X108525833Y-122243809D01*
X108563928Y-122205714D01*
X108602023Y-122129523D01*
X108640119Y-121977142D01*
X108640119Y-121786666D01*
X108602023Y-121634285D01*
X108563928Y-121558095D01*
X108525833Y-121520000D01*
X108449642Y-121481904D01*
X110240119Y-63633333D02*
X109859166Y-63633333D01*
X110316309Y-63861904D02*
X110049642Y-63061904D01*
X109782976Y-63861904D01*
X109097261Y-63861904D02*
X109554404Y-63861904D01*
X109325833Y-63861904D02*
X109325833Y-63061904D01*
X109402023Y-63176190D01*
X109478214Y-63252380D01*
X109554404Y-63290476D01*
X108602023Y-63061904D02*
X108525833Y-63061904D01*
X108449642Y-63100000D01*
X108411547Y-63138095D01*
X108373452Y-63214285D01*
X108335357Y-63366666D01*
X108335357Y-63557142D01*
X108373452Y-63709523D01*
X108411547Y-63785714D01*
X108449642Y-63823809D01*
X108525833Y-63861904D01*
X108602023Y-63861904D01*
X108678214Y-63823809D01*
X108716309Y-63785714D01*
X108754404Y-63709523D01*
X108792500Y-63557142D01*
X108792500Y-63366666D01*
X108754404Y-63214285D01*
X108716309Y-63138095D01*
X108678214Y-63100000D01*
X108602023Y-63061904D01*
X110240119Y-61093333D02*
X109859166Y-61093333D01*
X110316309Y-61321904D02*
X110049642Y-60521904D01*
X109782976Y-61321904D01*
X109097261Y-61321904D02*
X109554404Y-61321904D01*
X109325833Y-61321904D02*
X109325833Y-60521904D01*
X109402023Y-60636190D01*
X109478214Y-60712380D01*
X109554404Y-60750476D01*
X108335357Y-61321904D02*
X108792500Y-61321904D01*
X108563928Y-61321904D02*
X108563928Y-60521904D01*
X108640119Y-60636190D01*
X108716309Y-60712380D01*
X108792500Y-60750476D01*
X116552023Y-79101904D02*
X116552023Y-78301904D01*
X116361547Y-78301904D01*
X116247261Y-78340000D01*
X116171071Y-78416190D01*
X116132976Y-78492380D01*
X116094880Y-78644761D01*
X116094880Y-78759047D01*
X116132976Y-78911428D01*
X116171071Y-78987619D01*
X116247261Y-79063809D01*
X116361547Y-79101904D01*
X116552023Y-79101904D01*
X115409166Y-78568571D02*
X115409166Y-79101904D01*
X115599642Y-78263809D02*
X115790119Y-78835238D01*
X115294880Y-78835238D01*
X116552023Y-76561904D02*
X116552023Y-75761904D01*
X116361547Y-75761904D01*
X116247261Y-75800000D01*
X116171071Y-75876190D01*
X116132976Y-75952380D01*
X116094880Y-76104761D01*
X116094880Y-76219047D01*
X116132976Y-76371428D01*
X116171071Y-76447619D01*
X116247261Y-76523809D01*
X116361547Y-76561904D01*
X116552023Y-76561904D01*
X115371071Y-75761904D02*
X115752023Y-75761904D01*
X115790119Y-76142857D01*
X115752023Y-76104761D01*
X115675833Y-76066666D01*
X115485357Y-76066666D01*
X115409166Y-76104761D01*
X115371071Y-76142857D01*
X115332976Y-76219047D01*
X115332976Y-76409523D01*
X115371071Y-76485714D01*
X115409166Y-76523809D01*
X115485357Y-76561904D01*
X115675833Y-76561904D01*
X115752023Y-76523809D01*
X115790119Y-76485714D01*
X116742500Y-98396000D02*
X115828214Y-98396000D01*
X116628214Y-98621904D02*
X116437738Y-99421904D01*
X116285357Y-98850476D01*
X116132976Y-99421904D01*
X115942500Y-98621904D01*
X115828214Y-98396000D02*
X115104404Y-98396000D01*
X115637738Y-99002857D02*
X115371071Y-99002857D01*
X115256785Y-99421904D02*
X115637738Y-99421904D01*
X115637738Y-98621904D01*
X115256785Y-98621904D01*
D11*
X122377142Y-141940000D02*
X122434285Y-141911428D01*
X122520000Y-141911428D01*
X122605714Y-141940000D01*
X122662857Y-141997142D01*
X122691428Y-142054285D01*
X122720000Y-142168571D01*
X122720000Y-142254285D01*
X122691428Y-142368571D01*
X122662857Y-142425714D01*
X122605714Y-142482857D01*
X122520000Y-142511428D01*
X122462857Y-142511428D01*
X122377142Y-142482857D01*
X122348571Y-142454285D01*
X122348571Y-142254285D01*
X122462857Y-142254285D01*
X122091428Y-142511428D02*
X122091428Y-141911428D01*
X121748571Y-142511428D01*
X121748571Y-141911428D01*
X121462857Y-142511428D02*
X121462857Y-141911428D01*
X121320000Y-141911428D01*
X121234285Y-141940000D01*
X121177142Y-141997142D01*
X121148571Y-142054285D01*
X121120000Y-142168571D01*
X121120000Y-142254285D01*
X121148571Y-142368571D01*
X121177142Y-142425714D01*
X121234285Y-142482857D01*
X121320000Y-142511428D01*
X121462857Y-142511428D01*
D10*
X110202023Y-107041904D02*
X110202023Y-106241904D01*
X109897261Y-106241904D01*
X109821071Y-106280000D01*
X109782976Y-106318095D01*
X109744880Y-106394285D01*
X109744880Y-106508571D01*
X109782976Y-106584761D01*
X109821071Y-106622857D01*
X109897261Y-106660952D01*
X110202023Y-106660952D01*
X109440119Y-106813333D02*
X109059166Y-106813333D01*
X109516309Y-107041904D02*
X109249642Y-106241904D01*
X108982976Y-107041904D01*
X108335357Y-106241904D02*
X108716309Y-106241904D01*
X108754404Y-106622857D01*
X108716309Y-106584761D01*
X108640119Y-106546666D01*
X108449642Y-106546666D01*
X108373452Y-106584761D01*
X108335357Y-106622857D01*
X108297261Y-106699047D01*
X108297261Y-106889523D01*
X108335357Y-106965714D01*
X108373452Y-107003809D01*
X108449642Y-107041904D01*
X108640119Y-107041904D01*
X108716309Y-107003809D01*
X108754404Y-106965714D01*
X81969166Y-97667142D02*
X82016785Y-97714761D01*
X82159642Y-97762380D01*
X82254880Y-97762380D01*
X82397738Y-97714761D01*
X82492976Y-97619523D01*
X82540595Y-97524285D01*
X82588214Y-97333809D01*
X82588214Y-97190952D01*
X82540595Y-97000476D01*
X82492976Y-96905238D01*
X82397738Y-96810000D01*
X82254880Y-96762380D01*
X82159642Y-96762380D01*
X82016785Y-96810000D01*
X81969166Y-96857619D01*
X81112023Y-97095714D02*
X81112023Y-97762380D01*
X81350119Y-96714761D02*
X81588214Y-97429047D01*
X80969166Y-97429047D01*
X107269166Y-48137142D02*
X107316785Y-48184761D01*
X107459642Y-48232380D01*
X107554880Y-48232380D01*
X107697738Y-48184761D01*
X107792976Y-48089523D01*
X107840595Y-47994285D01*
X107888214Y-47803809D01*
X107888214Y-47660952D01*
X107840595Y-47470476D01*
X107792976Y-47375238D01*
X107697738Y-47280000D01*
X107554880Y-47232380D01*
X107459642Y-47232380D01*
X107316785Y-47280000D01*
X107269166Y-47327619D01*
X106316785Y-48232380D02*
X106888214Y-48232380D01*
X106602500Y-48232380D02*
X106602500Y-47232380D01*
X106697738Y-47375238D01*
X106792976Y-47470476D01*
X106888214Y-47518095D01*
X81906666Y-79867142D02*
X81954285Y-79914761D01*
X82097142Y-79962380D01*
X82192380Y-79962380D01*
X82335238Y-79914761D01*
X82430476Y-79819523D01*
X82478095Y-79724285D01*
X82525714Y-79533809D01*
X82525714Y-79390952D01*
X82478095Y-79200476D01*
X82430476Y-79105238D01*
X82335238Y-79010000D01*
X82192380Y-78962380D01*
X82097142Y-78962380D01*
X81954285Y-79010000D01*
X81906666Y-79057619D01*
X81573333Y-78962380D02*
X80954285Y-78962380D01*
X81287619Y-79343333D01*
X81144761Y-79343333D01*
X81049523Y-79390952D01*
X81001904Y-79438571D01*
X80954285Y-79533809D01*
X80954285Y-79771904D01*
X81001904Y-79867142D01*
X81049523Y-79914761D01*
X81144761Y-79962380D01*
X81430476Y-79962380D01*
X81525714Y-79914761D01*
X81573333Y-79867142D01*
X47782857Y-113637142D02*
X47830476Y-113684761D01*
X47973333Y-113732380D01*
X48068571Y-113732380D01*
X48211428Y-113684761D01*
X48306666Y-113589523D01*
X48354285Y-113494285D01*
X48401904Y-113303809D01*
X48401904Y-113160952D01*
X48354285Y-112970476D01*
X48306666Y-112875238D01*
X48211428Y-112780000D01*
X48068571Y-112732380D01*
X47973333Y-112732380D01*
X47830476Y-112780000D01*
X47782857Y-112827619D01*
X46925714Y-113065714D02*
X46925714Y-113732380D01*
X47163809Y-112684761D02*
X47401904Y-113399047D01*
X46782857Y-113399047D01*
X46211428Y-112732380D02*
X46116190Y-112732380D01*
X46020952Y-112780000D01*
X45973333Y-112827619D01*
X45925714Y-112922857D01*
X45878095Y-113113333D01*
X45878095Y-113351428D01*
X45925714Y-113541904D01*
X45973333Y-113637142D01*
X46020952Y-113684761D01*
X46116190Y-113732380D01*
X46211428Y-113732380D01*
X46306666Y-113684761D01*
X46354285Y-113637142D01*
X46401904Y-113541904D01*
X46449523Y-113351428D01*
X46449523Y-113113333D01*
X46401904Y-112922857D01*
X46354285Y-112827619D01*
X46306666Y-112780000D01*
X46211428Y-112732380D01*
X47782857Y-115737142D02*
X47830476Y-115784761D01*
X47973333Y-115832380D01*
X48068571Y-115832380D01*
X48211428Y-115784761D01*
X48306666Y-115689523D01*
X48354285Y-115594285D01*
X48401904Y-115403809D01*
X48401904Y-115260952D01*
X48354285Y-115070476D01*
X48306666Y-114975238D01*
X48211428Y-114880000D01*
X48068571Y-114832380D01*
X47973333Y-114832380D01*
X47830476Y-114880000D01*
X47782857Y-114927619D01*
X47449523Y-114832380D02*
X46830476Y-114832380D01*
X47163809Y-115213333D01*
X47020952Y-115213333D01*
X46925714Y-115260952D01*
X46878095Y-115308571D01*
X46830476Y-115403809D01*
X46830476Y-115641904D01*
X46878095Y-115737142D01*
X46925714Y-115784761D01*
X47020952Y-115832380D01*
X47306666Y-115832380D01*
X47401904Y-115784761D01*
X47449523Y-115737142D01*
X46497142Y-114832380D02*
X45830476Y-114832380D01*
X46259047Y-115832380D01*
X82345357Y-70967142D02*
X82392976Y-71014761D01*
X82535833Y-71062380D01*
X82631071Y-71062380D01*
X82773928Y-71014761D01*
X82869166Y-70919523D01*
X82916785Y-70824285D01*
X82964404Y-70633809D01*
X82964404Y-70490952D01*
X82916785Y-70300476D01*
X82869166Y-70205238D01*
X82773928Y-70110000D01*
X82631071Y-70062380D01*
X82535833Y-70062380D01*
X82392976Y-70110000D01*
X82345357Y-70157619D01*
X81392976Y-71062380D02*
X81964404Y-71062380D01*
X81678690Y-71062380D02*
X81678690Y-70062380D01*
X81773928Y-70205238D01*
X81869166Y-70300476D01*
X81964404Y-70348095D01*
X80916785Y-71062380D02*
X80726309Y-71062380D01*
X80631071Y-71014761D01*
X80583452Y-70967142D01*
X80488214Y-70824285D01*
X80440595Y-70633809D01*
X80440595Y-70252857D01*
X80488214Y-70157619D01*
X80535833Y-70110000D01*
X80631071Y-70062380D01*
X80821547Y-70062380D01*
X80916785Y-70110000D01*
X80964404Y-70157619D01*
X81012023Y-70252857D01*
X81012023Y-70490952D01*
X80964404Y-70586190D01*
X80916785Y-70633809D01*
X80821547Y-70681428D01*
X80631071Y-70681428D01*
X80535833Y-70633809D01*
X80488214Y-70586190D01*
X80440595Y-70490952D01*
X60092380Y-133537142D02*
X59616190Y-133203809D01*
X60092380Y-132965714D02*
X59092380Y-132965714D01*
X59092380Y-133346666D01*
X59140000Y-133441904D01*
X59187619Y-133489523D01*
X59282857Y-133537142D01*
X59425714Y-133537142D01*
X59520952Y-133489523D01*
X59568571Y-133441904D01*
X59616190Y-133346666D01*
X59616190Y-132965714D01*
X60092380Y-134489523D02*
X60092380Y-133918095D01*
X60092380Y-134203809D02*
X59092380Y-134203809D01*
X59235238Y-134108571D01*
X59330476Y-134013333D01*
X59378095Y-133918095D01*
X59092380Y-134822857D02*
X59092380Y-135489523D01*
X60092380Y-135060952D01*
X51592380Y-119337142D02*
X51116190Y-119003809D01*
X51592380Y-118765714D02*
X50592380Y-118765714D01*
X50592380Y-119146666D01*
X50640000Y-119241904D01*
X50687619Y-119289523D01*
X50782857Y-119337142D01*
X50925714Y-119337142D01*
X51020952Y-119289523D01*
X51068571Y-119241904D01*
X51116190Y-119146666D01*
X51116190Y-118765714D01*
X50687619Y-119718095D02*
X50640000Y-119765714D01*
X50592380Y-119860952D01*
X50592380Y-120099047D01*
X50640000Y-120194285D01*
X50687619Y-120241904D01*
X50782857Y-120289523D01*
X50878095Y-120289523D01*
X51020952Y-120241904D01*
X51592380Y-119670476D01*
X51592380Y-120289523D01*
X51592380Y-121241904D02*
X51592380Y-120670476D01*
X51592380Y-120956190D02*
X50592380Y-120956190D01*
X50735238Y-120860952D01*
X50830476Y-120765714D01*
X50878095Y-120670476D01*
X64592380Y-119337142D02*
X64116190Y-119003809D01*
X64592380Y-118765714D02*
X63592380Y-118765714D01*
X63592380Y-119146666D01*
X63640000Y-119241904D01*
X63687619Y-119289523D01*
X63782857Y-119337142D01*
X63925714Y-119337142D01*
X64020952Y-119289523D01*
X64068571Y-119241904D01*
X64116190Y-119146666D01*
X64116190Y-118765714D01*
X64592380Y-120289523D02*
X64592380Y-119718095D01*
X64592380Y-120003809D02*
X63592380Y-120003809D01*
X63735238Y-119908571D01*
X63830476Y-119813333D01*
X63878095Y-119718095D01*
X63592380Y-120622857D02*
X63592380Y-121241904D01*
X63973333Y-120908571D01*
X63973333Y-121051428D01*
X64020952Y-121146666D01*
X64068571Y-121194285D01*
X64163809Y-121241904D01*
X64401904Y-121241904D01*
X64497142Y-121194285D01*
X64544761Y-121146666D01*
X64592380Y-121051428D01*
X64592380Y-120765714D01*
X64544761Y-120670476D01*
X64497142Y-120622857D01*
X95045357Y-68467142D02*
X95092976Y-68514761D01*
X95235833Y-68562380D01*
X95331071Y-68562380D01*
X95473928Y-68514761D01*
X95569166Y-68419523D01*
X95616785Y-68324285D01*
X95664404Y-68133809D01*
X95664404Y-67990952D01*
X95616785Y-67800476D01*
X95569166Y-67705238D01*
X95473928Y-67610000D01*
X95331071Y-67562380D01*
X95235833Y-67562380D01*
X95092976Y-67610000D01*
X95045357Y-67657619D01*
X94092976Y-68562380D02*
X94664404Y-68562380D01*
X94378690Y-68562380D02*
X94378690Y-67562380D01*
X94473928Y-67705238D01*
X94569166Y-67800476D01*
X94664404Y-67848095D01*
X93473928Y-67562380D02*
X93378690Y-67562380D01*
X93283452Y-67610000D01*
X93235833Y-67657619D01*
X93188214Y-67752857D01*
X93140595Y-67943333D01*
X93140595Y-68181428D01*
X93188214Y-68371904D01*
X93235833Y-68467142D01*
X93283452Y-68514761D01*
X93378690Y-68562380D01*
X93473928Y-68562380D01*
X93569166Y-68514761D01*
X93616785Y-68467142D01*
X93664404Y-68371904D01*
X93712023Y-68181428D01*
X93712023Y-67943333D01*
X93664404Y-67752857D01*
X93616785Y-67657619D01*
X93569166Y-67610000D01*
X93473928Y-67562380D01*
X137949523Y-54232380D02*
X137949523Y-54946666D01*
X137997142Y-55089523D01*
X138092380Y-55184761D01*
X138235238Y-55232380D01*
X138330476Y-55232380D01*
X137520952Y-54327619D02*
X137473333Y-54280000D01*
X137378095Y-54232380D01*
X137140000Y-54232380D01*
X137044761Y-54280000D01*
X136997142Y-54327619D01*
X136949523Y-54422857D01*
X136949523Y-54518095D01*
X136997142Y-54660952D01*
X137568571Y-55232380D01*
X136949523Y-55232380D01*
X136044761Y-54232380D02*
X136520952Y-54232380D01*
X136568571Y-54708571D01*
X136520952Y-54660952D01*
X136425714Y-54613333D01*
X136187619Y-54613333D01*
X136092380Y-54660952D01*
X136044761Y-54708571D01*
X135997142Y-54803809D01*
X135997142Y-55041904D01*
X136044761Y-55137142D01*
X136092380Y-55184761D01*
X136187619Y-55232380D01*
X136425714Y-55232380D01*
X136520952Y-55184761D01*
X136568571Y-55137142D01*
X65792380Y-119337142D02*
X65316190Y-119003809D01*
X65792380Y-118765714D02*
X64792380Y-118765714D01*
X64792380Y-119146666D01*
X64840000Y-119241904D01*
X64887619Y-119289523D01*
X64982857Y-119337142D01*
X65125714Y-119337142D01*
X65220952Y-119289523D01*
X65268571Y-119241904D01*
X65316190Y-119146666D01*
X65316190Y-118765714D01*
X65792380Y-120289523D02*
X65792380Y-119718095D01*
X65792380Y-120003809D02*
X64792380Y-120003809D01*
X64935238Y-119908571D01*
X65030476Y-119813333D01*
X65078095Y-119718095D01*
X64887619Y-120670476D02*
X64840000Y-120718095D01*
X64792380Y-120813333D01*
X64792380Y-121051428D01*
X64840000Y-121146666D01*
X64887619Y-121194285D01*
X64982857Y-121241904D01*
X65078095Y-121241904D01*
X65220952Y-121194285D01*
X65792380Y-120622857D01*
X65792380Y-121241904D01*
X94492380Y-116113333D02*
X94016190Y-115780000D01*
X94492380Y-115541904D02*
X93492380Y-115541904D01*
X93492380Y-115922857D01*
X93540000Y-116018095D01*
X93587619Y-116065714D01*
X93682857Y-116113333D01*
X93825714Y-116113333D01*
X93920952Y-116065714D01*
X93968571Y-116018095D01*
X94016190Y-115922857D01*
X94016190Y-115541904D01*
X93492380Y-117018095D02*
X93492380Y-116541904D01*
X93968571Y-116494285D01*
X93920952Y-116541904D01*
X93873333Y-116637142D01*
X93873333Y-116875238D01*
X93920952Y-116970476D01*
X93968571Y-117018095D01*
X94063809Y-117065714D01*
X94301904Y-117065714D01*
X94397142Y-117018095D01*
X94444761Y-116970476D01*
X94492380Y-116875238D01*
X94492380Y-116637142D01*
X94444761Y-116541904D01*
X94397142Y-116494285D01*
X127782857Y-134737142D02*
X127830476Y-134784761D01*
X127973333Y-134832380D01*
X128068571Y-134832380D01*
X128211428Y-134784761D01*
X128306666Y-134689523D01*
X128354285Y-134594285D01*
X128401904Y-134403809D01*
X128401904Y-134260952D01*
X128354285Y-134070476D01*
X128306666Y-133975238D01*
X128211428Y-133880000D01*
X128068571Y-133832380D01*
X127973333Y-133832380D01*
X127830476Y-133880000D01*
X127782857Y-133927619D01*
X127449523Y-133832380D02*
X126830476Y-133832380D01*
X127163809Y-134213333D01*
X127020952Y-134213333D01*
X126925714Y-134260952D01*
X126878095Y-134308571D01*
X126830476Y-134403809D01*
X126830476Y-134641904D01*
X126878095Y-134737142D01*
X126925714Y-134784761D01*
X127020952Y-134832380D01*
X127306666Y-134832380D01*
X127401904Y-134784761D01*
X127449523Y-134737142D01*
X126449523Y-133927619D02*
X126401904Y-133880000D01*
X126306666Y-133832380D01*
X126068571Y-133832380D01*
X125973333Y-133880000D01*
X125925714Y-133927619D01*
X125878095Y-134022857D01*
X125878095Y-134118095D01*
X125925714Y-134260952D01*
X126497142Y-134832380D01*
X125878095Y-134832380D01*
X84292380Y-116113333D02*
X83816190Y-115780000D01*
X84292380Y-115541904D02*
X83292380Y-115541904D01*
X83292380Y-115922857D01*
X83340000Y-116018095D01*
X83387619Y-116065714D01*
X83482857Y-116113333D01*
X83625714Y-116113333D01*
X83720952Y-116065714D01*
X83768571Y-116018095D01*
X83816190Y-115922857D01*
X83816190Y-115541904D01*
X83292380Y-116970476D02*
X83292380Y-116780000D01*
X83340000Y-116684761D01*
X83387619Y-116637142D01*
X83530476Y-116541904D01*
X83720952Y-116494285D01*
X84101904Y-116494285D01*
X84197142Y-116541904D01*
X84244761Y-116589523D01*
X84292380Y-116684761D01*
X84292380Y-116875238D01*
X84244761Y-116970476D01*
X84197142Y-117018095D01*
X84101904Y-117065714D01*
X83863809Y-117065714D01*
X83768571Y-117018095D01*
X83720952Y-116970476D01*
X83673333Y-116875238D01*
X83673333Y-116684761D01*
X83720952Y-116589523D01*
X83768571Y-116541904D01*
X83863809Y-116494285D01*
X95120357Y-86267142D02*
X95167976Y-86314761D01*
X95310833Y-86362380D01*
X95406071Y-86362380D01*
X95548928Y-86314761D01*
X95644166Y-86219523D01*
X95691785Y-86124285D01*
X95739404Y-85933809D01*
X95739404Y-85790952D01*
X95691785Y-85600476D01*
X95644166Y-85505238D01*
X95548928Y-85410000D01*
X95406071Y-85362380D01*
X95310833Y-85362380D01*
X95167976Y-85410000D01*
X95120357Y-85457619D01*
X94167976Y-86362380D02*
X94739404Y-86362380D01*
X94453690Y-86362380D02*
X94453690Y-85362380D01*
X94548928Y-85505238D01*
X94644166Y-85600476D01*
X94739404Y-85648095D01*
X93215595Y-86362380D02*
X93787023Y-86362380D01*
X93501309Y-86362380D02*
X93501309Y-85362380D01*
X93596547Y-85505238D01*
X93691785Y-85600476D01*
X93787023Y-85648095D01*
X119549523Y-139932380D02*
X119549523Y-140646666D01*
X119597142Y-140789523D01*
X119692380Y-140884761D01*
X119835238Y-140932380D01*
X119930476Y-140932380D01*
X118549523Y-140932380D02*
X119120952Y-140932380D01*
X118835238Y-140932380D02*
X118835238Y-139932380D01*
X118930476Y-140075238D01*
X119025714Y-140170476D01*
X119120952Y-140218095D01*
X117692380Y-139932380D02*
X117882857Y-139932380D01*
X117978095Y-139980000D01*
X118025714Y-140027619D01*
X118120952Y-140170476D01*
X118168571Y-140360952D01*
X118168571Y-140741904D01*
X118120952Y-140837142D01*
X118073333Y-140884761D01*
X117978095Y-140932380D01*
X117787619Y-140932380D01*
X117692380Y-140884761D01*
X117644761Y-140837142D01*
X117597142Y-140741904D01*
X117597142Y-140503809D01*
X117644761Y-140408571D01*
X117692380Y-140360952D01*
X117787619Y-140313333D01*
X117978095Y-140313333D01*
X118073333Y-140360952D01*
X118120952Y-140408571D01*
X118168571Y-140503809D01*
X54192380Y-119337142D02*
X53716190Y-119003809D01*
X54192380Y-118765714D02*
X53192380Y-118765714D01*
X53192380Y-119146666D01*
X53240000Y-119241904D01*
X53287619Y-119289523D01*
X53382857Y-119337142D01*
X53525714Y-119337142D01*
X53620952Y-119289523D01*
X53668571Y-119241904D01*
X53716190Y-119146666D01*
X53716190Y-118765714D01*
X54192380Y-120289523D02*
X54192380Y-119718095D01*
X54192380Y-120003809D02*
X53192380Y-120003809D01*
X53335238Y-119908571D01*
X53430476Y-119813333D01*
X53478095Y-119718095D01*
X54192380Y-120765714D02*
X54192380Y-120956190D01*
X54144761Y-121051428D01*
X54097142Y-121099047D01*
X53954285Y-121194285D01*
X53763809Y-121241904D01*
X53382857Y-121241904D01*
X53287619Y-121194285D01*
X53240000Y-121146666D01*
X53192380Y-121051428D01*
X53192380Y-120860952D01*
X53240000Y-120765714D01*
X53287619Y-120718095D01*
X53382857Y-120670476D01*
X53620952Y-120670476D01*
X53716190Y-120718095D01*
X53763809Y-120765714D01*
X53811428Y-120860952D01*
X53811428Y-121051428D01*
X53763809Y-121146666D01*
X53716190Y-121194285D01*
X53620952Y-121241904D01*
X62692380Y-133537142D02*
X62216190Y-133203809D01*
X62692380Y-132965714D02*
X61692380Y-132965714D01*
X61692380Y-133346666D01*
X61740000Y-133441904D01*
X61787619Y-133489523D01*
X61882857Y-133537142D01*
X62025714Y-133537142D01*
X62120952Y-133489523D01*
X62168571Y-133441904D01*
X62216190Y-133346666D01*
X62216190Y-132965714D01*
X62692380Y-134489523D02*
X62692380Y-133918095D01*
X62692380Y-134203809D02*
X61692380Y-134203809D01*
X61835238Y-134108571D01*
X61930476Y-134013333D01*
X61978095Y-133918095D01*
X61692380Y-135394285D02*
X61692380Y-134918095D01*
X62168571Y-134870476D01*
X62120952Y-134918095D01*
X62073333Y-135013333D01*
X62073333Y-135251428D01*
X62120952Y-135346666D01*
X62168571Y-135394285D01*
X62263809Y-135441904D01*
X62501904Y-135441904D01*
X62597142Y-135394285D01*
X62644761Y-135346666D01*
X62692380Y-135251428D01*
X62692380Y-135013333D01*
X62644761Y-134918095D01*
X62597142Y-134870476D01*
X45283333Y-47482380D02*
X45283333Y-48196666D01*
X45330952Y-48339523D01*
X45426190Y-48434761D01*
X45569047Y-48482380D01*
X45664285Y-48482380D01*
X44807142Y-48482380D02*
X44807142Y-47482380D01*
X44426190Y-47482380D01*
X44330952Y-47530000D01*
X44283333Y-47577619D01*
X44235714Y-47672857D01*
X44235714Y-47815714D01*
X44283333Y-47910952D01*
X44330952Y-47958571D01*
X44426190Y-48006190D01*
X44807142Y-48006190D01*
X43283333Y-48482380D02*
X43854761Y-48482380D01*
X43569047Y-48482380D02*
X43569047Y-47482380D01*
X43664285Y-47625238D01*
X43759523Y-47720476D01*
X43854761Y-47768095D01*
X95120357Y-77367142D02*
X95167976Y-77414761D01*
X95310833Y-77462380D01*
X95406071Y-77462380D01*
X95548928Y-77414761D01*
X95644166Y-77319523D01*
X95691785Y-77224285D01*
X95739404Y-77033809D01*
X95739404Y-76890952D01*
X95691785Y-76700476D01*
X95644166Y-76605238D01*
X95548928Y-76510000D01*
X95406071Y-76462380D01*
X95310833Y-76462380D01*
X95167976Y-76510000D01*
X95120357Y-76557619D01*
X94739404Y-76557619D02*
X94691785Y-76510000D01*
X94596547Y-76462380D01*
X94358452Y-76462380D01*
X94263214Y-76510000D01*
X94215595Y-76557619D01*
X94167976Y-76652857D01*
X94167976Y-76748095D01*
X94215595Y-76890952D01*
X94787023Y-77462380D01*
X94167976Y-77462380D01*
X93310833Y-76462380D02*
X93501309Y-76462380D01*
X93596547Y-76510000D01*
X93644166Y-76557619D01*
X93739404Y-76700476D01*
X93787023Y-76890952D01*
X93787023Y-77271904D01*
X93739404Y-77367142D01*
X93691785Y-77414761D01*
X93596547Y-77462380D01*
X93406071Y-77462380D01*
X93310833Y-77414761D01*
X93263214Y-77367142D01*
X93215595Y-77271904D01*
X93215595Y-77033809D01*
X93263214Y-76938571D01*
X93310833Y-76890952D01*
X93406071Y-76843333D01*
X93596547Y-76843333D01*
X93691785Y-76890952D01*
X93739404Y-76938571D01*
X93787023Y-77033809D01*
X66992380Y-119337142D02*
X66516190Y-119003809D01*
X66992380Y-118765714D02*
X65992380Y-118765714D01*
X65992380Y-119146666D01*
X66040000Y-119241904D01*
X66087619Y-119289523D01*
X66182857Y-119337142D01*
X66325714Y-119337142D01*
X66420952Y-119289523D01*
X66468571Y-119241904D01*
X66516190Y-119146666D01*
X66516190Y-118765714D01*
X66992380Y-120289523D02*
X66992380Y-119718095D01*
X66992380Y-120003809D02*
X65992380Y-120003809D01*
X66135238Y-119908571D01*
X66230476Y-119813333D01*
X66278095Y-119718095D01*
X66992380Y-121241904D02*
X66992380Y-120670476D01*
X66992380Y-120956190D02*
X65992380Y-120956190D01*
X66135238Y-120860952D01*
X66230476Y-120765714D01*
X66278095Y-120670476D01*
X73992380Y-133513333D02*
X73516190Y-133180000D01*
X73992380Y-132941904D02*
X72992380Y-132941904D01*
X72992380Y-133322857D01*
X73040000Y-133418095D01*
X73087619Y-133465714D01*
X73182857Y-133513333D01*
X73325714Y-133513333D01*
X73420952Y-133465714D01*
X73468571Y-133418095D01*
X73516190Y-133322857D01*
X73516190Y-132941904D01*
X73420952Y-134084761D02*
X73373333Y-133989523D01*
X73325714Y-133941904D01*
X73230476Y-133894285D01*
X73182857Y-133894285D01*
X73087619Y-133941904D01*
X73040000Y-133989523D01*
X72992380Y-134084761D01*
X72992380Y-134275238D01*
X73040000Y-134370476D01*
X73087619Y-134418095D01*
X73182857Y-134465714D01*
X73230476Y-134465714D01*
X73325714Y-134418095D01*
X73373333Y-134370476D01*
X73420952Y-134275238D01*
X73420952Y-134084761D01*
X73468571Y-133989523D01*
X73516190Y-133941904D01*
X73611428Y-133894285D01*
X73801904Y-133894285D01*
X73897142Y-133941904D01*
X73944761Y-133989523D01*
X73992380Y-134084761D01*
X73992380Y-134275238D01*
X73944761Y-134370476D01*
X73897142Y-134418095D01*
X73801904Y-134465714D01*
X73611428Y-134465714D01*
X73516190Y-134418095D01*
X73468571Y-134370476D01*
X73420952Y-134275238D01*
X72492380Y-133513333D02*
X72016190Y-133180000D01*
X72492380Y-132941904D02*
X71492380Y-132941904D01*
X71492380Y-133322857D01*
X71540000Y-133418095D01*
X71587619Y-133465714D01*
X71682857Y-133513333D01*
X71825714Y-133513333D01*
X71920952Y-133465714D01*
X71968571Y-133418095D01*
X72016190Y-133322857D01*
X72016190Y-132941904D01*
X72492380Y-133989523D02*
X72492380Y-134180000D01*
X72444761Y-134275238D01*
X72397142Y-134322857D01*
X72254285Y-134418095D01*
X72063809Y-134465714D01*
X71682857Y-134465714D01*
X71587619Y-134418095D01*
X71540000Y-134370476D01*
X71492380Y-134275238D01*
X71492380Y-134084761D01*
X71540000Y-133989523D01*
X71587619Y-133941904D01*
X71682857Y-133894285D01*
X71920952Y-133894285D01*
X72016190Y-133941904D01*
X72063809Y-133989523D01*
X72111428Y-134084761D01*
X72111428Y-134275238D01*
X72063809Y-134370476D01*
X72016190Y-134418095D01*
X71920952Y-134465714D01*
X99220357Y-104237142D02*
X99267976Y-104284761D01*
X99410833Y-104332380D01*
X99506071Y-104332380D01*
X99648928Y-104284761D01*
X99744166Y-104189523D01*
X99791785Y-104094285D01*
X99839404Y-103903809D01*
X99839404Y-103760952D01*
X99791785Y-103570476D01*
X99744166Y-103475238D01*
X99648928Y-103380000D01*
X99506071Y-103332380D01*
X99410833Y-103332380D01*
X99267976Y-103380000D01*
X99220357Y-103427619D01*
X98267976Y-104332380D02*
X98839404Y-104332380D01*
X98553690Y-104332380D02*
X98553690Y-103332380D01*
X98648928Y-103475238D01*
X98744166Y-103570476D01*
X98839404Y-103618095D01*
X97934642Y-103332380D02*
X97267976Y-103332380D01*
X97696547Y-104332380D01*
X81869166Y-62067142D02*
X81916785Y-62114761D01*
X82059642Y-62162380D01*
X82154880Y-62162380D01*
X82297738Y-62114761D01*
X82392976Y-62019523D01*
X82440595Y-61924285D01*
X82488214Y-61733809D01*
X82488214Y-61590952D01*
X82440595Y-61400476D01*
X82392976Y-61305238D01*
X82297738Y-61210000D01*
X82154880Y-61162380D01*
X82059642Y-61162380D01*
X81916785Y-61210000D01*
X81869166Y-61257619D01*
X81488214Y-61257619D02*
X81440595Y-61210000D01*
X81345357Y-61162380D01*
X81107261Y-61162380D01*
X81012023Y-61210000D01*
X80964404Y-61257619D01*
X80916785Y-61352857D01*
X80916785Y-61448095D01*
X80964404Y-61590952D01*
X81535833Y-62162380D01*
X80916785Y-62162380D01*
X54392380Y-133437142D02*
X53916190Y-133103809D01*
X54392380Y-132865714D02*
X53392380Y-132865714D01*
X53392380Y-133246666D01*
X53440000Y-133341904D01*
X53487619Y-133389523D01*
X53582857Y-133437142D01*
X53725714Y-133437142D01*
X53820952Y-133389523D01*
X53868571Y-133341904D01*
X53916190Y-133246666D01*
X53916190Y-132865714D01*
X53487619Y-133818095D02*
X53440000Y-133865714D01*
X53392380Y-133960952D01*
X53392380Y-134199047D01*
X53440000Y-134294285D01*
X53487619Y-134341904D01*
X53582857Y-134389523D01*
X53678095Y-134389523D01*
X53820952Y-134341904D01*
X54392380Y-133770476D01*
X54392380Y-134389523D01*
X53487619Y-134770476D02*
X53440000Y-134818095D01*
X53392380Y-134913333D01*
X53392380Y-135151428D01*
X53440000Y-135246666D01*
X53487619Y-135294285D01*
X53582857Y-135341904D01*
X53678095Y-135341904D01*
X53820952Y-135294285D01*
X54392380Y-134722857D01*
X54392380Y-135341904D01*
X61392380Y-133537142D02*
X60916190Y-133203809D01*
X61392380Y-132965714D02*
X60392380Y-132965714D01*
X60392380Y-133346666D01*
X60440000Y-133441904D01*
X60487619Y-133489523D01*
X60582857Y-133537142D01*
X60725714Y-133537142D01*
X60820952Y-133489523D01*
X60868571Y-133441904D01*
X60916190Y-133346666D01*
X60916190Y-132965714D01*
X61392380Y-134489523D02*
X61392380Y-133918095D01*
X61392380Y-134203809D02*
X60392380Y-134203809D01*
X60535238Y-134108571D01*
X60630476Y-134013333D01*
X60678095Y-133918095D01*
X60392380Y-135346666D02*
X60392380Y-135156190D01*
X60440000Y-135060952D01*
X60487619Y-135013333D01*
X60630476Y-134918095D01*
X60820952Y-134870476D01*
X61201904Y-134870476D01*
X61297142Y-134918095D01*
X61344761Y-134965714D01*
X61392380Y-135060952D01*
X61392380Y-135251428D01*
X61344761Y-135346666D01*
X61297142Y-135394285D01*
X61201904Y-135441904D01*
X60963809Y-135441904D01*
X60868571Y-135394285D01*
X60820952Y-135346666D01*
X60773333Y-135251428D01*
X60773333Y-135060952D01*
X60820952Y-134965714D01*
X60868571Y-134918095D01*
X60963809Y-134870476D01*
X82382857Y-88767142D02*
X82430476Y-88814761D01*
X82573333Y-88862380D01*
X82668571Y-88862380D01*
X82811428Y-88814761D01*
X82906666Y-88719523D01*
X82954285Y-88624285D01*
X83001904Y-88433809D01*
X83001904Y-88290952D01*
X82954285Y-88100476D01*
X82906666Y-88005238D01*
X82811428Y-87910000D01*
X82668571Y-87862380D01*
X82573333Y-87862380D01*
X82430476Y-87910000D01*
X82382857Y-87957619D01*
X82001904Y-87957619D02*
X81954285Y-87910000D01*
X81859047Y-87862380D01*
X81620952Y-87862380D01*
X81525714Y-87910000D01*
X81478095Y-87957619D01*
X81430476Y-88052857D01*
X81430476Y-88148095D01*
X81478095Y-88290952D01*
X82049523Y-88862380D01*
X81430476Y-88862380D01*
X80811428Y-87862380D02*
X80716190Y-87862380D01*
X80620952Y-87910000D01*
X80573333Y-87957619D01*
X80525714Y-88052857D01*
X80478095Y-88243333D01*
X80478095Y-88481428D01*
X80525714Y-88671904D01*
X80573333Y-88767142D01*
X80620952Y-88814761D01*
X80716190Y-88862380D01*
X80811428Y-88862380D01*
X80906666Y-88814761D01*
X80954285Y-88767142D01*
X81001904Y-88671904D01*
X81049523Y-88481428D01*
X81049523Y-88243333D01*
X81001904Y-88052857D01*
X80954285Y-87957619D01*
X80906666Y-87910000D01*
X80811428Y-87862380D01*
X95145357Y-95167142D02*
X95192976Y-95214761D01*
X95335833Y-95262380D01*
X95431071Y-95262380D01*
X95573928Y-95214761D01*
X95669166Y-95119523D01*
X95716785Y-95024285D01*
X95764404Y-94833809D01*
X95764404Y-94690952D01*
X95716785Y-94500476D01*
X95669166Y-94405238D01*
X95573928Y-94310000D01*
X95431071Y-94262380D01*
X95335833Y-94262380D01*
X95192976Y-94310000D01*
X95145357Y-94357619D01*
X94764404Y-94357619D02*
X94716785Y-94310000D01*
X94621547Y-94262380D01*
X94383452Y-94262380D01*
X94288214Y-94310000D01*
X94240595Y-94357619D01*
X94192976Y-94452857D01*
X94192976Y-94548095D01*
X94240595Y-94690952D01*
X94812023Y-95262380D01*
X94192976Y-95262380D01*
X93859642Y-94262380D02*
X93192976Y-94262380D01*
X93621547Y-95262380D01*
X75492380Y-133513333D02*
X75016190Y-133180000D01*
X75492380Y-132941904D02*
X74492380Y-132941904D01*
X74492380Y-133322857D01*
X74540000Y-133418095D01*
X74587619Y-133465714D01*
X74682857Y-133513333D01*
X74825714Y-133513333D01*
X74920952Y-133465714D01*
X74968571Y-133418095D01*
X75016190Y-133322857D01*
X75016190Y-132941904D01*
X74492380Y-133846666D02*
X74492380Y-134513333D01*
X75492380Y-134084761D01*
X99245357Y-59637142D02*
X99292976Y-59684761D01*
X99435833Y-59732380D01*
X99531071Y-59732380D01*
X99673928Y-59684761D01*
X99769166Y-59589523D01*
X99816785Y-59494285D01*
X99864404Y-59303809D01*
X99864404Y-59160952D01*
X99816785Y-58970476D01*
X99769166Y-58875238D01*
X99673928Y-58780000D01*
X99531071Y-58732380D01*
X99435833Y-58732380D01*
X99292976Y-58780000D01*
X99245357Y-58827619D01*
X98864404Y-58827619D02*
X98816785Y-58780000D01*
X98721547Y-58732380D01*
X98483452Y-58732380D01*
X98388214Y-58780000D01*
X98340595Y-58827619D01*
X98292976Y-58922857D01*
X98292976Y-59018095D01*
X98340595Y-59160952D01*
X98912023Y-59732380D01*
X98292976Y-59732380D01*
X97816785Y-59732380D02*
X97626309Y-59732380D01*
X97531071Y-59684761D01*
X97483452Y-59637142D01*
X97388214Y-59494285D01*
X97340595Y-59303809D01*
X97340595Y-58922857D01*
X97388214Y-58827619D01*
X97435833Y-58780000D01*
X97531071Y-58732380D01*
X97721547Y-58732380D01*
X97816785Y-58780000D01*
X97864404Y-58827619D01*
X97912023Y-58922857D01*
X97912023Y-59160952D01*
X97864404Y-59256190D01*
X97816785Y-59303809D01*
X97721547Y-59351428D01*
X97531071Y-59351428D01*
X97435833Y-59303809D01*
X97388214Y-59256190D01*
X97340595Y-59160952D01*
X65603333Y-47482380D02*
X65603333Y-48196666D01*
X65650952Y-48339523D01*
X65746190Y-48434761D01*
X65889047Y-48482380D01*
X65984285Y-48482380D01*
X65127142Y-48482380D02*
X65127142Y-47482380D01*
X64746190Y-47482380D01*
X64650952Y-47530000D01*
X64603333Y-47577619D01*
X64555714Y-47672857D01*
X64555714Y-47815714D01*
X64603333Y-47910952D01*
X64650952Y-47958571D01*
X64746190Y-48006190D01*
X65127142Y-48006190D01*
X64174761Y-47577619D02*
X64127142Y-47530000D01*
X64031904Y-47482380D01*
X63793809Y-47482380D01*
X63698571Y-47530000D01*
X63650952Y-47577619D01*
X63603333Y-47672857D01*
X63603333Y-47768095D01*
X63650952Y-47910952D01*
X64222380Y-48482380D01*
X63603333Y-48482380D01*
X58192380Y-134837142D02*
X57716190Y-134503809D01*
X58192380Y-134265714D02*
X57192380Y-134265714D01*
X57192380Y-134646666D01*
X57240000Y-134741904D01*
X57287619Y-134789523D01*
X57382857Y-134837142D01*
X57525714Y-134837142D01*
X57620952Y-134789523D01*
X57668571Y-134741904D01*
X57716190Y-134646666D01*
X57716190Y-134265714D01*
X58192380Y-135789523D02*
X58192380Y-135218095D01*
X58192380Y-135503809D02*
X57192380Y-135503809D01*
X57335238Y-135408571D01*
X57430476Y-135313333D01*
X57478095Y-135218095D01*
X57620952Y-136360952D02*
X57573333Y-136265714D01*
X57525714Y-136218095D01*
X57430476Y-136170476D01*
X57382857Y-136170476D01*
X57287619Y-136218095D01*
X57240000Y-136265714D01*
X57192380Y-136360952D01*
X57192380Y-136551428D01*
X57240000Y-136646666D01*
X57287619Y-136694285D01*
X57382857Y-136741904D01*
X57430476Y-136741904D01*
X57525714Y-136694285D01*
X57573333Y-136646666D01*
X57620952Y-136551428D01*
X57620952Y-136360952D01*
X57668571Y-136265714D01*
X57716190Y-136218095D01*
X57811428Y-136170476D01*
X58001904Y-136170476D01*
X58097142Y-136218095D01*
X58144761Y-136265714D01*
X58192380Y-136360952D01*
X58192380Y-136551428D01*
X58144761Y-136646666D01*
X58097142Y-136694285D01*
X58001904Y-136741904D01*
X57811428Y-136741904D01*
X57716190Y-136694285D01*
X57668571Y-136646666D01*
X57620952Y-136551428D01*
X111799090Y-53697142D02*
X111846709Y-53744761D01*
X111989566Y-53792380D01*
X112084804Y-53792380D01*
X112227661Y-53744761D01*
X112322899Y-53649523D01*
X112370518Y-53554285D01*
X112418137Y-53363809D01*
X112418137Y-53220952D01*
X112370518Y-53030476D01*
X112322899Y-52935238D01*
X112227661Y-52840000D01*
X112084804Y-52792380D01*
X111989566Y-52792380D01*
X111846709Y-52840000D01*
X111799090Y-52887619D01*
X111418137Y-52887619D02*
X111370518Y-52840000D01*
X111275280Y-52792380D01*
X111037185Y-52792380D01*
X110941947Y-52840000D01*
X110894328Y-52887619D01*
X110846709Y-52982857D01*
X110846709Y-53078095D01*
X110894328Y-53220952D01*
X111465756Y-53792380D01*
X110846709Y-53792380D01*
X110465756Y-52887619D02*
X110418137Y-52840000D01*
X110322899Y-52792380D01*
X110084804Y-52792380D01*
X109989566Y-52840000D01*
X109941947Y-52887619D01*
X109894328Y-52982857D01*
X109894328Y-53078095D01*
X109941947Y-53220952D01*
X110513375Y-53792380D01*
X109894328Y-53792380D01*
X67092380Y-133437142D02*
X66616190Y-133103809D01*
X67092380Y-132865714D02*
X66092380Y-132865714D01*
X66092380Y-133246666D01*
X66140000Y-133341904D01*
X66187619Y-133389523D01*
X66282857Y-133437142D01*
X66425714Y-133437142D01*
X66520952Y-133389523D01*
X66568571Y-133341904D01*
X66616190Y-133246666D01*
X66616190Y-132865714D01*
X67092380Y-134389523D02*
X67092380Y-133818095D01*
X67092380Y-134103809D02*
X66092380Y-134103809D01*
X66235238Y-134008571D01*
X66330476Y-133913333D01*
X66378095Y-133818095D01*
X66425714Y-135246666D02*
X67092380Y-135246666D01*
X66044761Y-135008571D02*
X66759047Y-134770476D01*
X66759047Y-135389523D01*
X52119166Y-84432380D02*
X52452500Y-83956190D01*
X52690595Y-84432380D02*
X52690595Y-83432380D01*
X52309642Y-83432380D01*
X52214404Y-83480000D01*
X52166785Y-83527619D01*
X52119166Y-83622857D01*
X52119166Y-83765714D01*
X52166785Y-83860952D01*
X52214404Y-83908571D01*
X52309642Y-83956190D01*
X52690595Y-83956190D01*
X51738214Y-83527619D02*
X51690595Y-83480000D01*
X51595357Y-83432380D01*
X51357261Y-83432380D01*
X51262023Y-83480000D01*
X51214404Y-83527619D01*
X51166785Y-83622857D01*
X51166785Y-83718095D01*
X51214404Y-83860952D01*
X51785833Y-84432380D01*
X51166785Y-84432380D01*
X69706666Y-99832380D02*
X70040000Y-99356190D01*
X70278095Y-99832380D02*
X70278095Y-98832380D01*
X69897142Y-98832380D01*
X69801904Y-98880000D01*
X69754285Y-98927619D01*
X69706666Y-99022857D01*
X69706666Y-99165714D01*
X69754285Y-99260952D01*
X69801904Y-99308571D01*
X69897142Y-99356190D01*
X70278095Y-99356190D01*
X69373333Y-98832380D02*
X68754285Y-98832380D01*
X69087619Y-99213333D01*
X68944761Y-99213333D01*
X68849523Y-99260952D01*
X68801904Y-99308571D01*
X68754285Y-99403809D01*
X68754285Y-99641904D01*
X68801904Y-99737142D01*
X68849523Y-99784761D01*
X68944761Y-99832380D01*
X69230476Y-99832380D01*
X69325714Y-99784761D01*
X69373333Y-99737142D01*
X70992380Y-134637142D02*
X70516190Y-134303809D01*
X70992380Y-134065714D02*
X69992380Y-134065714D01*
X69992380Y-134446666D01*
X70040000Y-134541904D01*
X70087619Y-134589523D01*
X70182857Y-134637142D01*
X70325714Y-134637142D01*
X70420952Y-134589523D01*
X70468571Y-134541904D01*
X70516190Y-134446666D01*
X70516190Y-134065714D01*
X70992380Y-135589523D02*
X70992380Y-135018095D01*
X70992380Y-135303809D02*
X69992380Y-135303809D01*
X70135238Y-135208571D01*
X70230476Y-135113333D01*
X70278095Y-135018095D01*
X69992380Y-136208571D02*
X69992380Y-136303809D01*
X70040000Y-136399047D01*
X70087619Y-136446666D01*
X70182857Y-136494285D01*
X70373333Y-136541904D01*
X70611428Y-136541904D01*
X70801904Y-136494285D01*
X70897142Y-136446666D01*
X70944761Y-136399047D01*
X70992380Y-136303809D01*
X70992380Y-136208571D01*
X70944761Y-136113333D01*
X70897142Y-136065714D01*
X70801904Y-136018095D01*
X70611428Y-135970476D01*
X70373333Y-135970476D01*
X70182857Y-136018095D01*
X70087619Y-136065714D01*
X70040000Y-136113333D01*
X69992380Y-136208571D01*
X94569166Y-50937142D02*
X94616785Y-50984761D01*
X94759642Y-51032380D01*
X94854880Y-51032380D01*
X94997738Y-50984761D01*
X95092976Y-50889523D01*
X95140595Y-50794285D01*
X95188214Y-50603809D01*
X95188214Y-50460952D01*
X95140595Y-50270476D01*
X95092976Y-50175238D01*
X94997738Y-50080000D01*
X94854880Y-50032380D01*
X94759642Y-50032380D01*
X94616785Y-50080000D01*
X94569166Y-50127619D01*
X94092976Y-51032380D02*
X93902500Y-51032380D01*
X93807261Y-50984761D01*
X93759642Y-50937142D01*
X93664404Y-50794285D01*
X93616785Y-50603809D01*
X93616785Y-50222857D01*
X93664404Y-50127619D01*
X93712023Y-50080000D01*
X93807261Y-50032380D01*
X93997738Y-50032380D01*
X94092976Y-50080000D01*
X94140595Y-50127619D01*
X94188214Y-50222857D01*
X94188214Y-50460952D01*
X94140595Y-50556190D01*
X94092976Y-50603809D01*
X93997738Y-50651428D01*
X93807261Y-50651428D01*
X93712023Y-50603809D01*
X93664404Y-50556190D01*
X93616785Y-50460952D01*
X87527142Y-125874642D02*
X87574761Y-125827023D01*
X87622380Y-125684166D01*
X87622380Y-125588928D01*
X87574761Y-125446071D01*
X87479523Y-125350833D01*
X87384285Y-125303214D01*
X87193809Y-125255595D01*
X87050952Y-125255595D01*
X86860476Y-125303214D01*
X86765238Y-125350833D01*
X86670000Y-125446071D01*
X86622380Y-125588928D01*
X86622380Y-125684166D01*
X86670000Y-125827023D01*
X86717619Y-125874642D01*
X86717619Y-126255595D02*
X86670000Y-126303214D01*
X86622380Y-126398452D01*
X86622380Y-126636547D01*
X86670000Y-126731785D01*
X86717619Y-126779404D01*
X86812857Y-126827023D01*
X86908095Y-126827023D01*
X87050952Y-126779404D01*
X87622380Y-126207976D01*
X87622380Y-126827023D01*
X87622380Y-127779404D02*
X87622380Y-127207976D01*
X87622380Y-127493690D02*
X86622380Y-127493690D01*
X86765238Y-127398452D01*
X86860476Y-127303214D01*
X86908095Y-127207976D01*
X124449523Y-55332380D02*
X124449523Y-56046666D01*
X124497142Y-56189523D01*
X124592380Y-56284761D01*
X124735238Y-56332380D01*
X124830476Y-56332380D01*
X124020952Y-55427619D02*
X123973333Y-55380000D01*
X123878095Y-55332380D01*
X123640000Y-55332380D01*
X123544761Y-55380000D01*
X123497142Y-55427619D01*
X123449523Y-55522857D01*
X123449523Y-55618095D01*
X123497142Y-55760952D01*
X124068571Y-56332380D01*
X123449523Y-56332380D01*
X122592380Y-55665714D02*
X122592380Y-56332380D01*
X122830476Y-55284761D02*
X123068571Y-55999047D01*
X122449523Y-55999047D01*
X99074090Y-95237142D02*
X99121709Y-95284761D01*
X99264566Y-95332380D01*
X99359804Y-95332380D01*
X99502661Y-95284761D01*
X99597899Y-95189523D01*
X99645518Y-95094285D01*
X99693137Y-94903809D01*
X99693137Y-94760952D01*
X99645518Y-94570476D01*
X99597899Y-94475238D01*
X99502661Y-94380000D01*
X99359804Y-94332380D01*
X99264566Y-94332380D01*
X99121709Y-94380000D01*
X99074090Y-94427619D01*
X98740756Y-94332380D02*
X98121709Y-94332380D01*
X98455042Y-94713333D01*
X98312185Y-94713333D01*
X98216947Y-94760952D01*
X98169328Y-94808571D01*
X98121709Y-94903809D01*
X98121709Y-95141904D01*
X98169328Y-95237142D01*
X98216947Y-95284761D01*
X98312185Y-95332380D01*
X98597899Y-95332380D01*
X98693137Y-95284761D01*
X98740756Y-95237142D01*
X97169328Y-95332380D02*
X97740756Y-95332380D01*
X97455042Y-95332380D02*
X97455042Y-94332380D01*
X97550280Y-94475238D01*
X97645518Y-94570476D01*
X97740756Y-94618095D01*
X95030357Y-59567142D02*
X95077976Y-59614761D01*
X95220833Y-59662380D01*
X95316071Y-59662380D01*
X95458928Y-59614761D01*
X95554166Y-59519523D01*
X95601785Y-59424285D01*
X95649404Y-59233809D01*
X95649404Y-59090952D01*
X95601785Y-58900476D01*
X95554166Y-58805238D01*
X95458928Y-58710000D01*
X95316071Y-58662380D01*
X95220833Y-58662380D01*
X95077976Y-58710000D01*
X95030357Y-58757619D01*
X94649404Y-58757619D02*
X94601785Y-58710000D01*
X94506547Y-58662380D01*
X94268452Y-58662380D01*
X94173214Y-58710000D01*
X94125595Y-58757619D01*
X94077976Y-58852857D01*
X94077976Y-58948095D01*
X94125595Y-59090952D01*
X94697023Y-59662380D01*
X94077976Y-59662380D01*
X93173214Y-58662380D02*
X93649404Y-58662380D01*
X93697023Y-59138571D01*
X93649404Y-59090952D01*
X93554166Y-59043333D01*
X93316071Y-59043333D01*
X93220833Y-59090952D01*
X93173214Y-59138571D01*
X93125595Y-59233809D01*
X93125595Y-59471904D01*
X93173214Y-59567142D01*
X93220833Y-59614761D01*
X93316071Y-59662380D01*
X93554166Y-59662380D01*
X93649404Y-59614761D01*
X93697023Y-59567142D01*
X111569166Y-48237142D02*
X111616785Y-48284761D01*
X111759642Y-48332380D01*
X111854880Y-48332380D01*
X111997738Y-48284761D01*
X112092976Y-48189523D01*
X112140595Y-48094285D01*
X112188214Y-47903809D01*
X112188214Y-47760952D01*
X112140595Y-47570476D01*
X112092976Y-47475238D01*
X111997738Y-47380000D01*
X111854880Y-47332380D01*
X111759642Y-47332380D01*
X111616785Y-47380000D01*
X111569166Y-47427619D01*
X110664404Y-47332380D02*
X111140595Y-47332380D01*
X111188214Y-47808571D01*
X111140595Y-47760952D01*
X111045357Y-47713333D01*
X110807261Y-47713333D01*
X110712023Y-47760952D01*
X110664404Y-47808571D01*
X110616785Y-47903809D01*
X110616785Y-48141904D01*
X110664404Y-48237142D01*
X110712023Y-48284761D01*
X110807261Y-48332380D01*
X111045357Y-48332380D01*
X111140595Y-48284761D01*
X111188214Y-48237142D01*
X94767142Y-121699642D02*
X94814761Y-121652023D01*
X94862380Y-121509166D01*
X94862380Y-121413928D01*
X94814761Y-121271071D01*
X94719523Y-121175833D01*
X94624285Y-121128214D01*
X94433809Y-121080595D01*
X94290952Y-121080595D01*
X94100476Y-121128214D01*
X94005238Y-121175833D01*
X93910000Y-121271071D01*
X93862380Y-121413928D01*
X93862380Y-121509166D01*
X93910000Y-121652023D01*
X93957619Y-121699642D01*
X93957619Y-122080595D02*
X93910000Y-122128214D01*
X93862380Y-122223452D01*
X93862380Y-122461547D01*
X93910000Y-122556785D01*
X93957619Y-122604404D01*
X94052857Y-122652023D01*
X94148095Y-122652023D01*
X94290952Y-122604404D01*
X94862380Y-122032976D01*
X94862380Y-122652023D01*
X94290952Y-123223452D02*
X94243333Y-123128214D01*
X94195714Y-123080595D01*
X94100476Y-123032976D01*
X94052857Y-123032976D01*
X93957619Y-123080595D01*
X93910000Y-123128214D01*
X93862380Y-123223452D01*
X93862380Y-123413928D01*
X93910000Y-123509166D01*
X93957619Y-123556785D01*
X94052857Y-123604404D01*
X94100476Y-123604404D01*
X94195714Y-123556785D01*
X94243333Y-123509166D01*
X94290952Y-123413928D01*
X94290952Y-123223452D01*
X94338571Y-123128214D01*
X94386190Y-123080595D01*
X94481428Y-123032976D01*
X94671904Y-123032976D01*
X94767142Y-123080595D01*
X94814761Y-123128214D01*
X94862380Y-123223452D01*
X94862380Y-123413928D01*
X94814761Y-123509166D01*
X94767142Y-123556785D01*
X94671904Y-123604404D01*
X94481428Y-123604404D01*
X94386190Y-123556785D01*
X94338571Y-123509166D01*
X94290952Y-123413928D01*
X94797142Y-125874642D02*
X94844761Y-125827023D01*
X94892380Y-125684166D01*
X94892380Y-125588928D01*
X94844761Y-125446071D01*
X94749523Y-125350833D01*
X94654285Y-125303214D01*
X94463809Y-125255595D01*
X94320952Y-125255595D01*
X94130476Y-125303214D01*
X94035238Y-125350833D01*
X93940000Y-125446071D01*
X93892380Y-125588928D01*
X93892380Y-125684166D01*
X93940000Y-125827023D01*
X93987619Y-125874642D01*
X93892380Y-126207976D02*
X93892380Y-126827023D01*
X94273333Y-126493690D01*
X94273333Y-126636547D01*
X94320952Y-126731785D01*
X94368571Y-126779404D01*
X94463809Y-126827023D01*
X94701904Y-126827023D01*
X94797142Y-126779404D01*
X94844761Y-126731785D01*
X94892380Y-126636547D01*
X94892380Y-126350833D01*
X94844761Y-126255595D01*
X94797142Y-126207976D01*
X93892380Y-127160357D02*
X93892380Y-127779404D01*
X94273333Y-127446071D01*
X94273333Y-127588928D01*
X94320952Y-127684166D01*
X94368571Y-127731785D01*
X94463809Y-127779404D01*
X94701904Y-127779404D01*
X94797142Y-127731785D01*
X94844761Y-127684166D01*
X94892380Y-127588928D01*
X94892380Y-127303214D01*
X94844761Y-127207976D01*
X94797142Y-127160357D01*
X53782857Y-110532380D02*
X54116190Y-110056190D01*
X54354285Y-110532380D02*
X54354285Y-109532380D01*
X53973333Y-109532380D01*
X53878095Y-109580000D01*
X53830476Y-109627619D01*
X53782857Y-109722857D01*
X53782857Y-109865714D01*
X53830476Y-109960952D01*
X53878095Y-110008571D01*
X53973333Y-110056190D01*
X54354285Y-110056190D01*
X53401904Y-109627619D02*
X53354285Y-109580000D01*
X53259047Y-109532380D01*
X53020952Y-109532380D01*
X52925714Y-109580000D01*
X52878095Y-109627619D01*
X52830476Y-109722857D01*
X52830476Y-109818095D01*
X52878095Y-109960952D01*
X53449523Y-110532380D01*
X52830476Y-110532380D01*
X52497142Y-109532380D02*
X51878095Y-109532380D01*
X52211428Y-109913333D01*
X52068571Y-109913333D01*
X51973333Y-109960952D01*
X51925714Y-110008571D01*
X51878095Y-110103809D01*
X51878095Y-110341904D01*
X51925714Y-110437142D01*
X51973333Y-110484761D01*
X52068571Y-110532380D01*
X52354285Y-110532380D01*
X52449523Y-110484761D01*
X52497142Y-110437142D01*
X95145357Y-104067142D02*
X95192976Y-104114761D01*
X95335833Y-104162380D01*
X95431071Y-104162380D01*
X95573928Y-104114761D01*
X95669166Y-104019523D01*
X95716785Y-103924285D01*
X95764404Y-103733809D01*
X95764404Y-103590952D01*
X95716785Y-103400476D01*
X95669166Y-103305238D01*
X95573928Y-103210000D01*
X95431071Y-103162380D01*
X95335833Y-103162380D01*
X95192976Y-103210000D01*
X95145357Y-103257619D01*
X94192976Y-104162380D02*
X94764404Y-104162380D01*
X94478690Y-104162380D02*
X94478690Y-103162380D01*
X94573928Y-103305238D01*
X94669166Y-103400476D01*
X94764404Y-103448095D01*
X93812023Y-103257619D02*
X93764404Y-103210000D01*
X93669166Y-103162380D01*
X93431071Y-103162380D01*
X93335833Y-103210000D01*
X93288214Y-103257619D01*
X93240595Y-103352857D01*
X93240595Y-103448095D01*
X93288214Y-103590952D01*
X93859642Y-104162380D01*
X93240595Y-104162380D01*
X56097142Y-123637142D02*
X56144761Y-123589523D01*
X56192380Y-123446666D01*
X56192380Y-123351428D01*
X56144761Y-123208571D01*
X56049523Y-123113333D01*
X55954285Y-123065714D01*
X55763809Y-123018095D01*
X55620952Y-123018095D01*
X55430476Y-123065714D01*
X55335238Y-123113333D01*
X55240000Y-123208571D01*
X55192380Y-123351428D01*
X55192380Y-123446666D01*
X55240000Y-123589523D01*
X55287619Y-123637142D01*
X55192380Y-123970476D02*
X55192380Y-124589523D01*
X55573333Y-124256190D01*
X55573333Y-124399047D01*
X55620952Y-124494285D01*
X55668571Y-124541904D01*
X55763809Y-124589523D01*
X56001904Y-124589523D01*
X56097142Y-124541904D01*
X56144761Y-124494285D01*
X56192380Y-124399047D01*
X56192380Y-124113333D01*
X56144761Y-124018095D01*
X56097142Y-123970476D01*
X55192380Y-125446666D02*
X55192380Y-125256190D01*
X55240000Y-125160952D01*
X55287619Y-125113333D01*
X55430476Y-125018095D01*
X55620952Y-124970476D01*
X56001904Y-124970476D01*
X56097142Y-125018095D01*
X56144761Y-125065714D01*
X56192380Y-125160952D01*
X56192380Y-125351428D01*
X56144761Y-125446666D01*
X56097142Y-125494285D01*
X56001904Y-125541904D01*
X55763809Y-125541904D01*
X55668571Y-125494285D01*
X55620952Y-125446666D01*
X55573333Y-125351428D01*
X55573333Y-125160952D01*
X55620952Y-125065714D01*
X55668571Y-125018095D01*
X55763809Y-124970476D01*
X86044166Y-97737142D02*
X86091785Y-97784761D01*
X86234642Y-97832380D01*
X86329880Y-97832380D01*
X86472738Y-97784761D01*
X86567976Y-97689523D01*
X86615595Y-97594285D01*
X86663214Y-97403809D01*
X86663214Y-97260952D01*
X86615595Y-97070476D01*
X86567976Y-96975238D01*
X86472738Y-96880000D01*
X86329880Y-96832380D01*
X86234642Y-96832380D01*
X86091785Y-96880000D01*
X86044166Y-96927619D01*
X85472738Y-97260952D02*
X85567976Y-97213333D01*
X85615595Y-97165714D01*
X85663214Y-97070476D01*
X85663214Y-97022857D01*
X85615595Y-96927619D01*
X85567976Y-96880000D01*
X85472738Y-96832380D01*
X85282261Y-96832380D01*
X85187023Y-96880000D01*
X85139404Y-96927619D01*
X85091785Y-97022857D01*
X85091785Y-97070476D01*
X85139404Y-97165714D01*
X85187023Y-97213333D01*
X85282261Y-97260952D01*
X85472738Y-97260952D01*
X85567976Y-97308571D01*
X85615595Y-97356190D01*
X85663214Y-97451428D01*
X85663214Y-97641904D01*
X85615595Y-97737142D01*
X85567976Y-97784761D01*
X85472738Y-97832380D01*
X85282261Y-97832380D01*
X85187023Y-97784761D01*
X85139404Y-97737142D01*
X85091785Y-97641904D01*
X85091785Y-97451428D01*
X85139404Y-97356190D01*
X85187023Y-97308571D01*
X85282261Y-97260952D01*
X99282857Y-86337142D02*
X99330476Y-86384761D01*
X99473333Y-86432380D01*
X99568571Y-86432380D01*
X99711428Y-86384761D01*
X99806666Y-86289523D01*
X99854285Y-86194285D01*
X99901904Y-86003809D01*
X99901904Y-85860952D01*
X99854285Y-85670476D01*
X99806666Y-85575238D01*
X99711428Y-85480000D01*
X99568571Y-85432380D01*
X99473333Y-85432380D01*
X99330476Y-85480000D01*
X99282857Y-85527619D01*
X98330476Y-86432380D02*
X98901904Y-86432380D01*
X98616190Y-86432380D02*
X98616190Y-85432380D01*
X98711428Y-85575238D01*
X98806666Y-85670476D01*
X98901904Y-85718095D01*
X97473333Y-85432380D02*
X97663809Y-85432380D01*
X97759047Y-85480000D01*
X97806666Y-85527619D01*
X97901904Y-85670476D01*
X97949523Y-85860952D01*
X97949523Y-86241904D01*
X97901904Y-86337142D01*
X97854285Y-86384761D01*
X97759047Y-86432380D01*
X97568571Y-86432380D01*
X97473333Y-86384761D01*
X97425714Y-86337142D01*
X97378095Y-86241904D01*
X97378095Y-86003809D01*
X97425714Y-85908571D01*
X97473333Y-85860952D01*
X97568571Y-85813333D01*
X97759047Y-85813333D01*
X97854285Y-85860952D01*
X97901904Y-85908571D01*
X97949523Y-86003809D01*
X99282857Y-77437142D02*
X99330476Y-77484761D01*
X99473333Y-77532380D01*
X99568571Y-77532380D01*
X99711428Y-77484761D01*
X99806666Y-77389523D01*
X99854285Y-77294285D01*
X99901904Y-77103809D01*
X99901904Y-76960952D01*
X99854285Y-76770476D01*
X99806666Y-76675238D01*
X99711428Y-76580000D01*
X99568571Y-76532380D01*
X99473333Y-76532380D01*
X99330476Y-76580000D01*
X99282857Y-76627619D01*
X98949523Y-76532380D02*
X98330476Y-76532380D01*
X98663809Y-76913333D01*
X98520952Y-76913333D01*
X98425714Y-76960952D01*
X98378095Y-77008571D01*
X98330476Y-77103809D01*
X98330476Y-77341904D01*
X98378095Y-77437142D01*
X98425714Y-77484761D01*
X98520952Y-77532380D01*
X98806666Y-77532380D01*
X98901904Y-77484761D01*
X98949523Y-77437142D01*
X97711428Y-76532380D02*
X97616190Y-76532380D01*
X97520952Y-76580000D01*
X97473333Y-76627619D01*
X97425714Y-76722857D01*
X97378095Y-76913333D01*
X97378095Y-77151428D01*
X97425714Y-77341904D01*
X97473333Y-77437142D01*
X97520952Y-77484761D01*
X97616190Y-77532380D01*
X97711428Y-77532380D01*
X97806666Y-77484761D01*
X97854285Y-77437142D01*
X97901904Y-77341904D01*
X97949523Y-77151428D01*
X97949523Y-76913333D01*
X97901904Y-76722857D01*
X97854285Y-76627619D01*
X97806666Y-76580000D01*
X97711428Y-76532380D01*
X72506666Y-99832380D02*
X72840000Y-99356190D01*
X73078095Y-99832380D02*
X73078095Y-98832380D01*
X72697142Y-98832380D01*
X72601904Y-98880000D01*
X72554285Y-98927619D01*
X72506666Y-99022857D01*
X72506666Y-99165714D01*
X72554285Y-99260952D01*
X72601904Y-99308571D01*
X72697142Y-99356190D01*
X73078095Y-99356190D01*
X71649523Y-99165714D02*
X71649523Y-99832380D01*
X71887619Y-98784761D02*
X72125714Y-99499047D01*
X71506666Y-99499047D01*
X86069166Y-62137142D02*
X86116785Y-62184761D01*
X86259642Y-62232380D01*
X86354880Y-62232380D01*
X86497738Y-62184761D01*
X86592976Y-62089523D01*
X86640595Y-61994285D01*
X86688214Y-61803809D01*
X86688214Y-61660952D01*
X86640595Y-61470476D01*
X86592976Y-61375238D01*
X86497738Y-61280000D01*
X86354880Y-61232380D01*
X86259642Y-61232380D01*
X86116785Y-61280000D01*
X86069166Y-61327619D01*
X85212023Y-61232380D02*
X85402500Y-61232380D01*
X85497738Y-61280000D01*
X85545357Y-61327619D01*
X85640595Y-61470476D01*
X85688214Y-61660952D01*
X85688214Y-62041904D01*
X85640595Y-62137142D01*
X85592976Y-62184761D01*
X85497738Y-62232380D01*
X85307261Y-62232380D01*
X85212023Y-62184761D01*
X85164404Y-62137142D01*
X85116785Y-62041904D01*
X85116785Y-61803809D01*
X85164404Y-61708571D01*
X85212023Y-61660952D01*
X85307261Y-61613333D01*
X85497738Y-61613333D01*
X85592976Y-61660952D01*
X85640595Y-61708571D01*
X85688214Y-61803809D01*
X68597142Y-123683409D02*
X68644761Y-123635790D01*
X68692380Y-123492933D01*
X68692380Y-123397695D01*
X68644761Y-123254838D01*
X68549523Y-123159600D01*
X68454285Y-123111981D01*
X68263809Y-123064362D01*
X68120952Y-123064362D01*
X67930476Y-123111981D01*
X67835238Y-123159600D01*
X67740000Y-123254838D01*
X67692380Y-123397695D01*
X67692380Y-123492933D01*
X67740000Y-123635790D01*
X67787619Y-123683409D01*
X67692380Y-124016743D02*
X67692380Y-124635790D01*
X68073333Y-124302457D01*
X68073333Y-124445314D01*
X68120952Y-124540552D01*
X68168571Y-124588171D01*
X68263809Y-124635790D01*
X68501904Y-124635790D01*
X68597142Y-124588171D01*
X68644761Y-124540552D01*
X68692380Y-124445314D01*
X68692380Y-124159600D01*
X68644761Y-124064362D01*
X68597142Y-124016743D01*
X67692380Y-125540552D02*
X67692380Y-125064362D01*
X68168571Y-125016743D01*
X68120952Y-125064362D01*
X68073333Y-125159600D01*
X68073333Y-125397695D01*
X68120952Y-125492933D01*
X68168571Y-125540552D01*
X68263809Y-125588171D01*
X68501904Y-125588171D01*
X68597142Y-125540552D01*
X68644761Y-125492933D01*
X68692380Y-125397695D01*
X68692380Y-125159600D01*
X68644761Y-125064362D01*
X68597142Y-125016743D01*
X86545357Y-71037142D02*
X86592976Y-71084761D01*
X86735833Y-71132380D01*
X86831071Y-71132380D01*
X86973928Y-71084761D01*
X87069166Y-70989523D01*
X87116785Y-70894285D01*
X87164404Y-70703809D01*
X87164404Y-70560952D01*
X87116785Y-70370476D01*
X87069166Y-70275238D01*
X86973928Y-70180000D01*
X86831071Y-70132380D01*
X86735833Y-70132380D01*
X86592976Y-70180000D01*
X86545357Y-70227619D01*
X86164404Y-70227619D02*
X86116785Y-70180000D01*
X86021547Y-70132380D01*
X85783452Y-70132380D01*
X85688214Y-70180000D01*
X85640595Y-70227619D01*
X85592976Y-70322857D01*
X85592976Y-70418095D01*
X85640595Y-70560952D01*
X86212023Y-71132380D01*
X85592976Y-71132380D01*
X85259642Y-70132380D02*
X84640595Y-70132380D01*
X84973928Y-70513333D01*
X84831071Y-70513333D01*
X84735833Y-70560952D01*
X84688214Y-70608571D01*
X84640595Y-70703809D01*
X84640595Y-70941904D01*
X84688214Y-71037142D01*
X84735833Y-71084761D01*
X84831071Y-71132380D01*
X85116785Y-71132380D01*
X85212023Y-71084761D01*
X85259642Y-71037142D01*
X133582857Y-54037142D02*
X133630476Y-54084761D01*
X133773333Y-54132380D01*
X133868571Y-54132380D01*
X134011428Y-54084761D01*
X134106666Y-53989523D01*
X134154285Y-53894285D01*
X134201904Y-53703809D01*
X134201904Y-53560952D01*
X134154285Y-53370476D01*
X134106666Y-53275238D01*
X134011428Y-53180000D01*
X133868571Y-53132380D01*
X133773333Y-53132380D01*
X133630476Y-53180000D01*
X133582857Y-53227619D01*
X133249523Y-53132380D02*
X132630476Y-53132380D01*
X132963809Y-53513333D01*
X132820952Y-53513333D01*
X132725714Y-53560952D01*
X132678095Y-53608571D01*
X132630476Y-53703809D01*
X132630476Y-53941904D01*
X132678095Y-54037142D01*
X132725714Y-54084761D01*
X132820952Y-54132380D01*
X133106666Y-54132380D01*
X133201904Y-54084761D01*
X133249523Y-54037142D01*
X131773333Y-53465714D02*
X131773333Y-54132380D01*
X132011428Y-53084761D02*
X132249523Y-53799047D01*
X131630476Y-53799047D01*
X50482857Y-102232380D02*
X50816190Y-101756190D01*
X51054285Y-102232380D02*
X51054285Y-101232380D01*
X50673333Y-101232380D01*
X50578095Y-101280000D01*
X50530476Y-101327619D01*
X50482857Y-101422857D01*
X50482857Y-101565714D01*
X50530476Y-101660952D01*
X50578095Y-101708571D01*
X50673333Y-101756190D01*
X51054285Y-101756190D01*
X50101904Y-101327619D02*
X50054285Y-101280000D01*
X49959047Y-101232380D01*
X49720952Y-101232380D01*
X49625714Y-101280000D01*
X49578095Y-101327619D01*
X49530476Y-101422857D01*
X49530476Y-101518095D01*
X49578095Y-101660952D01*
X50149523Y-102232380D01*
X49530476Y-102232380D01*
X48625714Y-101232380D02*
X49101904Y-101232380D01*
X49149523Y-101708571D01*
X49101904Y-101660952D01*
X49006666Y-101613333D01*
X48768571Y-101613333D01*
X48673333Y-101660952D01*
X48625714Y-101708571D01*
X48578095Y-101803809D01*
X48578095Y-102041904D01*
X48625714Y-102137142D01*
X48673333Y-102184761D01*
X48768571Y-102232380D01*
X49006666Y-102232380D01*
X49101904Y-102184761D01*
X49149523Y-102137142D01*
X107745357Y-53697142D02*
X107792976Y-53744761D01*
X107935833Y-53792380D01*
X108031071Y-53792380D01*
X108173928Y-53744761D01*
X108269166Y-53649523D01*
X108316785Y-53554285D01*
X108364404Y-53363809D01*
X108364404Y-53220952D01*
X108316785Y-53030476D01*
X108269166Y-52935238D01*
X108173928Y-52840000D01*
X108031071Y-52792380D01*
X107935833Y-52792380D01*
X107792976Y-52840000D01*
X107745357Y-52887619D01*
X106792976Y-53792380D02*
X107364404Y-53792380D01*
X107078690Y-53792380D02*
X107078690Y-52792380D01*
X107173928Y-52935238D01*
X107269166Y-53030476D01*
X107364404Y-53078095D01*
X106221547Y-53220952D02*
X106316785Y-53173333D01*
X106364404Y-53125714D01*
X106412023Y-53030476D01*
X106412023Y-52982857D01*
X106364404Y-52887619D01*
X106316785Y-52840000D01*
X106221547Y-52792380D01*
X106031071Y-52792380D01*
X105935833Y-52840000D01*
X105888214Y-52887619D01*
X105840595Y-52982857D01*
X105840595Y-53030476D01*
X105888214Y-53125714D01*
X105935833Y-53173333D01*
X106031071Y-53220952D01*
X106221547Y-53220952D01*
X106316785Y-53268571D01*
X106364404Y-53316190D01*
X106412023Y-53411428D01*
X106412023Y-53601904D01*
X106364404Y-53697142D01*
X106316785Y-53744761D01*
X106221547Y-53792380D01*
X106031071Y-53792380D01*
X105935833Y-53744761D01*
X105888214Y-53697142D01*
X105840595Y-53601904D01*
X105840595Y-53411428D01*
X105888214Y-53316190D01*
X105935833Y-53268571D01*
X106031071Y-53220952D01*
X86106666Y-79937142D02*
X86154285Y-79984761D01*
X86297142Y-80032380D01*
X86392380Y-80032380D01*
X86535238Y-79984761D01*
X86630476Y-79889523D01*
X86678095Y-79794285D01*
X86725714Y-79603809D01*
X86725714Y-79460952D01*
X86678095Y-79270476D01*
X86630476Y-79175238D01*
X86535238Y-79080000D01*
X86392380Y-79032380D01*
X86297142Y-79032380D01*
X86154285Y-79080000D01*
X86106666Y-79127619D01*
X85773333Y-79032380D02*
X85106666Y-79032380D01*
X85535238Y-80032380D01*
X86582857Y-88837142D02*
X86630476Y-88884761D01*
X86773333Y-88932380D01*
X86868571Y-88932380D01*
X87011428Y-88884761D01*
X87106666Y-88789523D01*
X87154285Y-88694285D01*
X87201904Y-88503809D01*
X87201904Y-88360952D01*
X87154285Y-88170476D01*
X87106666Y-88075238D01*
X87011428Y-87980000D01*
X86868571Y-87932380D01*
X86773333Y-87932380D01*
X86630476Y-87980000D01*
X86582857Y-88027619D01*
X86201904Y-88027619D02*
X86154285Y-87980000D01*
X86059047Y-87932380D01*
X85820952Y-87932380D01*
X85725714Y-87980000D01*
X85678095Y-88027619D01*
X85630476Y-88122857D01*
X85630476Y-88218095D01*
X85678095Y-88360952D01*
X86249523Y-88932380D01*
X85630476Y-88932380D01*
X84773333Y-88265714D02*
X84773333Y-88932380D01*
X85011428Y-87884761D02*
X85249523Y-88599047D01*
X84630476Y-88599047D01*
X99245357Y-68537142D02*
X99292976Y-68584761D01*
X99435833Y-68632380D01*
X99531071Y-68632380D01*
X99673928Y-68584761D01*
X99769166Y-68489523D01*
X99816785Y-68394285D01*
X99864404Y-68203809D01*
X99864404Y-68060952D01*
X99816785Y-67870476D01*
X99769166Y-67775238D01*
X99673928Y-67680000D01*
X99531071Y-67632380D01*
X99435833Y-67632380D01*
X99292976Y-67680000D01*
X99245357Y-67727619D01*
X98292976Y-68632380D02*
X98864404Y-68632380D01*
X98578690Y-68632380D02*
X98578690Y-67632380D01*
X98673928Y-67775238D01*
X98769166Y-67870476D01*
X98864404Y-67918095D01*
X97388214Y-67632380D02*
X97864404Y-67632380D01*
X97912023Y-68108571D01*
X97864404Y-68060952D01*
X97769166Y-68013333D01*
X97531071Y-68013333D01*
X97435833Y-68060952D01*
X97388214Y-68108571D01*
X97340595Y-68203809D01*
X97340595Y-68441904D01*
X97388214Y-68537142D01*
X97435833Y-68584761D01*
X97531071Y-68632380D01*
X97769166Y-68632380D01*
X97864404Y-68584761D01*
X97912023Y-68537142D01*
X84667142Y-121699642D02*
X84714761Y-121652023D01*
X84762380Y-121509166D01*
X84762380Y-121413928D01*
X84714761Y-121271071D01*
X84619523Y-121175833D01*
X84524285Y-121128214D01*
X84333809Y-121080595D01*
X84190952Y-121080595D01*
X84000476Y-121128214D01*
X83905238Y-121175833D01*
X83810000Y-121271071D01*
X83762380Y-121413928D01*
X83762380Y-121509166D01*
X83810000Y-121652023D01*
X83857619Y-121699642D01*
X84762380Y-122652023D02*
X84762380Y-122080595D01*
X84762380Y-122366309D02*
X83762380Y-122366309D01*
X83905238Y-122271071D01*
X84000476Y-122175833D01*
X84048095Y-122080595D01*
X83762380Y-122985357D02*
X83762380Y-123604404D01*
X84143333Y-123271071D01*
X84143333Y-123413928D01*
X84190952Y-123509166D01*
X84238571Y-123556785D01*
X84333809Y-123604404D01*
X84571904Y-123604404D01*
X84667142Y-123556785D01*
X84714761Y-123509166D01*
X84762380Y-123413928D01*
X84762380Y-123128214D01*
X84714761Y-123032976D01*
X84667142Y-122985357D01*
X99282857Y-50937142D02*
X99330476Y-50984761D01*
X99473333Y-51032380D01*
X99568571Y-51032380D01*
X99711428Y-50984761D01*
X99806666Y-50889523D01*
X99854285Y-50794285D01*
X99901904Y-50603809D01*
X99901904Y-50460952D01*
X99854285Y-50270476D01*
X99806666Y-50175238D01*
X99711428Y-50080000D01*
X99568571Y-50032380D01*
X99473333Y-50032380D01*
X99330476Y-50080000D01*
X99282857Y-50127619D01*
X98330476Y-51032380D02*
X98901904Y-51032380D01*
X98616190Y-51032380D02*
X98616190Y-50032380D01*
X98711428Y-50175238D01*
X98806666Y-50270476D01*
X98901904Y-50318095D01*
X97473333Y-50365714D02*
X97473333Y-51032380D01*
X97711428Y-49984761D02*
X97949523Y-50699047D01*
X97330476Y-50699047D01*
X52892380Y-119337142D02*
X52416190Y-119003809D01*
X52892380Y-118765714D02*
X51892380Y-118765714D01*
X51892380Y-119146666D01*
X51940000Y-119241904D01*
X51987619Y-119289523D01*
X52082857Y-119337142D01*
X52225714Y-119337142D01*
X52320952Y-119289523D01*
X52368571Y-119241904D01*
X52416190Y-119146666D01*
X52416190Y-118765714D01*
X51987619Y-119718095D02*
X51940000Y-119765714D01*
X51892380Y-119860952D01*
X51892380Y-120099047D01*
X51940000Y-120194285D01*
X51987619Y-120241904D01*
X52082857Y-120289523D01*
X52178095Y-120289523D01*
X52320952Y-120241904D01*
X52892380Y-119670476D01*
X52892380Y-120289523D01*
X51892380Y-120908571D02*
X51892380Y-121003809D01*
X51940000Y-121099047D01*
X51987619Y-121146666D01*
X52082857Y-121194285D01*
X52273333Y-121241904D01*
X52511428Y-121241904D01*
X52701904Y-121194285D01*
X52797142Y-121146666D01*
X52844761Y-121099047D01*
X52892380Y-121003809D01*
X52892380Y-120908571D01*
X52844761Y-120813333D01*
X52797142Y-120765714D01*
X52701904Y-120718095D01*
X52511428Y-120670476D01*
X52273333Y-120670476D01*
X52082857Y-120718095D01*
X51987619Y-120765714D01*
X51940000Y-120813333D01*
X51892380Y-120908571D01*
D13*
X81656233Y-95370000D02*
X81948767Y-95370000D01*
X81656233Y-96390000D02*
X81948767Y-96390000D01*
X106956233Y-45770000D02*
X107248767Y-45770000D01*
X106956233Y-46790000D02*
X107248767Y-46790000D01*
X81593733Y-78590000D02*
X81886267Y-78590000D01*
X81593733Y-77570000D02*
X81886267Y-77570000D01*
X44303733Y-110590000D02*
X44596267Y-110590000D01*
X44303733Y-109570000D02*
X44596267Y-109570000D01*
X44303733Y-112270000D02*
X44596267Y-112270000D01*
X44303733Y-111250000D02*
X44596267Y-111250000D01*
X81556233Y-69690000D02*
X81848767Y-69690000D01*
X81556233Y-68670000D02*
X81848767Y-68670000D01*
X58717500Y-129312776D02*
X58717500Y-129822224D01*
X59762500Y-129312776D02*
X59762500Y-129822224D01*
X55762500Y-119612776D02*
X55762500Y-120122224D01*
X54717500Y-119612776D02*
X54717500Y-120122224D01*
X67417500Y-119625276D02*
X67417500Y-120134724D01*
X68462500Y-119625276D02*
X68462500Y-120134724D01*
X94256233Y-66170000D02*
X94548767Y-66170000D01*
X94256233Y-67190000D02*
X94548767Y-67190000D01*
X138490000Y-59690000D02*
X135830000Y-59690000D01*
X138490000Y-59690000D02*
X138490000Y-133410000D01*
X135830000Y-59690000D02*
X135830000Y-133410000D01*
X138490000Y-133410000D02*
X135830000Y-133410000D01*
X135830000Y-57090000D02*
X135830000Y-58420000D01*
X137160000Y-57090000D02*
X135830000Y-57090000D01*
X69962500Y-119625276D02*
X69962500Y-120134724D01*
X68917500Y-119625276D02*
X68917500Y-120134724D01*
X93457500Y-113622224D02*
X93457500Y-113112776D01*
X94502500Y-113622224D02*
X94502500Y-113112776D01*
X124230000Y-132871233D02*
X124230000Y-133163767D01*
X125250000Y-132871233D02*
X125250000Y-133163767D01*
X83317500Y-113622224D02*
X83317500Y-113112776D01*
X84362500Y-113622224D02*
X84362500Y-113112776D01*
X94331233Y-84990000D02*
X94623767Y-84990000D01*
X94331233Y-83970000D02*
X94623767Y-83970000D01*
X128330000Y-135830000D02*
X127000000Y-135830000D01*
X128330000Y-138430000D02*
X125730000Y-138430000D01*
X128330000Y-137160000D02*
X128330000Y-135830000D01*
X125730000Y-135830000D02*
X120590000Y-135830000D01*
X128330000Y-141030000D02*
X120590000Y-141030000D01*
X128330000Y-141030000D02*
X128330000Y-138430000D01*
X125730000Y-138430000D02*
X125730000Y-135830000D01*
X120590000Y-141030000D02*
X120590000Y-135830000D01*
X58762500Y-119612776D02*
X58762500Y-120122224D01*
X57717500Y-119612776D02*
X57717500Y-120122224D01*
X61717500Y-129312776D02*
X61717500Y-129822224D01*
X62762500Y-129312776D02*
X62762500Y-129822224D01*
X41850000Y-49470000D02*
X41850000Y-50800000D01*
X47050000Y-49470000D02*
X44450000Y-49470000D01*
X44450000Y-49470000D02*
X44450000Y-52070000D01*
X41850000Y-52070000D02*
X41850000Y-100390000D01*
X43180000Y-49470000D02*
X41850000Y-49470000D01*
X47050000Y-100390000D02*
X41850000Y-100390000D01*
X44450000Y-52070000D02*
X41850000Y-52070000D01*
X47050000Y-49470000D02*
X47050000Y-100390000D01*
X94331233Y-75070000D02*
X94623767Y-75070000D01*
X94331233Y-76090000D02*
X94623767Y-76090000D01*
X70417500Y-119625276D02*
X70417500Y-120134724D01*
X71462500Y-119625276D02*
X71462500Y-120134724D01*
X73017500Y-129325276D02*
X73017500Y-129834724D01*
X74062500Y-129325276D02*
X74062500Y-129834724D01*
X71517500Y-129325276D02*
X71517500Y-129834724D01*
X72562500Y-129325276D02*
X72562500Y-129834724D01*
X98723767Y-102790000D02*
X98431233Y-102790000D01*
X98723767Y-101770000D02*
X98431233Y-101770000D01*
X81556233Y-60790000D02*
X81848767Y-60790000D01*
X81556233Y-59770000D02*
X81848767Y-59770000D01*
X53417500Y-129312776D02*
X53417500Y-129822224D01*
X54462500Y-129312776D02*
X54462500Y-129822224D01*
X61262500Y-129312776D02*
X61262500Y-129822224D01*
X60217500Y-129312776D02*
X60217500Y-129822224D01*
X81593733Y-86470000D02*
X81886267Y-86470000D01*
X81593733Y-87490000D02*
X81886267Y-87490000D01*
X94356233Y-92870000D02*
X94648767Y-92870000D01*
X94356233Y-93890000D02*
X94648767Y-93890000D01*
X74517500Y-129325276D02*
X74517500Y-129834724D01*
X75562500Y-129325276D02*
X75562500Y-129834724D01*
X98748767Y-57270000D02*
X98456233Y-57270000D01*
X98748767Y-58290000D02*
X98456233Y-58290000D01*
X67370000Y-49470000D02*
X64770000Y-49470000D01*
X62170000Y-52070000D02*
X62170000Y-100390000D01*
X64770000Y-52070000D02*
X62170000Y-52070000D01*
X67370000Y-100390000D02*
X62170000Y-100390000D01*
X62170000Y-49470000D02*
X62170000Y-50800000D01*
X64770000Y-49470000D02*
X64770000Y-52070000D01*
X67370000Y-49470000D02*
X67370000Y-100390000D01*
X63500000Y-49470000D02*
X62170000Y-49470000D01*
X58262500Y-129325276D02*
X58262500Y-129834724D01*
X57217500Y-129325276D02*
X57217500Y-129834724D01*
X111448767Y-54770000D02*
X111156233Y-54770000D01*
X111448767Y-55790000D02*
X111156233Y-55790000D01*
X67162500Y-129325276D02*
X67162500Y-129834724D01*
X66117500Y-129325276D02*
X66117500Y-129834724D01*
X51697776Y-82802500D02*
X52207224Y-82802500D01*
X51697776Y-81757500D02*
X52207224Y-81757500D01*
X70062500Y-96609724D02*
X70062500Y-96100276D01*
X69017500Y-96609724D02*
X69017500Y-96100276D01*
X70017500Y-129325276D02*
X70017500Y-129834724D01*
X71062500Y-129325276D02*
X71062500Y-129834724D01*
X94256233Y-48370000D02*
X94548767Y-48370000D01*
X94256233Y-49390000D02*
X94548767Y-49390000D01*
X85230000Y-126663767D02*
X85230000Y-126371233D01*
X86250000Y-126663767D02*
X86250000Y-126371233D01*
X121920000Y-57090000D02*
X120590000Y-57090000D01*
X123250000Y-133410000D02*
X120590000Y-133410000D01*
X123250000Y-59690000D02*
X123250000Y-133410000D01*
X120590000Y-59690000D02*
X120590000Y-133410000D01*
X123250000Y-59690000D02*
X120590000Y-59690000D01*
X120590000Y-57090000D02*
X120590000Y-58420000D01*
X98723767Y-92870000D02*
X98431233Y-92870000D01*
X98723767Y-93890000D02*
X98431233Y-93890000D01*
X94241233Y-58290000D02*
X94533767Y-58290000D01*
X94241233Y-57270000D02*
X94533767Y-57270000D01*
X111548767Y-45770000D02*
X111256233Y-45770000D01*
X111548767Y-46790000D02*
X111256233Y-46790000D01*
X95330000Y-122196233D02*
X95330000Y-122488767D01*
X96350000Y-122196233D02*
X96350000Y-122488767D01*
X96350000Y-126663767D02*
X96350000Y-126371233D01*
X95330000Y-126663767D02*
X95330000Y-126371233D01*
X49197776Y-109557500D02*
X49707224Y-109557500D01*
X49197776Y-110602500D02*
X49707224Y-110602500D01*
X94356233Y-102790000D02*
X94648767Y-102790000D01*
X94356233Y-101770000D02*
X94648767Y-101770000D01*
X54450000Y-124033733D02*
X54450000Y-124326267D01*
X53430000Y-124033733D02*
X53430000Y-124326267D01*
X86023767Y-95370000D02*
X85731233Y-95370000D01*
X86023767Y-96390000D02*
X85731233Y-96390000D01*
X98723767Y-84990000D02*
X98431233Y-84990000D01*
X98723767Y-83970000D02*
X98431233Y-83970000D01*
X98748767Y-75070000D02*
X98456233Y-75070000D01*
X98748767Y-76090000D02*
X98456233Y-76090000D01*
X71817500Y-96522224D02*
X71817500Y-96012776D01*
X72862500Y-96522224D02*
X72862500Y-96012776D01*
X86048767Y-59770000D02*
X85756233Y-59770000D01*
X86048767Y-60790000D02*
X85756233Y-60790000D01*
X66230000Y-124033733D02*
X66230000Y-124326267D01*
X67250000Y-124033733D02*
X67250000Y-124326267D01*
X86048767Y-69690000D02*
X85756233Y-69690000D01*
X86048767Y-68670000D02*
X85756233Y-68670000D01*
X132793733Y-55870000D02*
X133086267Y-55870000D01*
X132793733Y-56890000D02*
X133086267Y-56890000D01*
X43897776Y-101357500D02*
X44407224Y-101357500D01*
X43897776Y-102402500D02*
X44407224Y-102402500D01*
X106956233Y-54770000D02*
X107248767Y-54770000D01*
X106956233Y-55790000D02*
X107248767Y-55790000D01*
X86086267Y-78590000D02*
X85793733Y-78590000D01*
X86086267Y-77570000D02*
X85793733Y-77570000D01*
X86086267Y-87490000D02*
X85793733Y-87490000D01*
X86086267Y-86470000D02*
X85793733Y-86470000D01*
X98748767Y-66170000D02*
X98456233Y-66170000D01*
X98748767Y-67190000D02*
X98456233Y-67190000D01*
X85230000Y-122196233D02*
X85230000Y-122488767D01*
X86250000Y-122196233D02*
X86250000Y-122488767D01*
X98748767Y-49390000D02*
X98456233Y-49390000D01*
X98748767Y-48370000D02*
X98456233Y-48370000D01*
X56217500Y-119612776D02*
X56217500Y-120122224D01*
X57262500Y-119612776D02*
X57262500Y-120122224D01*
%LPC*%
D14*
X53340000Y-139700000D03*
D15*
X55880000Y-139700000D03*
X58420000Y-139700000D03*
X60960000Y-139700000D03*
X63500000Y-139700000D03*
X66040000Y-139700000D03*
X68580000Y-139700000D03*
X71120000Y-139700000D03*
X73660000Y-139700000D03*
D14*
X96520000Y-116840000D03*
D15*
X96520000Y-114300000D03*
D14*
X55880000Y-116840000D03*
D15*
X53340000Y-116840000D03*
D14*
X127000000Y-58420000D03*
D15*
X127000000Y-60960000D03*
X127000000Y-63500000D03*
X127000000Y-66040000D03*
X127000000Y-68580000D03*
X127000000Y-71120000D03*
X127000000Y-73660000D03*
X127000000Y-76200000D03*
X127000000Y-78740000D03*
X127000000Y-81280000D03*
X127000000Y-83820000D03*
X127000000Y-86360000D03*
X127000000Y-88900000D03*
X127000000Y-91440000D03*
X127000000Y-93980000D03*
X127000000Y-96520000D03*
X127000000Y-99060000D03*
X127000000Y-101600000D03*
X127000000Y-104140000D03*
X127000000Y-106680000D03*
X127000000Y-109220000D03*
X127000000Y-111760000D03*
X127000000Y-114300000D03*
X127000000Y-116840000D03*
X127000000Y-119380000D03*
X127000000Y-121920000D03*
X127000000Y-124460000D03*
X127000000Y-127000000D03*
X127000000Y-129540000D03*
X127000000Y-132080000D03*
X132080000Y-58420000D03*
X132080000Y-60960000D03*
X132080000Y-63500000D03*
X132080000Y-66040000D03*
X132080000Y-68580000D03*
X132080000Y-71120000D03*
X132080000Y-73660000D03*
X132080000Y-76200000D03*
X132080000Y-78740000D03*
X132080000Y-81280000D03*
X132080000Y-83820000D03*
X132080000Y-86360000D03*
X132080000Y-88900000D03*
X132080000Y-91440000D03*
X132080000Y-93980000D03*
X132080000Y-96520000D03*
X132080000Y-99060000D03*
X132080000Y-101600000D03*
X132080000Y-104140000D03*
X132080000Y-106680000D03*
X132080000Y-109220000D03*
X132080000Y-111760000D03*
X132080000Y-114300000D03*
X132080000Y-116840000D03*
X132080000Y-119380000D03*
X132080000Y-121920000D03*
X132080000Y-124460000D03*
X132080000Y-127000000D03*
X132080000Y-129540000D03*
X132080000Y-132080000D03*
D14*
X86360000Y-116840000D03*
D15*
X86360000Y-114300000D03*
D14*
X81280000Y-134620000D03*
D15*
X83820000Y-134620000D03*
X86360000Y-134620000D03*
X88900000Y-134620000D03*
X91440000Y-134620000D03*
X93980000Y-134620000D03*
X96520000Y-134620000D03*
X99060000Y-134620000D03*
X101600000Y-134620000D03*
D14*
X91440000Y-116840000D03*
D15*
X91440000Y-114300000D03*
D14*
X68580000Y-101600000D03*
D15*
X71120000Y-101600000D03*
X73660000Y-101600000D03*
D16*
X45640000Y-138180000D03*
D17*
X45640000Y-138180000D03*
D14*
X68580000Y-104140000D03*
D15*
X71120000Y-104140000D03*
X73660000Y-104140000D03*
X76200000Y-104140000D03*
D18*
X45720000Y-121920000D03*
D19*
X45720000Y-127000000D03*
D14*
X81280000Y-139700000D03*
D15*
X83820000Y-139700000D03*
X86360000Y-139700000D03*
X88900000Y-139700000D03*
X91440000Y-139700000D03*
X93980000Y-139700000D03*
X96520000Y-139700000D03*
X99060000Y-139700000D03*
X101600000Y-139700000D03*
D14*
X43180000Y-106680000D03*
D15*
X43180000Y-104140000D03*
X45720000Y-106680000D03*
X45720000Y-104140000D03*
X48260000Y-106680000D03*
X48260000Y-104140000D03*
D17*
X135640000Y-138180000D03*
D16*
X135640000Y-138180000D03*
D20*
X109500000Y-132430000D03*
D21*
X109500000Y-138430000D03*
D22*
X114300000Y-135430000D03*
D14*
X101600000Y-124460000D03*
D15*
X101600000Y-121920000D03*
X101600000Y-119380000D03*
D14*
X81280000Y-116840000D03*
D15*
X81280000Y-114300000D03*
D14*
X68580000Y-116840000D03*
D15*
X66040000Y-116840000D03*
D16*
X135640000Y-48180000D03*
D17*
X135640000Y-48180000D03*
D14*
X81280000Y-132080000D03*
D15*
X83820000Y-132080000D03*
X86360000Y-132080000D03*
X88900000Y-132080000D03*
X91440000Y-132080000D03*
X93980000Y-132080000D03*
X96520000Y-132080000D03*
X99060000Y-132080000D03*
X101600000Y-132080000D03*
D23*
X80940000Y-95880000D03*
X82665000Y-95880000D03*
X106240000Y-46280000D03*
X107965000Y-46280000D03*
X80877500Y-78080000D03*
X82602500Y-78080000D03*
X43587500Y-110080000D03*
X45312500Y-110080000D03*
X43587500Y-111760000D03*
X45312500Y-111760000D03*
X80840000Y-69180000D03*
X82565000Y-69180000D03*
D24*
X59240000Y-128655000D03*
X59240000Y-130480000D03*
X55240000Y-118955000D03*
X55240000Y-120780000D03*
X67940000Y-118967500D03*
X67940000Y-120792500D03*
D23*
X93540000Y-66680000D03*
X95265000Y-66680000D03*
D14*
X137160000Y-58420000D03*
D15*
X137160000Y-60960000D03*
X137160000Y-63500000D03*
X137160000Y-66040000D03*
X137160000Y-68580000D03*
X137160000Y-71120000D03*
X137160000Y-73660000D03*
X137160000Y-76200000D03*
X137160000Y-78740000D03*
X137160000Y-81280000D03*
X137160000Y-83820000D03*
X137160000Y-86360000D03*
X137160000Y-88900000D03*
X137160000Y-91440000D03*
X137160000Y-93980000D03*
X137160000Y-96520000D03*
X137160000Y-99060000D03*
X137160000Y-101600000D03*
X137160000Y-104140000D03*
X137160000Y-106680000D03*
X137160000Y-109220000D03*
X137160000Y-111760000D03*
X137160000Y-114300000D03*
X137160000Y-116840000D03*
X137160000Y-119380000D03*
X137160000Y-121920000D03*
X137160000Y-124460000D03*
X137160000Y-127000000D03*
X137160000Y-129540000D03*
X137160000Y-132080000D03*
D24*
X69440000Y-118967500D03*
X69440000Y-120792500D03*
D25*
X93980000Y-114280000D03*
X93980000Y-112455000D03*
D26*
X124740000Y-132155000D03*
X124740000Y-133880000D03*
D25*
X83840000Y-114280000D03*
X83840000Y-112455000D03*
D23*
X93615000Y-84480000D03*
X95340000Y-84480000D03*
D14*
X127000000Y-137160000D03*
D15*
X127000000Y-139700000D03*
X124460000Y-137160000D03*
X124460000Y-139700000D03*
X121920000Y-137160000D03*
X121920000Y-139700000D03*
D24*
X58240000Y-118955000D03*
X58240000Y-120780000D03*
X62240000Y-128655000D03*
X62240000Y-130480000D03*
D14*
X43180000Y-50800000D03*
D15*
X45720000Y-50800000D03*
X43180000Y-53340000D03*
X45720000Y-53340000D03*
X43180000Y-55880000D03*
X45720000Y-55880000D03*
X43180000Y-58420000D03*
X45720000Y-58420000D03*
X43180000Y-60960000D03*
X45720000Y-60960000D03*
X43180000Y-63500000D03*
X45720000Y-63500000D03*
X43180000Y-66040000D03*
X45720000Y-66040000D03*
X43180000Y-68580000D03*
X45720000Y-68580000D03*
X43180000Y-71120000D03*
X45720000Y-71120000D03*
X43180000Y-73660000D03*
X45720000Y-73660000D03*
X43180000Y-76200000D03*
X45720000Y-76200000D03*
X43180000Y-78740000D03*
X45720000Y-78740000D03*
X43180000Y-81280000D03*
X45720000Y-81280000D03*
X43180000Y-83820000D03*
X45720000Y-83820000D03*
X43180000Y-86360000D03*
X45720000Y-86360000D03*
X43180000Y-88900000D03*
X45720000Y-88900000D03*
X43180000Y-91440000D03*
X45720000Y-91440000D03*
X43180000Y-93980000D03*
X45720000Y-93980000D03*
X43180000Y-96520000D03*
X45720000Y-96520000D03*
X43180000Y-99060000D03*
X45720000Y-99060000D03*
D23*
X93615000Y-75580000D03*
X95340000Y-75580000D03*
D24*
X70940000Y-118967500D03*
X70940000Y-120792500D03*
X73540000Y-128667500D03*
X73540000Y-130492500D03*
X72040000Y-128667500D03*
X72040000Y-130492500D03*
D27*
X99440000Y-102280000D03*
X97715000Y-102280000D03*
D23*
X80840000Y-60280000D03*
X82565000Y-60280000D03*
D24*
X53940000Y-128655000D03*
X53940000Y-130480000D03*
X60740000Y-128655000D03*
X60740000Y-130480000D03*
D23*
X80877500Y-86980000D03*
X82602500Y-86980000D03*
X93640000Y-93380000D03*
X95365000Y-93380000D03*
D24*
X75040000Y-128667500D03*
X75040000Y-130492500D03*
D27*
X99465000Y-57780000D03*
X97740000Y-57780000D03*
D14*
X63500000Y-50800000D03*
D15*
X66040000Y-50800000D03*
X63500000Y-53340000D03*
X66040000Y-53340000D03*
X63500000Y-55880000D03*
X66040000Y-55880000D03*
X63500000Y-58420000D03*
X66040000Y-58420000D03*
X63500000Y-60960000D03*
X66040000Y-60960000D03*
X63500000Y-63500000D03*
X66040000Y-63500000D03*
X63500000Y-66040000D03*
X66040000Y-66040000D03*
X63500000Y-68580000D03*
X66040000Y-68580000D03*
X63500000Y-71120000D03*
X66040000Y-71120000D03*
X63500000Y-73660000D03*
X66040000Y-73660000D03*
X63500000Y-76200000D03*
X66040000Y-76200000D03*
X63500000Y-78740000D03*
X66040000Y-78740000D03*
X63500000Y-81280000D03*
X66040000Y-81280000D03*
X63500000Y-83820000D03*
X66040000Y-83820000D03*
X63500000Y-86360000D03*
X66040000Y-86360000D03*
X63500000Y-88900000D03*
X66040000Y-88900000D03*
X63500000Y-91440000D03*
X66040000Y-91440000D03*
X63500000Y-93980000D03*
X66040000Y-93980000D03*
X63500000Y-96520000D03*
X66040000Y-96520000D03*
X63500000Y-99060000D03*
X66040000Y-99060000D03*
D24*
X57740000Y-128667500D03*
X57740000Y-130492500D03*
D27*
X112165000Y-55280000D03*
X110440000Y-55280000D03*
D24*
X66640000Y-128667500D03*
X66640000Y-130492500D03*
D28*
X51040000Y-82280000D03*
X52865000Y-82280000D03*
D25*
X69540000Y-97267500D03*
X69540000Y-95442500D03*
D24*
X70540000Y-128667500D03*
X70540000Y-130492500D03*
D23*
X93540000Y-48880000D03*
X95265000Y-48880000D03*
D29*
X85740000Y-127380000D03*
X85740000Y-125655000D03*
D14*
X121920000Y-58420000D03*
D15*
X121920000Y-60960000D03*
X121920000Y-63500000D03*
X121920000Y-66040000D03*
X121920000Y-68580000D03*
X121920000Y-71120000D03*
X121920000Y-73660000D03*
X121920000Y-76200000D03*
X121920000Y-78740000D03*
X121920000Y-81280000D03*
X121920000Y-83820000D03*
X121920000Y-86360000D03*
X121920000Y-88900000D03*
X121920000Y-91440000D03*
X121920000Y-93980000D03*
X121920000Y-96520000D03*
X121920000Y-99060000D03*
X121920000Y-101600000D03*
X121920000Y-104140000D03*
X121920000Y-106680000D03*
X121920000Y-109220000D03*
X121920000Y-111760000D03*
X121920000Y-114300000D03*
X121920000Y-116840000D03*
X121920000Y-119380000D03*
X121920000Y-121920000D03*
X121920000Y-124460000D03*
X121920000Y-127000000D03*
X121920000Y-129540000D03*
X121920000Y-132080000D03*
D27*
X99440000Y-93380000D03*
X97715000Y-93380000D03*
D23*
X93525000Y-57780000D03*
X95250000Y-57780000D03*
D27*
X112265000Y-46280000D03*
X110540000Y-46280000D03*
D26*
X95840000Y-121480000D03*
X95840000Y-123205000D03*
D29*
X95840000Y-127380000D03*
X95840000Y-125655000D03*
D28*
X48540000Y-110080000D03*
X50365000Y-110080000D03*
D23*
X93640000Y-102280000D03*
X95365000Y-102280000D03*
D26*
X53940000Y-123317500D03*
X53940000Y-125042500D03*
D27*
X86740000Y-95880000D03*
X85015000Y-95880000D03*
X99440000Y-84480000D03*
X97715000Y-84480000D03*
X99465000Y-75580000D03*
X97740000Y-75580000D03*
D25*
X72340000Y-97180000D03*
X72340000Y-95355000D03*
D27*
X86765000Y-60280000D03*
X85040000Y-60280000D03*
D26*
X66740000Y-123317500D03*
X66740000Y-125042500D03*
D27*
X86765000Y-69180000D03*
X85040000Y-69180000D03*
D23*
X132077500Y-56380000D03*
X133802500Y-56380000D03*
D28*
X43240000Y-101880000D03*
X45065000Y-101880000D03*
D23*
X106240000Y-55280000D03*
X107965000Y-55280000D03*
D27*
X86802500Y-78080000D03*
X85077500Y-78080000D03*
X86802500Y-86980000D03*
X85077500Y-86980000D03*
X99465000Y-66680000D03*
X97740000Y-66680000D03*
D26*
X85740000Y-121480000D03*
X85740000Y-123205000D03*
D27*
X99465000Y-48880000D03*
X97740000Y-48880000D03*
D24*
X56740000Y-118955000D03*
X56740000Y-120780000D03*
M02*
