G04 #@! TF.GenerationSoftware,KiCad,Pcbnew,(6.0.2)*
G04 #@! TF.CreationDate,2022-03-02T03:30:40+09:00*
G04 #@! TF.ProjectId,nes_peripheral,6e65735f-7065-4726-9970-686572616c2e,rev?*
G04 #@! TF.SameCoordinates,Original*
G04 #@! TF.FileFunction,Soldermask,Top*
G04 #@! TF.FilePolarity,Negative*
%FSLAX46Y46*%
G04 Gerber Fmt 4.6, Leading zero omitted, Abs format (unit mm)*
G04 Created by KiCad (PCBNEW (6.0.2)) date 2022-03-02 03:30:40*
%MOMM*%
%LPD*%
G01*
G04 APERTURE LIST*
G04 Aperture macros list*
%AMRoundRect*
0 Rectangle with rounded corners*
0 $1 Rounding radius*
0 $2 $3 $4 $5 $6 $7 $8 $9 X,Y pos of 4 corners*
0 Add a 4 corners polygon primitive as box body*
4,1,4,$2,$3,$4,$5,$6,$7,$8,$9,$2,$3,0*
0 Add four circle primitives for the rounded corners*
1,1,$1+$1,$2,$3*
1,1,$1+$1,$4,$5*
1,1,$1+$1,$6,$7*
1,1,$1+$1,$8,$9*
0 Add four rect primitives between the rounded corners*
20,1,$1+$1,$2,$3,$4,$5,0*
20,1,$1+$1,$4,$5,$6,$7,0*
20,1,$1+$1,$6,$7,$8,$9,0*
20,1,$1+$1,$8,$9,$2,$3,0*%
G04 Aperture macros list end*
%ADD10RoundRect,0.100000X-0.637500X-0.100000X0.637500X-0.100000X0.637500X0.100000X-0.637500X0.100000X0*%
%ADD11R,1.700000X1.700000*%
%ADD12O,1.700000X1.700000*%
%ADD13O,0.300000X0.800000*%
%ADD14O,0.800000X0.300000*%
%ADD15R,0.307500X0.307500*%
%ADD16RoundRect,0.237500X-0.237500X0.287500X-0.237500X-0.287500X0.237500X-0.287500X0.237500X0.287500X0*%
%ADD17RoundRect,0.237500X0.250000X0.237500X-0.250000X0.237500X-0.250000X-0.237500X0.250000X-0.237500X0*%
%ADD18RoundRect,0.237500X-0.287500X-0.237500X0.287500X-0.237500X0.287500X0.237500X-0.287500X0.237500X0*%
%ADD19RoundRect,0.237500X0.287500X0.237500X-0.287500X0.237500X-0.287500X-0.237500X0.287500X-0.237500X0*%
%ADD20R,0.600000X1.500000*%
%ADD21RoundRect,0.100000X-0.100000X0.637500X-0.100000X-0.637500X0.100000X-0.637500X0.100000X0.637500X0*%
%ADD22C,3.600000*%
%ADD23C,6.400000*%
%ADD24R,3.000000X3.000000*%
%ADD25C,3.000000*%
%ADD26O,4.700000X2.000000*%
%ADD27O,4.200000X2.000000*%
%ADD28O,2.000000X4.200000*%
%ADD29RoundRect,0.237500X0.237500X-0.287500X0.237500X0.287500X-0.237500X0.287500X-0.237500X-0.287500X0*%
G04 APERTURE END LIST*
D10*
X93657500Y-93300000D03*
X93657500Y-93950000D03*
X93657500Y-94600000D03*
X93657500Y-95250000D03*
X93657500Y-95900000D03*
X93657500Y-96550000D03*
X93657500Y-97200000D03*
X99382500Y-97200000D03*
X99382500Y-96550000D03*
X99382500Y-95900000D03*
X99382500Y-95250000D03*
X99382500Y-94600000D03*
X99382500Y-93950000D03*
X99382500Y-93300000D03*
D11*
X53340000Y-139700000D03*
D12*
X55880000Y-139700000D03*
X58420000Y-139700000D03*
X60960000Y-139700000D03*
X63500000Y-139700000D03*
X66040000Y-139700000D03*
X68580000Y-139700000D03*
X71120000Y-139700000D03*
X73660000Y-139700000D03*
D10*
X93657500Y-75520000D03*
X93657500Y-76170000D03*
X93657500Y-76820000D03*
X93657500Y-77470000D03*
X93657500Y-78120000D03*
X93657500Y-78770000D03*
X93657500Y-79420000D03*
X99382500Y-79420000D03*
X99382500Y-78770000D03*
X99382500Y-78120000D03*
X99382500Y-77470000D03*
X99382500Y-76820000D03*
X99382500Y-76170000D03*
X99382500Y-75520000D03*
X80957500Y-60280000D03*
X80957500Y-60930000D03*
X80957500Y-61580000D03*
X80957500Y-62230000D03*
X80957500Y-62880000D03*
X80957500Y-63530000D03*
X80957500Y-64180000D03*
X86682500Y-64180000D03*
X86682500Y-63530000D03*
X86682500Y-62880000D03*
X86682500Y-62230000D03*
X86682500Y-61580000D03*
X86682500Y-60930000D03*
X86682500Y-60280000D03*
D13*
X46470000Y-112850000D03*
X45970000Y-112850000D03*
X45470000Y-112850000D03*
X44970000Y-112850000D03*
D14*
X44270000Y-113550000D03*
X44270000Y-114050000D03*
X44270000Y-114550000D03*
X44270000Y-115050000D03*
D13*
X44970000Y-115750000D03*
X45470000Y-115750000D03*
X45970000Y-115750000D03*
X46470000Y-115750000D03*
D14*
X47170000Y-115050000D03*
X47170000Y-114550000D03*
X47170000Y-114050000D03*
X47170000Y-113550000D03*
D15*
X45566250Y-114146250D03*
X45873750Y-114761250D03*
X45566250Y-114453750D03*
X45258750Y-114453750D03*
X46181250Y-114761250D03*
X45873750Y-113838750D03*
X45873750Y-114453750D03*
X46181250Y-113838750D03*
X45258750Y-114146250D03*
X46181250Y-114453750D03*
X45258750Y-113838750D03*
X45873750Y-114146250D03*
X45258750Y-114761250D03*
X46181250Y-114146250D03*
X45566250Y-114761250D03*
X45566250Y-113838750D03*
D11*
X96520000Y-116840000D03*
D12*
X96520000Y-114300000D03*
D10*
X93657500Y-84410000D03*
X93657500Y-85060000D03*
X93657500Y-85710000D03*
X93657500Y-86360000D03*
X93657500Y-87010000D03*
X93657500Y-87660000D03*
X93657500Y-88310000D03*
X99382500Y-88310000D03*
X99382500Y-87660000D03*
X99382500Y-87010000D03*
X99382500Y-86360000D03*
X99382500Y-85710000D03*
X99382500Y-85060000D03*
X99382500Y-84410000D03*
D11*
X55880000Y-116840000D03*
D12*
X53340000Y-116840000D03*
D10*
X80957500Y-95840000D03*
X80957500Y-96490000D03*
X80957500Y-97140000D03*
X80957500Y-97790000D03*
X80957500Y-98440000D03*
X80957500Y-99090000D03*
X80957500Y-99740000D03*
X86682500Y-99740000D03*
X86682500Y-99090000D03*
X86682500Y-98440000D03*
X86682500Y-97790000D03*
X86682500Y-97140000D03*
X86682500Y-96490000D03*
X86682500Y-95840000D03*
D11*
X127000000Y-58420000D03*
D12*
X127000000Y-60960000D03*
X127000000Y-63500000D03*
X127000000Y-66040000D03*
X127000000Y-68580000D03*
X127000000Y-71120000D03*
X127000000Y-73660000D03*
X127000000Y-76200000D03*
X127000000Y-78740000D03*
X127000000Y-81280000D03*
X127000000Y-83820000D03*
X127000000Y-86360000D03*
X127000000Y-88900000D03*
X127000000Y-91440000D03*
X127000000Y-93980000D03*
X127000000Y-96520000D03*
X127000000Y-99060000D03*
X127000000Y-101600000D03*
X127000000Y-104140000D03*
X127000000Y-106680000D03*
X127000000Y-109220000D03*
X127000000Y-111760000D03*
X127000000Y-114300000D03*
X127000000Y-116840000D03*
X127000000Y-119380000D03*
X127000000Y-121920000D03*
X127000000Y-124460000D03*
X127000000Y-127000000D03*
X127000000Y-129540000D03*
X127000000Y-132080000D03*
X132080000Y-58420000D03*
X132080000Y-60960000D03*
X132080000Y-63500000D03*
X132080000Y-66040000D03*
X132080000Y-68580000D03*
X132080000Y-71120000D03*
X132080000Y-73660000D03*
X132080000Y-76200000D03*
X132080000Y-78740000D03*
X132080000Y-81280000D03*
X132080000Y-83820000D03*
X132080000Y-86360000D03*
X132080000Y-88900000D03*
X132080000Y-91440000D03*
X132080000Y-93980000D03*
X132080000Y-96520000D03*
X132080000Y-99060000D03*
X132080000Y-101600000D03*
X132080000Y-104140000D03*
X132080000Y-106680000D03*
X132080000Y-109220000D03*
X132080000Y-111760000D03*
X132080000Y-114300000D03*
X132080000Y-116840000D03*
X132080000Y-119380000D03*
X132080000Y-121920000D03*
X132080000Y-124460000D03*
X132080000Y-127000000D03*
X132080000Y-129540000D03*
X132080000Y-132080000D03*
D11*
X86360000Y-116840000D03*
D12*
X86360000Y-114300000D03*
D16*
X106640000Y-127630000D03*
X106640000Y-129380000D03*
D17*
X45065000Y-101880000D03*
X43240000Y-101880000D03*
D10*
X106357500Y-55200000D03*
X106357500Y-55850000D03*
X106357500Y-56500000D03*
X106357500Y-57150000D03*
X106357500Y-57800000D03*
X106357500Y-58450000D03*
X106357500Y-59100000D03*
X112082500Y-59100000D03*
X112082500Y-58450000D03*
X112082500Y-57800000D03*
X112082500Y-57150000D03*
X112082500Y-56500000D03*
X112082500Y-55850000D03*
X112082500Y-55200000D03*
D18*
X51090000Y-82280000D03*
X52840000Y-82280000D03*
D10*
X93657500Y-102190000D03*
X93657500Y-102840000D03*
X93657500Y-103490000D03*
X93657500Y-104140000D03*
X93657500Y-104790000D03*
X93657500Y-105440000D03*
X93657500Y-106090000D03*
X99382500Y-106090000D03*
X99382500Y-105440000D03*
X99382500Y-104790000D03*
X99382500Y-104140000D03*
X99382500Y-103490000D03*
X99382500Y-102840000D03*
X99382500Y-102190000D03*
D11*
X81280000Y-134620000D03*
D12*
X83820000Y-134620000D03*
X86360000Y-134620000D03*
X88900000Y-134620000D03*
X91440000Y-134620000D03*
X93980000Y-134620000D03*
X96520000Y-134620000D03*
X99060000Y-134620000D03*
X101600000Y-134620000D03*
D19*
X102490000Y-127680000D03*
X100740000Y-127680000D03*
D20*
X53975000Y-130550000D03*
X55245000Y-130550000D03*
X56515000Y-130550000D03*
X57785000Y-130550000D03*
X59055000Y-130550000D03*
X60325000Y-130550000D03*
X61595000Y-130550000D03*
X62865000Y-130550000D03*
X62865000Y-123450000D03*
X61595000Y-123450000D03*
X60325000Y-123450000D03*
X59055000Y-123450000D03*
X57785000Y-123450000D03*
X56515000Y-123450000D03*
X55245000Y-123450000D03*
X53975000Y-123450000D03*
D11*
X91440000Y-116840000D03*
D12*
X91440000Y-114300000D03*
D21*
X95930000Y-121597500D03*
X95280000Y-121597500D03*
X94630000Y-121597500D03*
X93980000Y-121597500D03*
X93330000Y-121597500D03*
X92680000Y-121597500D03*
X92030000Y-121597500D03*
X92030000Y-127322500D03*
X92680000Y-127322500D03*
X93330000Y-127322500D03*
X93980000Y-127322500D03*
X94630000Y-127322500D03*
X95280000Y-127322500D03*
X95930000Y-127322500D03*
D11*
X68580000Y-101600000D03*
D12*
X71120000Y-101600000D03*
X73660000Y-101600000D03*
D17*
X102540000Y-129280000D03*
X100715000Y-129280000D03*
D21*
X85770000Y-121597500D03*
X85120000Y-121597500D03*
X84470000Y-121597500D03*
X83820000Y-121597500D03*
X83170000Y-121597500D03*
X82520000Y-121597500D03*
X81870000Y-121597500D03*
X81870000Y-127322500D03*
X82520000Y-127322500D03*
X83170000Y-127322500D03*
X83820000Y-127322500D03*
X84470000Y-127322500D03*
X85120000Y-127322500D03*
X85770000Y-127322500D03*
D22*
X45640000Y-138180000D03*
D23*
X45640000Y-138180000D03*
D10*
X93657500Y-57740000D03*
X93657500Y-58390000D03*
X93657500Y-59040000D03*
X93657500Y-59690000D03*
X93657500Y-60340000D03*
X93657500Y-60990000D03*
X93657500Y-61640000D03*
X99382500Y-61640000D03*
X99382500Y-60990000D03*
X99382500Y-60340000D03*
X99382500Y-59690000D03*
X99382500Y-59040000D03*
X99382500Y-58390000D03*
X99382500Y-57740000D03*
D11*
X68580000Y-104140000D03*
D12*
X71120000Y-104140000D03*
X73660000Y-104140000D03*
X76200000Y-104140000D03*
D24*
X45720000Y-121920000D03*
D25*
X45720000Y-127000000D03*
D11*
X81280000Y-139700000D03*
D12*
X83820000Y-139700000D03*
X86360000Y-139700000D03*
X88900000Y-139700000D03*
X91440000Y-139700000D03*
X93980000Y-139700000D03*
X96520000Y-139700000D03*
X99060000Y-139700000D03*
X101600000Y-139700000D03*
D11*
X43180000Y-106680000D03*
D12*
X43180000Y-104140000D03*
X45720000Y-106680000D03*
X45720000Y-104140000D03*
X48260000Y-106680000D03*
X48260000Y-104140000D03*
D23*
X135640000Y-138180000D03*
D22*
X135640000Y-138180000D03*
D10*
X80957500Y-69170000D03*
X80957500Y-69820000D03*
X80957500Y-70470000D03*
X80957500Y-71120000D03*
X80957500Y-71770000D03*
X80957500Y-72420000D03*
X80957500Y-73070000D03*
X86682500Y-73070000D03*
X86682500Y-72420000D03*
X86682500Y-71770000D03*
X86682500Y-71120000D03*
X86682500Y-70470000D03*
X86682500Y-69820000D03*
X86682500Y-69170000D03*
D20*
X66675000Y-130550000D03*
X67945000Y-130550000D03*
X69215000Y-130550000D03*
X70485000Y-130550000D03*
X71755000Y-130550000D03*
X73025000Y-130550000D03*
X74295000Y-130550000D03*
X75565000Y-130550000D03*
X75565000Y-123450000D03*
X74295000Y-123450000D03*
X73025000Y-123450000D03*
X71755000Y-123450000D03*
X70485000Y-123450000D03*
X69215000Y-123450000D03*
X67945000Y-123450000D03*
X66675000Y-123450000D03*
D10*
X106357500Y-46310000D03*
X106357500Y-46960000D03*
X106357500Y-47610000D03*
X106357500Y-48260000D03*
X106357500Y-48910000D03*
X106357500Y-49560000D03*
X106357500Y-50210000D03*
X112082500Y-50210000D03*
X112082500Y-49560000D03*
X112082500Y-48910000D03*
X112082500Y-48260000D03*
X112082500Y-47610000D03*
X112082500Y-46960000D03*
X112082500Y-46310000D03*
X80957500Y-86950000D03*
X80957500Y-87600000D03*
X80957500Y-88250000D03*
X80957500Y-88900000D03*
X80957500Y-89550000D03*
X80957500Y-90200000D03*
X80957500Y-90850000D03*
X86682500Y-90850000D03*
X86682500Y-90200000D03*
X86682500Y-89550000D03*
X86682500Y-88900000D03*
X86682500Y-88250000D03*
X86682500Y-87600000D03*
X86682500Y-86950000D03*
D26*
X109500000Y-132430000D03*
D27*
X109500000Y-138430000D03*
D28*
X114300000Y-135430000D03*
D10*
X93657500Y-48850000D03*
X93657500Y-49500000D03*
X93657500Y-50150000D03*
X93657500Y-50800000D03*
X93657500Y-51450000D03*
X93657500Y-52100000D03*
X93657500Y-52750000D03*
X99382500Y-52750000D03*
X99382500Y-52100000D03*
X99382500Y-51450000D03*
X99382500Y-50800000D03*
X99382500Y-50150000D03*
X99382500Y-49500000D03*
X99382500Y-48850000D03*
D11*
X101600000Y-124460000D03*
D12*
X101600000Y-121920000D03*
X101600000Y-119380000D03*
D29*
X69540000Y-97230000D03*
X69540000Y-95480000D03*
D10*
X80957500Y-78060000D03*
X80957500Y-78710000D03*
X80957500Y-79360000D03*
X80957500Y-80010000D03*
X80957500Y-80660000D03*
X80957500Y-81310000D03*
X80957500Y-81960000D03*
X86682500Y-81960000D03*
X86682500Y-81310000D03*
X86682500Y-80660000D03*
X86682500Y-80010000D03*
X86682500Y-79360000D03*
X86682500Y-78710000D03*
X86682500Y-78060000D03*
D11*
X81280000Y-116840000D03*
D12*
X81280000Y-114300000D03*
D10*
X93657500Y-66630000D03*
X93657500Y-67280000D03*
X93657500Y-67930000D03*
X93657500Y-68580000D03*
X93657500Y-69230000D03*
X93657500Y-69880000D03*
X93657500Y-70530000D03*
X99382500Y-70530000D03*
X99382500Y-69880000D03*
X99382500Y-69230000D03*
X99382500Y-68580000D03*
X99382500Y-67930000D03*
X99382500Y-67280000D03*
X99382500Y-66630000D03*
D11*
X68580000Y-116840000D03*
D12*
X66040000Y-116840000D03*
D22*
X135640000Y-48180000D03*
D23*
X135640000Y-48180000D03*
D11*
X81280000Y-132080000D03*
D12*
X83820000Y-132080000D03*
X86360000Y-132080000D03*
X88900000Y-132080000D03*
X91440000Y-132080000D03*
X93980000Y-132080000D03*
X96520000Y-132080000D03*
X99060000Y-132080000D03*
X101600000Y-132080000D03*
D11*
X137160000Y-58420000D03*
D12*
X137160000Y-60960000D03*
X137160000Y-63500000D03*
X137160000Y-66040000D03*
X137160000Y-68580000D03*
X137160000Y-71120000D03*
X137160000Y-73660000D03*
X137160000Y-76200000D03*
X137160000Y-78740000D03*
X137160000Y-81280000D03*
X137160000Y-83820000D03*
X137160000Y-86360000D03*
X137160000Y-88900000D03*
X137160000Y-91440000D03*
X137160000Y-93980000D03*
X137160000Y-96520000D03*
X137160000Y-99060000D03*
X137160000Y-101600000D03*
X137160000Y-104140000D03*
X137160000Y-106680000D03*
X137160000Y-109220000D03*
X137160000Y-111760000D03*
X137160000Y-114300000D03*
X137160000Y-116840000D03*
X137160000Y-119380000D03*
X137160000Y-121920000D03*
X137160000Y-124460000D03*
X137160000Y-127000000D03*
X137160000Y-129540000D03*
X137160000Y-132080000D03*
D11*
X127000000Y-137160000D03*
D12*
X127000000Y-139700000D03*
X124460000Y-137160000D03*
X124460000Y-139700000D03*
X121920000Y-137160000D03*
X121920000Y-139700000D03*
D11*
X43180000Y-50800000D03*
D12*
X45720000Y-50800000D03*
X43180000Y-53340000D03*
X45720000Y-53340000D03*
X43180000Y-55880000D03*
X45720000Y-55880000D03*
X43180000Y-58420000D03*
X45720000Y-58420000D03*
X43180000Y-60960000D03*
X45720000Y-60960000D03*
X43180000Y-63500000D03*
X45720000Y-63500000D03*
X43180000Y-66040000D03*
X45720000Y-66040000D03*
X43180000Y-68580000D03*
X45720000Y-68580000D03*
X43180000Y-71120000D03*
X45720000Y-71120000D03*
X43180000Y-73660000D03*
X45720000Y-73660000D03*
X43180000Y-76200000D03*
X45720000Y-76200000D03*
X43180000Y-78740000D03*
X45720000Y-78740000D03*
X43180000Y-81280000D03*
X45720000Y-81280000D03*
X43180000Y-83820000D03*
X45720000Y-83820000D03*
X43180000Y-86360000D03*
X45720000Y-86360000D03*
X43180000Y-88900000D03*
X45720000Y-88900000D03*
X43180000Y-91440000D03*
X45720000Y-91440000D03*
X43180000Y-93980000D03*
X45720000Y-93980000D03*
X43180000Y-96520000D03*
X45720000Y-96520000D03*
X43180000Y-99060000D03*
X45720000Y-99060000D03*
D11*
X63500000Y-50800000D03*
D12*
X66040000Y-50800000D03*
X63500000Y-53340000D03*
X66040000Y-53340000D03*
X63500000Y-55880000D03*
X66040000Y-55880000D03*
X63500000Y-58420000D03*
X66040000Y-58420000D03*
X63500000Y-60960000D03*
X66040000Y-60960000D03*
X63500000Y-63500000D03*
X66040000Y-63500000D03*
X63500000Y-66040000D03*
X66040000Y-66040000D03*
X63500000Y-68580000D03*
X66040000Y-68580000D03*
X63500000Y-71120000D03*
X66040000Y-71120000D03*
X63500000Y-73660000D03*
X66040000Y-73660000D03*
X63500000Y-76200000D03*
X66040000Y-76200000D03*
X63500000Y-78740000D03*
X66040000Y-78740000D03*
X63500000Y-81280000D03*
X66040000Y-81280000D03*
X63500000Y-83820000D03*
X66040000Y-83820000D03*
X63500000Y-86360000D03*
X66040000Y-86360000D03*
X63500000Y-88900000D03*
X66040000Y-88900000D03*
X63500000Y-91440000D03*
X66040000Y-91440000D03*
X63500000Y-93980000D03*
X66040000Y-93980000D03*
X63500000Y-96520000D03*
X66040000Y-96520000D03*
X63500000Y-99060000D03*
X66040000Y-99060000D03*
D11*
X121920000Y-58420000D03*
D12*
X121920000Y-60960000D03*
X121920000Y-63500000D03*
X121920000Y-66040000D03*
X121920000Y-68580000D03*
X121920000Y-71120000D03*
X121920000Y-73660000D03*
X121920000Y-76200000D03*
X121920000Y-78740000D03*
X121920000Y-81280000D03*
X121920000Y-83820000D03*
X121920000Y-86360000D03*
X121920000Y-88900000D03*
X121920000Y-91440000D03*
X121920000Y-93980000D03*
X121920000Y-96520000D03*
X121920000Y-99060000D03*
X121920000Y-101600000D03*
X121920000Y-104140000D03*
X121920000Y-106680000D03*
X121920000Y-109220000D03*
X121920000Y-111760000D03*
X121920000Y-114300000D03*
X121920000Y-116840000D03*
X121920000Y-119380000D03*
X121920000Y-121920000D03*
X121920000Y-124460000D03*
X121920000Y-127000000D03*
X121920000Y-129540000D03*
X121920000Y-132080000D03*
M02*
