M48
; DRILL file {KiCad (6.0.2)} date Wed Mar  2 03:30:42 2022
; FORMAT={-:-/ absolute / metric / decimal}
; #@! TF.CreationDate,2022-03-02T03:30:42+09:00
; #@! TF.GenerationSoftware,Kicad,Pcbnew,(6.0.2)
; #@! TF.FileFunction,Plated,1,2,PTH
FMAT,2
METRIC
; #@! TA.AperFunction,Plated,PTH,ViaDrill
T1C0.400
; #@! TA.AperFunction,Plated,PTH,ViaDrill
T2C0.600
; #@! TA.AperFunction,Plated,PTH,ViaDrill
T3C0.800
; #@! TA.AperFunction,Plated,PTH,ComponentDrill
T4C0.800
; #@! TA.AperFunction,Plated,PTH,ComponentDrill
T5C1.000
; #@! TA.AperFunction,Plated,PTH,ComponentDrill
T6C1.520
; #@! TA.AperFunction,Plated,PTH,ComponentDrill
T7C3.200
%
G90
G05
T1
X41.64Y-46.18
X41.64Y-48.18
X41.64Y-52.18
X41.64Y-54.58
X41.64Y-57.18
X41.64Y-59.58
X41.64Y-62.18
X41.64Y-70.18
X41.64Y-75.18
X41.64Y-77.48
X41.64Y-80.18
X41.64Y-82.58
X41.64Y-85.18
X41.64Y-90.18
X41.64Y-95.18
X41.64Y-100.18
X41.64Y-102.18
X41.64Y-104.18
X41.64Y-106.18
X41.64Y-108.18
X41.64Y-110.18
X41.64Y-112.18
X41.64Y-114.18
X41.64Y-116.18
X41.64Y-118.18
X41.64Y-120.18
X41.64Y-122.18
X41.64Y-124.18
X41.64Y-126.18
X41.64Y-128.18
X41.64Y-130.18
X41.64Y-132.18
X41.64Y-134.18
X41.64Y-136.18
X41.64Y-138.18
X41.64Y-140.18
X42.64Y-142.18
X42.94Y-114.48
X43.64Y-44.18
X44.14Y-116.88
X44.64Y-142.18
X45.34Y-108.48
X45.64Y-44.18
X45.74Y-114.28
X46.24Y-116.88
X46.64Y-108.98
X46.64Y-110.08
X47.44Y-96.78
X47.515Y-53.355
X47.582Y-57.438
X47.64Y-44.18
X47.64Y-92.18
X47.64Y-111.38
X47.64Y-142.18
X47.69Y-101.53
X47.74Y-71.58
X47.74Y-73.18
X47.74Y-75.08
X47.74Y-77.08
X47.74Y-78.78
X47.74Y-81.68
X47.74Y-84.78
X47.74Y-87.68
X47.74Y-89.88
X48.64Y-68.08
X48.64Y-69.88
X48.64Y-72.18
X48.64Y-74.08
X48.64Y-75.88
X48.64Y-77.88
X48.64Y-79.58
X48.715Y-63.482
X48.74Y-83.78
X48.74Y-88.98
X48.74Y-91.08
X48.74Y-115.98
X48.84Y-60.48
X48.852Y-113.492
X49.14Y-108.68
X49.22Y-86.36
X49.44Y-111.38
X49.64Y-44.18
X49.64Y-142.18
X49.69Y-99.03
X49.708Y-50.748
X49.99Y-55.03
X50.44Y-95.08
X50.69Y-58.63
X51.04Y-81.08
X51.09Y-65.63
X51.14Y-71.38
X51.34Y-74.38
X51.39Y-79.13
X51.39Y-100.73
X51.64Y-44.18
X51.64Y-142.18
X51.74Y-88.88
X51.84Y-62.98
X51.878Y-112.542
X51.94Y-85.58
X51.94Y-115.68
X51.958Y-48.498
X51.99Y-53.03
X52.04Y-118.08
X52.44Y-125.08
X52.44Y-128.48
X52.44Y-131.98
X52.44Y-136.18
X52.54Y-94.58
X52.59Y-56.73
X52.74Y-91.78
X52.84Y-63.48
X52.84Y-64.78
X52.84Y-66.18
X52.84Y-80.88
X53.64Y-44.18
X53.64Y-142.18
X53.74Y-98.38
X53.94Y-121.88
X53.94Y-127.38
X53.975Y-131.945
X54.04Y-71.38
X54.04Y-74.38
X54.04Y-78.08
X54.04Y-114.88
X54.14Y-63.48
X54.14Y-64.78
X54.14Y-66.18
X54.224Y-51.956
X54.24Y-48.68
X54.24Y-50.28
X54.24Y-53.58
X54.24Y-55.38
X54.24Y-58.98
X54.248Y-47.125
X54.252Y-57.192
X54.54Y-110.88
X54.64Y-83.08
X54.64Y-84.804
X54.64Y-86.38
X54.64Y-87.88
X54.64Y-91.18
X54.64Y-94.88
X54.64Y-97.08
X54.64Y-99.38
X54.64Y-101.08
X54.64Y-102.58
X55.01Y-47.85
X55.015Y-134.278
X55.027Y-54.468
X55.04Y-49.48
X55.04Y-51.08
X55.04Y-52.68
X55.04Y-56.18
X55.04Y-57.98
X55.04Y-59.78
X55.24Y-121.88
X55.64Y-44.18
X55.64Y-105.48
X55.64Y-142.18
X55.741Y-133.552
X55.84Y-81.38
X56.14Y-113.28
X56.24Y-65.48
X56.24Y-67.88
X56.34Y-71.28
X56.34Y-74.404
X56.34Y-78.08
X56.44Y-58.18
X56.44Y-121.98
X56.74Y-133.98
X57.24Y-56.18
X57.44Y-110.68
X57.54Y-83.18
X57.54Y-84.804
X57.54Y-86.38
X57.54Y-87.88
X57.54Y-91.18
X57.54Y-94.88
X57.54Y-97.08
X57.54Y-99.38
X57.54Y-101.08
X57.54Y-102.58
X57.64Y-44.18
X57.64Y-142.18
X57.74Y-114.18
X57.74Y-116.48
X57.74Y-121.98
X57.74Y-127.38
X57.74Y-133.38
X57.84Y-131.98
X58.34Y-108.18
X58.44Y-53.98
X58.64Y-117.28
X58.74Y-113.68
X59.04Y-59.88
X59.04Y-121.98
X59.055Y-131.965
X59.14Y-61.98
X59.14Y-65.48
X59.14Y-67.88
X59.14Y-70.28
X59.14Y-74.404
X59.14Y-78.08
X59.14Y-81.38
X59.64Y-44.18
X59.64Y-142.18
X59.74Y-116.88
X59.74Y-118.08
X59.84Y-112.68
X60.325Y-131.995
X60.34Y-121.98
X60.34Y-125.08
X60.34Y-127.38
X60.413Y-106.607
X60.44Y-50.58
X60.54Y-87.88
X60.54Y-91.18
X60.54Y-94.88
X60.54Y-97.08
X60.54Y-99.38
X60.54Y-102.58
X60.74Y-68.38
X60.74Y-110.68
X61.04Y-118.38
X61.086Y-84.781
X61.34Y-119.58
X61.595Y-131.98
X61.64Y-44.18
X61.64Y-53.28
X61.64Y-55.88
X61.64Y-58.18
X61.64Y-142.18
X61.74Y-64.78
X61.995Y-74.835
X62.24Y-61.98
X62.34Y-112.68
X62.59Y-104.73
X62.713Y-108.907
X62.84Y-125.08
X62.84Y-127.38
X62.94Y-132.08
X63.14Y-118.38
X63.64Y-44.18
X63.64Y-142.18
X64.49Y-106.63
X64.54Y-116.08
X64.64Y-118.18
X64.998Y-110.805
X65.04Y-125.08
X65.04Y-128.48
X65.04Y-131.98
X65.64Y-44.18
X65.64Y-142.18
X65.94Y-100.831
X66.34Y-108.48
X66.44Y-136.08
X66.64Y-121.98
X66.64Y-127.28
X66.64Y-132.08
X66.84Y-104.38
X67.41Y-98.41
X67.54Y-132.88
X67.64Y-44.18
X67.64Y-66.08
X67.64Y-142.18
X67.94Y-76.68
X67.94Y-121.98
X68.34Y-134.38
X68.364Y-53.38
X68.54Y-62.58
X68.54Y-63.78
X68.54Y-107.004
X68.89Y-108.63
X69.04Y-71.18
X69.14Y-133.68
X69.214Y-73.613
X69.24Y-85.08
X69.24Y-122.08
X69.26Y-86.36
X69.34Y-88.48
X69.34Y-110.78
X69.64Y-44.18
X69.64Y-142.18
X69.84Y-62.58
X69.84Y-63.78
X69.84Y-77.48
X69.84Y-79.18
X69.84Y-80.98
X69.94Y-72.08
X69.94Y-93.88
X70.017Y-106.139
X70.24Y-133.28
X70.34Y-98.28
X70.44Y-83.98
X70.44Y-85.08
X70.44Y-86.38
X70.44Y-122.08
X70.54Y-116.68
X70.54Y-127.28
X70.54Y-132.08
X70.64Y-78.38
X70.64Y-80.08
X70.74Y-71.18
X71.04Y-56.78
X71.04Y-97.28
X71.14Y-62.58
X71.14Y-63.78
X71.14Y-106.68
X71.24Y-50.58
X71.34Y-117.28
X71.64Y-44.18
X71.64Y-72.08
X71.64Y-142.18
X71.74Y-85.08
X71.74Y-86.38
X71.74Y-122.08
X71.84Y-132.08
X71.856Y-53.364
X72.033Y-51.387
X72.14Y-110.78
X72.206Y-116.714
X72.24Y-67.18
X72.24Y-71.18
X72.44Y-88.58
X72.44Y-90.28
X72.44Y-92.18
X72.44Y-118.08
X72.84Y-50.591
X72.94Y-108.08
X73.04Y-122.08
X73.04Y-125.08
X73.04Y-127.28
X73.04Y-132.08
X73.14Y-66.504
X73.14Y-87.78
X73.14Y-89.48
X73.14Y-91.38
X73.39Y-75.53
X73.44Y-113.98
X73.589Y-51.38
X73.64Y-44.18
X73.64Y-142.18
X73.74Y-97.98
X74.04Y-119.48
X74.202Y-67.018
X74.328Y-50.592
X74.34Y-132.08
X74.44Y-109.68
X74.64Y-58.18
X74.966Y-66.373
X75.14Y-51.48
X75.24Y-70.18
X75.54Y-91.38
X75.54Y-125.08
X75.565Y-127.355
X75.64Y-44.18
X75.64Y-59.08
X75.64Y-132.08
X75.64Y-142.18
X75.74Y-106.48
X75.747Y-67.109
X75.94Y-49.88
X76.14Y-111.48
X76.24Y-116.68
X76.44Y-58.18
X76.5Y-66.451
X77.24Y-59.08
X77.29Y-79.43
X77.44Y-93.08
X77.44Y-101.48
X77.44Y-108.28
X77.54Y-67.78
X77.64Y-44.18
X77.64Y-142.18
X77.74Y-72.48
X78.04Y-58.18
X78.204Y-105.131
X78.34Y-113.28
X78.34Y-121.28
X78.34Y-123.48
X78.34Y-126.48
X78.34Y-128.98
X78.64Y-135.08
X78.64Y-140.68
X79.04Y-50.38
X79.04Y-57.58
X79.04Y-59.08
X79.14Y-64.18
X79.14Y-104.68
X79.34Y-128.08
X79.44Y-60.08
X79.44Y-67.78
X79.44Y-68.88
X79.44Y-72.68
X79.44Y-76.68
X79.44Y-81.58
X79.44Y-85.58
X79.44Y-90.38
X79.44Y-94.38
X79.44Y-95.58
X79.44Y-99.28
X79.452Y-86.592
X79.524Y-77.696
X79.54Y-110.38
X79.64Y-44.18
X79.64Y-142.18
X79.74Y-117.58
X80.34Y-128.88
X80.94Y-121.08
X80.94Y-124.58
X80.94Y-127.08
X81.04Y-106.28
X81.64Y-44.18
X81.64Y-142.18
X82.54Y-50.38
X82.54Y-63.38
X82.54Y-72.18
X82.54Y-123.28
X82.54Y-125.58
X82.565Y-58.955
X82.602Y-76.642
X82.64Y-56.98
X82.64Y-81.38
X82.64Y-85.58
X82.64Y-90.08
X82.64Y-94.38
X82.64Y-99.08
X82.64Y-104.08
X82.74Y-110.38
X83.64Y-44.18
X83.64Y-129.48
X83.64Y-142.18
X83.74Y-107.48
X83.84Y-60.28
X83.84Y-69.18
X83.84Y-78.08
X83.84Y-86.98
X83.84Y-95.88
X83.84Y-104.08
X84.04Y-130.48
X85.04Y-50.38
X85.04Y-59.08
X85.04Y-63.38
X85.04Y-72.18
X85.04Y-76.68
X85.04Y-81.38
X85.04Y-90.08
X85.04Y-94.38
X85.04Y-99.08
X85.04Y-104.08
X85.078Y-85.517
X85.14Y-57.08
X85.24Y-110.38
X85.64Y-44.18
X85.64Y-142.18
X85.74Y-124.38
X85.84Y-119.78
X86.14Y-129.08
X87.04Y-56.98
X87.04Y-123.08
X87.04Y-125.58
X87.54Y-110.38
X87.64Y-44.18
X87.64Y-50.28
X87.64Y-142.18
X87.74Y-105.63
X88.014Y-72.692
X88.04Y-60.08
X88.04Y-63.88
X88.04Y-107.38
X88.14Y-68.88
X88.14Y-77.78
X88.14Y-81.58
X88.14Y-86.68
X88.14Y-90.48
X88.14Y-95.58
X88.14Y-99.38
X88.54Y-103.38
X88.54Y-104.906
X88.84Y-121.28
X88.84Y-123.48
X88.84Y-126.48
X88.84Y-128.88
X89.64Y-44.18
X89.64Y-54.98
X89.64Y-60.08
X89.64Y-63.98
X89.64Y-142.18
X89.691Y-128.08
X89.94Y-68.88
X89.94Y-73.38
X89.94Y-77.88
X89.94Y-81.98
X89.94Y-86.68
X89.94Y-90.48
X89.94Y-95.58
X89.94Y-99.38
X90.14Y-111.88
X90.54Y-128.88
X91.04Y-108.18
X91.04Y-109.18
X91.14Y-120.753
X91.14Y-124.58
X91.14Y-127.08
X91.64Y-44.18
X91.64Y-142.18
X91.84Y-47.28
X91.94Y-48.48
X92.04Y-52.38
X92.04Y-56.28
X92.04Y-100.78
X92.04Y-101.98
X92.04Y-105.58
X92.04Y-106.456
X92.14Y-57.48
X92.14Y-61.28
X92.14Y-65.38
X92.14Y-66.48
X92.14Y-70.38
X92.14Y-74.18
X92.14Y-79.08
X92.14Y-82.88
X92.14Y-83.98
X92.14Y-88.08
X92.14Y-91.78
X92.14Y-96.78
X92.152Y-92.792
X92.24Y-75.38
X92.24Y-111.08
X92.74Y-123.18
X92.74Y-125.58
X93.64Y-44.18
X93.64Y-142.18
X94.64Y-111.08
X95.14Y-52.38
X95.24Y-56.58
X95.24Y-61.28
X95.24Y-65.38
X95.24Y-69.68
X95.24Y-74.28
X95.295Y-47.125
X95.34Y-78.78
X95.34Y-82.88
X95.34Y-87.58
X95.34Y-91.78
X95.34Y-96.48
X95.34Y-100.78
X95.34Y-105.48
X95.397Y-107.423
X95.64Y-44.18
X95.64Y-142.18
X95.84Y-124.28
X96.34Y-119.78
X96.34Y-129.08
X96.44Y-48.88
X96.44Y-111.78
X96.54Y-57.78
X96.54Y-66.68
X96.54Y-75.58
X96.54Y-84.48
X96.54Y-93.38
X96.54Y-102.28
X96.54Y-107.38
X97.24Y-123.08
X97.24Y-125.68
X97.64Y-44.18
X97.64Y-142.18
X97.685Y-47.125
X97.74Y-52.38
X97.74Y-56.58
X97.74Y-61.28
X97.74Y-65.38
X97.74Y-69.68
X97.74Y-74.28
X97.74Y-78.78
X97.74Y-82.88
X97.74Y-87.58
X97.74Y-91.88
X97.74Y-96.48
X97.74Y-100.78
X97.74Y-105.48
X97.74Y-107.38
X97.743Y-115.483
X98.04Y-119.28
X98.04Y-120.48
X98.04Y-121.78
X99.443Y-109.555
X99.64Y-44.18
X99.64Y-129.28
X99.64Y-142.18
X100.24Y-120.48
X100.64Y-108.78
X100.64Y-130.38
X100.666Y-109.755
X100.74Y-116.829
X100.74Y-75.28
X100.74Y-79.18
X100.74Y-83.88
X100.74Y-87.88
X100.74Y-92.88
X100.74Y-96.88
X100.74Y-101.98
X100.74Y-105.68
X100.757Y-115.821
X100.94Y-48.48
X100.94Y-52.48
X100.94Y-66.38
X100.94Y-70.28
X101.016Y-112.548
X101.04Y-57.48
X101.04Y-61.58
X101.54Y-114.08
X101.64Y-44.18
X101.64Y-142.18
X102.04Y-53.18
X102.44Y-49.28
X102.74Y-57.58
X102.74Y-61.58
X102.74Y-65.38
X102.74Y-70.38
X102.74Y-74.28
X102.74Y-79.08
X102.74Y-83.88
X102.74Y-88.48
X102.74Y-92.88
X102.74Y-96.98
X102.74Y-100.88
X103.64Y-44.18
X103.64Y-142.18
X103.74Y-79.38
X103.74Y-82.68
X104.04Y-116.78
X104.04Y-119.28
X104.04Y-120.48
X104.097Y-112.23
X104.44Y-74.08
X104.64Y-96.98
X104.74Y-46.08
X104.74Y-87.98
X104.74Y-92.78
X104.84Y-49.88
X104.84Y-53.68
X104.84Y-58.78
X104.84Y-65.48
X104.84Y-123.68
X104.94Y-54.88
X105.04Y-70.28
X105.14Y-98.48
X105.24Y-119.38
X105.24Y-120.48
X105.34Y-113.58
X105.64Y-44.18
X105.64Y-142.18
X106.74Y-125.48
X106.94Y-70.28
X106.94Y-88.68
X106.94Y-92.78
X107.04Y-110.28
X107.64Y-44.18
X107.64Y-142.18
X107.94Y-49.88
X107.94Y-53.58
X107.94Y-58.28
X107.94Y-65.48
X107.94Y-93.88
X108.24Y-120.88
X108.24Y-126.98
X108.49Y-111.73
X108.59Y-116.83
X109.04Y-106.98
X109.14Y-55.28
X109.14Y-67.48
X109.24Y-46.28
X109.24Y-65.08
X109.64Y-44.18
X109.64Y-142.18
X109.94Y-128.58
X110.44Y-53.68
X110.44Y-58.28
X110.54Y-49.88
X110.84Y-118.88
X111.09Y-114.33
X111.316Y-62.783
X111.34Y-123.98
X111.54Y-130.28
X111.64Y-44.18
X111.64Y-142.18
X112.29Y-110.23
X112.302Y-105.318
X112.52Y-72.6
X112.54Y-76.88
X113.24Y-131.98
X113.34Y-101.88
X113.34Y-116.38
X113.39Y-121.63
X113.64Y-44.18
X113.64Y-46.18
X113.64Y-54.88
X113.64Y-58.88
X113.64Y-142.18
X113.653Y-60.768
X113.74Y-49.88
X114.54Y-127.18
X114.64Y-69.78
X114.64Y-112.98
X114.84Y-46.18
X114.84Y-53.68
X114.94Y-108.18
X114.99Y-79.33
X115.14Y-103.68
X115.37Y-75.45
X115.44Y-49.98
X115.49Y-118.73
X115.64Y-44.18
X115.64Y-142.18
X115.69Y-99.03
X116.09Y-124.33
X116.84Y-129.48
X117.04Y-67.28
X117.19Y-115.53
X117.29Y-72.43
X117.64Y-44.18
X117.64Y-81.98
X117.64Y-93.58
X117.64Y-95.68
X117.64Y-120.68
X117.64Y-142.18
X117.87Y-77.95
X117.89Y-111.13
X117.94Y-101.08
X118.19Y-106.73
X118.24Y-126.28
X118.44Y-131.18
X118.54Y-48.58
X118.84Y-94.68
X118.84Y-96.68
X119.34Y-135.28
X119.64Y-44.18
X119.64Y-142.18
X119.828Y-107.992
X119.84Y-64.78
X119.84Y-69.98
X119.84Y-74.98
X119.87Y-79.95
X119.94Y-97.88
X119.94Y-102.88
X119.94Y-117.88
X119.94Y-123.18
X119.94Y-128.18
X119.952Y-112.968
X119.974Y-84.446
X119.99Y-95.68
X119.999Y-89.964
X120.24Y-50.28
X120.64Y-47.18
X121.64Y-44.18
X121.64Y-142.18
X121.84Y-134.18
X121.92Y-51.96
X121.92Y-53.6
X121.92Y-55.0
X121.92Y-56.56
X121.99Y-48.53
X123.64Y-44.18
X123.64Y-142.18
X123.74Y-50.28
X123.74Y-96.18
X123.74Y-98.18
X124.44Y-54.48
X124.74Y-135.28
X125.24Y-96.18
X125.24Y-98.18
X125.64Y-44.18
X125.64Y-142.18
X125.89Y-52.43
X126.64Y-56.68
X127.64Y-44.18
X127.64Y-142.18
X128.5Y-96.52
X128.74Y-99.18
X128.84Y-54.88
X129.54Y-133.88
X129.54Y-135.18
X129.64Y-44.18
X129.64Y-142.18
X130.24Y-99.18
X131.04Y-133.88
X131.04Y-135.18
X131.34Y-54.88
X131.64Y-44.18
X131.64Y-142.18
X133.64Y-44.18
X133.64Y-142.18
X133.74Y-54.88
X135.04Y-56.18
X135.64Y-44.18
X135.64Y-142.18
X137.34Y-56.18
X137.64Y-44.18
X137.64Y-142.18
X139.64Y-45.18
X139.64Y-47.18
X139.64Y-50.18
X139.64Y-52.18
X139.64Y-54.18
X139.64Y-56.18
X139.64Y-58.18
X139.64Y-60.18
X139.64Y-62.18
X139.64Y-64.18
X139.64Y-66.18
X139.64Y-68.18
X139.64Y-70.18
X139.64Y-72.18
X139.64Y-74.18
X139.64Y-76.18
X139.64Y-78.18
X139.64Y-80.18
X139.64Y-82.18
X139.64Y-84.18
X139.64Y-86.18
X139.64Y-88.18
X139.64Y-90.18
X139.64Y-92.18
X139.64Y-94.18
X139.64Y-96.18
X139.64Y-98.18
X139.64Y-100.18
X139.64Y-102.18
X139.64Y-104.18
X139.64Y-106.18
X139.64Y-108.18
X139.64Y-110.18
X139.64Y-112.18
X139.64Y-114.18
X139.64Y-116.18
X139.64Y-118.18
X139.64Y-120.18
X139.64Y-122.18
X139.64Y-124.18
X139.64Y-126.18
X139.64Y-128.18
X139.64Y-130.18
X139.64Y-132.18
X139.64Y-134.18
X139.64Y-136.18
X139.64Y-139.18
X139.64Y-141.18
T2
X56.24Y-108.18
X56.24Y-111.48
X61.04Y-104.98
X68.54Y-109.88
X68.54Y-111.98
X73.14Y-109.28
X73.64Y-111.88
X82.64Y-108.58
X82.84Y-106.48
X86.64Y-108.23
X89.94Y-106.68
X97.903Y-109.255
X98.74Y-127.28
X99.367Y-112.479
X117.94Y-46.18
X128.04Y-56.28
T3
X56.04Y-86.38
X56.04Y-101.08
X57.64Y-67.88
X57.64Y-81.38
X58.94Y-86.38
X59.14Y-101.08
X104.34Y-126.78
X110.84Y-126.88
X115.24Y-131.78
T5
X43.18Y-50.8
X43.18Y-53.34
X43.18Y-55.88
X43.18Y-58.42
X43.18Y-60.96
X43.18Y-63.5
X43.18Y-66.04
X43.18Y-68.58
X43.18Y-71.12
X43.18Y-73.66
X43.18Y-76.2
X43.18Y-78.74
X43.18Y-81.28
X43.18Y-83.82
X43.18Y-86.36
X43.18Y-88.9
X43.18Y-91.44
X43.18Y-93.98
X43.18Y-96.52
X43.18Y-99.06
X43.18Y-104.14
X43.18Y-106.68
X45.72Y-50.8
X45.72Y-53.34
X45.72Y-55.88
X45.72Y-58.42
X45.72Y-60.96
X45.72Y-63.5
X45.72Y-66.04
X45.72Y-68.58
X45.72Y-71.12
X45.72Y-73.66
X45.72Y-76.2
X45.72Y-78.74
X45.72Y-81.28
X45.72Y-83.82
X45.72Y-86.36
X45.72Y-88.9
X45.72Y-91.44
X45.72Y-93.98
X45.72Y-96.52
X45.72Y-99.06
X45.72Y-104.14
X45.72Y-106.68
X48.26Y-104.14
X48.26Y-106.68
X53.34Y-116.84
X53.34Y-139.7
X55.88Y-116.84
X55.88Y-139.7
X58.42Y-139.7
X60.96Y-139.7
X63.5Y-50.8
X63.5Y-53.34
X63.5Y-55.88
X63.5Y-58.42
X63.5Y-60.96
X63.5Y-63.5
X63.5Y-66.04
X63.5Y-68.58
X63.5Y-71.12
X63.5Y-73.66
X63.5Y-76.2
X63.5Y-78.74
X63.5Y-81.28
X63.5Y-83.82
X63.5Y-86.36
X63.5Y-88.9
X63.5Y-91.44
X63.5Y-93.98
X63.5Y-96.52
X63.5Y-99.06
X63.5Y-139.7
X66.04Y-50.8
X66.04Y-53.34
X66.04Y-55.88
X66.04Y-58.42
X66.04Y-60.96
X66.04Y-63.5
X66.04Y-66.04
X66.04Y-68.58
X66.04Y-71.12
X66.04Y-73.66
X66.04Y-76.2
X66.04Y-78.74
X66.04Y-81.28
X66.04Y-83.82
X66.04Y-86.36
X66.04Y-88.9
X66.04Y-91.44
X66.04Y-93.98
X66.04Y-96.52
X66.04Y-99.06
X66.04Y-116.84
X66.04Y-139.7
X68.58Y-101.6
X68.58Y-104.14
X68.58Y-116.84
X68.58Y-139.7
X71.12Y-101.6
X71.12Y-104.14
X71.12Y-139.7
X73.66Y-101.6
X73.66Y-104.14
X73.66Y-139.7
X76.2Y-104.14
X81.28Y-114.3
X81.28Y-116.84
X81.28Y-132.08
X81.28Y-134.62
X81.28Y-139.7
X83.82Y-132.08
X83.82Y-134.62
X83.82Y-139.7
X86.36Y-114.3
X86.36Y-116.84
X86.36Y-132.08
X86.36Y-134.62
X86.36Y-139.7
X88.9Y-132.08
X88.9Y-134.62
X88.9Y-139.7
X91.44Y-114.3
X91.44Y-116.84
X91.44Y-132.08
X91.44Y-134.62
X91.44Y-139.7
X93.98Y-132.08
X93.98Y-134.62
X93.98Y-139.7
X96.52Y-114.3
X96.52Y-116.84
X96.52Y-132.08
X96.52Y-134.62
X96.52Y-139.7
X99.06Y-132.08
X99.06Y-134.62
X99.06Y-139.7
X101.6Y-119.38
X101.6Y-121.92
X101.6Y-124.46
X101.6Y-132.08
X101.6Y-134.62
X101.6Y-139.7
X121.92Y-58.42
X121.92Y-60.96
X121.92Y-63.5
X121.92Y-66.04
X121.92Y-68.58
X121.92Y-71.12
X121.92Y-73.66
X121.92Y-76.2
X121.92Y-78.74
X121.92Y-81.28
X121.92Y-83.82
X121.92Y-86.36
X121.92Y-88.9
X121.92Y-91.44
X121.92Y-93.98
X121.92Y-96.52
X121.92Y-99.06
X121.92Y-101.6
X121.92Y-104.14
X121.92Y-106.68
X121.92Y-109.22
X121.92Y-111.76
X121.92Y-114.3
X121.92Y-116.84
X121.92Y-119.38
X121.92Y-121.92
X121.92Y-124.46
X121.92Y-127.0
X121.92Y-129.54
X121.92Y-132.08
X121.92Y-137.16
X121.92Y-139.7
X124.46Y-137.16
X124.46Y-139.7
X127.0Y-58.42
X127.0Y-60.96
X127.0Y-63.5
X127.0Y-66.04
X127.0Y-68.58
X127.0Y-71.12
X127.0Y-73.66
X127.0Y-76.2
X127.0Y-78.74
X127.0Y-81.28
X127.0Y-83.82
X127.0Y-86.36
X127.0Y-88.9
X127.0Y-91.44
X127.0Y-93.98
X127.0Y-96.52
X127.0Y-99.06
X127.0Y-101.6
X127.0Y-104.14
X127.0Y-106.68
X127.0Y-109.22
X127.0Y-111.76
X127.0Y-114.3
X127.0Y-116.84
X127.0Y-119.38
X127.0Y-121.92
X127.0Y-124.46
X127.0Y-127.0
X127.0Y-129.54
X127.0Y-132.08
X127.0Y-137.16
X127.0Y-139.7
X132.08Y-58.42
X132.08Y-60.96
X132.08Y-63.5
X132.08Y-66.04
X132.08Y-68.58
X132.08Y-71.12
X132.08Y-73.66
X132.08Y-76.2
X132.08Y-78.74
X132.08Y-81.28
X132.08Y-83.82
X132.08Y-86.36
X132.08Y-88.9
X132.08Y-91.44
X132.08Y-93.98
X132.08Y-96.52
X132.08Y-99.06
X132.08Y-101.6
X132.08Y-104.14
X132.08Y-106.68
X132.08Y-109.22
X132.08Y-111.76
X132.08Y-114.3
X132.08Y-116.84
X132.08Y-119.38
X132.08Y-121.92
X132.08Y-124.46
X132.08Y-127.0
X132.08Y-129.54
X132.08Y-132.08
X137.16Y-58.42
X137.16Y-60.96
X137.16Y-63.5
X137.16Y-66.04
X137.16Y-68.58
X137.16Y-71.12
X137.16Y-73.66
X137.16Y-76.2
X137.16Y-78.74
X137.16Y-81.28
X137.16Y-83.82
X137.16Y-86.36
X137.16Y-88.9
X137.16Y-91.44
X137.16Y-93.98
X137.16Y-96.52
X137.16Y-99.06
X137.16Y-101.6
X137.16Y-104.14
X137.16Y-106.68
X137.16Y-109.22
X137.16Y-111.76
X137.16Y-114.3
X137.16Y-116.84
X137.16Y-119.38
X137.16Y-121.92
X137.16Y-124.46
X137.16Y-127.0
X137.16Y-129.54
X137.16Y-132.08
T6
X45.72Y-121.92
X45.72Y-127.0
T7
X45.64Y-138.18
X135.64Y-48.18
X135.64Y-138.18
T4
X110.85Y-132.43G85X108.15Y-132.43
G05
X110.6Y-138.43G85X108.4Y-138.43
G05
X114.3Y-134.33G85X114.3Y-136.53
G05
T0
M30
